<svg width="96" height="96" viewBox="0 0 96 96" fill="none" xmlns="http://www.w3.org/2000/svg">
<rect width="96" height="96" fill="#1E1E1E"/>
<g clip-path="url(#clip0_194_2603)">
<rect width="1920" height="6917" transform="translate(-1007 -3997)" fill="white"/>
<g clip-path="url(#clip1_194_2603)">
<path d="M49.97 28.0701L39.3 17.7701L27.38 17.3101L16.13 18.7401L7.96997 25.5001L1.46997 31.5301L8.62997 39.5001L22.13 47.5301L31.92 46.8301L39.47 45.0001L47.53 38.3901L52.8 31.5301L49.97 28.0701Z" fill="#F9D97D"/>
<path d="M94.51 17.44L77.62 0.54C77.27 0.19 76.8 0 76.31 0H26.36C25.33 0 24.5 0.83 24.5 1.86V13.8C17.81 14.72 12 18.63 8.12 21.98C5.59 24.16 3.64 26.29 2.45 27.7C0 30.58 0 31.05 0 31.54C0 32.03 0 32.46 2.45 35.34C3.65 36.75 5.61 38.89 8.12 41.06C12.56 44.9 19.51 49.48 27.38 49.48C35.25 49.48 42.21 44.93 46.64 41.1C49.17 38.92 51.12 36.79 52.31 35.38C54.76 32.5 54.76 32.03 54.76 31.54C54.76 31.05 54.76 30.62 52.31 27.74C51.11 26.33 49.15 24.19 46.64 22.02C42.36 18.32 35.74 13.93 28.21 13.62V3.71H74.44V18.75C74.44 19.78 75.27 20.61 76.3 20.61H91.34V74.47H88.3V50.56C88.3 49.53 87.47 48.7 86.44 48.7C85.41 48.7 84.58 49.53 84.58 50.56V74.47H79.01V46.59C79.01 46.45 78.99 46.32 78.97 46.19L84.58 40.58V42.8C84.58 43.83 85.41 44.66 86.44 44.66C87.47 44.66 88.3 43.83 88.3 42.8V36.1C88.3 35.07 87.47 34.24 86.44 34.24H79.74C78.71 34.24 77.88 35.07 77.88 36.1C77.88 37.13 78.71 37.96 79.74 37.96H81.96L67.51 52.41L61.3 46.2C60.95 45.85 60.48 45.66 59.99 45.66C59.5 45.66 59.03 45.86 58.68 46.2L44.76 60.12C44.04 60.84 44.04 62.02 44.76 62.75C45.12 63.11 45.6 63.29 46.07 63.29C46.54 63.29 47.02 63.11 47.38 62.75L47.45 62.68V74.48H46.1C45.07 74.48 44.24 75.31 44.24 76.34C44.24 77.37 45.07 78.2 46.1 78.2H91.34V91.36H28.22V85.78C28.22 84.75 27.39 83.92 26.36 83.92C25.33 83.92 24.5 84.75 24.5 85.78V93.22C24.5 94.25 25.33 95.08 26.36 95.08H93.19C94.22 95.08 95.05 94.25 95.05 93.22V18.75C95.05 18.26 94.85 17.79 94.51 17.44ZM43.76 24.43C47.08 27.23 49.52 30.1 50.64 31.55C49.55 32.97 47.12 35.86 43.71 38.71C39.87 41.92 33.92 45.75 27.38 45.75C20.84 45.75 14.86 41.88 11.01 38.63C7.69 35.83 5.25 32.96 4.13 31.51C5.22 30.09 7.65 27.2 11.06 24.35C14.9 21.14 20.85 17.31 27.39 17.31C33.93 17.31 39.91 21.18 43.76 24.43ZM78.16 16.9V6.34L88.72 16.9H78.16ZM56.74 74.47H51.17V58.95L56.74 53.38V74.47ZM66.02 74.47H60.45V50.59L66.02 56.16V74.47ZM75.3 74.47H69.73V55.43L75.3 49.86V74.47Z" fill="#083B5A"/>
<path d="M27.3901 20.95C21.5601 20.95 16.8101 25.69 16.8101 31.53C16.8101 37.37 21.5501 42.11 27.3901 42.11C33.2301 42.11 37.9701 37.37 37.9701 31.53C37.9701 25.69 33.2301 20.95 27.3901 20.95ZM27.3901 38.3899C23.6101 38.3899 20.5301 35.31 20.5301 31.53C20.5301 27.75 23.6101 24.67 27.3901 24.67C31.1701 24.67 34.2501 27.75 34.2501 31.53C34.2501 35.31 31.1701 38.3899 27.3901 38.3899Z" fill="#083B5A"/>
<path d="M28.7 30.2199C28.35 29.8699 27.88 29.6799 27.39 29.6799C26.9 29.6799 26.42 29.8799 26.08 30.2199C25.73 30.5699 25.54 31.0399 25.54 31.5299C25.54 32.0199 25.74 32.4999 26.08 32.8399C26.43 33.1899 26.9 33.3799 27.39 33.3799C27.88 33.3799 28.36 33.1799 28.7 32.8399C29.05 32.4899 29.24 32.0199 29.24 31.5299C29.24 31.0399 29.04 30.5599 28.7 30.2199Z" fill="#083B5A"/>
<path d="M23.45 66.3H2.57997C1.54997 66.3 0.719971 67.13 0.719971 68.16C0.719971 69.19 1.54997 70.02 2.57997 70.02H23.46C24.49 70.02 25.32 69.19 25.32 68.16C25.32 67.13 24.49 66.3 23.46 66.3H23.45Z" fill="#083B5A"/>
<path d="M34.05 66.3H29.78C28.75 66.3 27.92 67.13 27.92 68.16C27.92 69.19 28.75 70.02 29.78 70.02H34.05C35.08 70.02 35.91 69.19 35.91 68.16C35.91 67.13 35.08 66.3 34.05 66.3Z" fill="#083B5A"/>
<path d="M28.35 58.1299H2.57997C1.54997 58.1299 0.719971 58.9599 0.719971 59.9899C0.719971 61.0199 1.54997 61.8499 2.57997 61.8499H28.35C29.38 61.8499 30.21 61.0199 30.21 59.9899C30.21 58.9599 29.38 58.1299 28.35 58.1299Z" fill="#083B5A"/>
<path d="M35.08 58.6699C34.73 58.3199 34.26 58.1299 33.77 58.1299C33.28 58.1299 32.8 58.3299 32.46 58.6699C32.11 59.0199 31.92 59.4899 31.92 59.9799C31.92 60.4699 32.12 60.9499 32.46 61.2899C32.81 61.6399 33.28 61.8299 33.77 61.8299C34.26 61.8299 34.74 61.6299 35.08 61.2899C35.43 60.9399 35.62 60.4699 35.62 59.9799C35.62 59.4899 35.42 59.0099 35.08 58.6699Z" fill="#083B5A"/>
<path d="M17.5 74.47H2.57997C1.54997 74.47 0.719971 75.3 0.719971 76.33C0.719971 77.36 1.54997 78.19 2.57997 78.19H17.51C18.54 78.19 19.37 77.36 19.37 76.33C19.37 75.3 18.54 74.47 17.51 74.47H17.5Z" fill="#083B5A"/>
<path d="M24.76 75.01C24.41 74.66 23.94 74.47 23.45 74.47C22.96 74.47 22.48 74.67 22.14 75.01C21.79 75.36 21.6 75.83 21.6 76.32C21.6 76.81 21.8 77.29 22.14 77.63C22.49 77.98 22.96 78.17 23.45 78.17C23.94 78.17 24.42 77.97 24.76 77.63C25.11 77.28 25.3 76.81 25.3 76.32C25.3 75.83 25.1 75.35 24.76 75.01Z" fill="#083B5A"/>
<path d="M31.0901 75.01C30.7401 74.66 30.2701 74.47 29.7801 74.47C29.2901 74.47 28.8101 74.67 28.4701 75.01C28.1201 75.36 27.9301 75.83 27.9301 76.32C27.9301 76.81 28.1301 77.29 28.4701 77.63C28.8201 77.98 29.2901 78.17 29.7801 78.17C30.2701 78.17 30.7501 77.97 31.0901 77.63C31.4401 77.28 31.6301 76.81 31.6301 76.32C31.6301 75.83 31.4301 75.35 31.0901 75.01Z" fill="#083B5A"/>
<path d="M37.42 75.01C37.07 74.66 36.6 74.47 36.11 74.47C35.62 74.47 35.14 74.67 34.8 75.01C34.45 75.36 34.26 75.83 34.26 76.32C34.26 76.81 34.46 77.29 34.8 77.63C35.15 77.98 35.62 78.17 36.11 78.17C36.6 78.17 37.08 77.97 37.42 77.63C37.77 77.28 37.96 76.81 37.96 76.32C37.96 75.83 37.76 75.35 37.42 75.01Z" fill="#083B5A"/>
<path d="M66.39 9.87012H52.91C51.88 9.87012 51.05 10.7001 51.05 11.7301C51.05 12.7601 51.88 13.5901 52.91 13.5901H66.39C67.42 13.5901 68.25 12.7601 68.25 11.7301C68.25 10.7001 67.42 9.87012 66.39 9.87012Z" fill="#083B5A"/>
<path d="M62.71 17.77H52.91C51.88 17.77 51.05 18.6 51.05 19.63C51.05 20.66 51.88 21.49 52.91 21.49H62.71C63.74 21.49 64.57 20.66 64.57 19.63C64.57 18.6 63.74 17.77 62.71 17.77Z" fill="#083B5A"/>
</g>
</g>
<defs>
<clipPath id="clip0_194_2603">
<rect width="1920" height="6917" fill="white" transform="translate(-1007 -3997)"/>
</clipPath>
<clipPath id="clip1_194_2603">
<rect width="95.05" height="95.05" fill="white"/>
</clipPath>
</defs>
</svg>
