<svg width="125" height="114" viewBox="0 0 125 114" fill="none" xmlns="http://www.w3.org/2000/svg">
<rect width="125" height="114" fill="#1E1E1E"/>
<g clip-path="url(#clip0_194_2603)">
<rect width="1920" height="6917" transform="translate(-995 -1789)" fill="white"/>
<g clip-path="url(#clip1_194_2603)">
<path d="M29.85 85.3301H18.86V97.2201H29.85V85.3301Z" fill="#F9D97D"/>
<path d="M50.83 63.1602H39.84V97.7002H50.83V63.1602Z" fill="#F9D97D"/>
<path d="M72 71.3101H61.01V97.7601H72V71.3101Z" fill="#F9D97D"/>
<path d="M18.96 61.3C21.125 61.3 22.88 59.5449 22.88 57.38C22.88 55.215 21.125 53.46 18.96 53.46C16.7951 53.46 15.04 55.215 15.04 57.38C15.04 59.5449 16.7951 61.3 18.96 61.3Z" fill="#F9D97D"/>
<path d="M42.3599 41.6398C44.5249 41.6398 46.2799 39.8848 46.2799 37.7198C46.2799 35.5549 44.5249 33.7998 42.3599 33.7998C40.195 33.7998 38.4399 35.5549 38.4399 37.7198C38.4399 39.8848 40.195 41.6398 42.3599 41.6398Z" fill="#F9D97D"/>
<path d="M65.45 50.7702C67.615 50.7702 69.37 49.0151 69.37 46.8502C69.37 44.6852 67.615 42.9302 65.45 42.9302C63.2851 42.9302 61.53 44.6852 61.53 46.8502C61.53 49.0151 63.2851 50.7702 65.45 50.7702Z" fill="#F9D97D"/>
<path d="M99.5099 98.5101C107.281 98.5101 113.58 92.2108 113.58 84.4401C113.58 76.6695 107.281 70.3701 99.5099 70.3701C91.7393 70.3701 85.4399 76.6695 85.4399 84.4401C85.4399 92.2108 91.7393 98.5101 99.5099 98.5101Z" fill="#F9D97D"/>
<path d="M86.8 35.6501C88.965 35.6501 90.72 33.895 90.72 31.7301C90.72 29.5651 88.965 27.8101 86.8 27.8101C84.6351 27.8101 82.88 29.5651 82.88 31.7301C82.88 33.895 84.6351 35.6501 86.8 35.6501Z" fill="#F9D97D"/>
<path d="M117.73 1.5H6.98C3.95348 1.5 1.5 3.95348 1.5 6.98V106.25C1.5 109.277 3.95348 111.73 6.98 111.73H117.73C120.757 111.73 123.21 109.277 123.21 106.25V6.98C123.21 3.95348 120.757 1.5 117.73 1.5Z" stroke="#083B5A" stroke-width="3" stroke-miterlimit="10" stroke-linecap="round"/>
<path d="M1.5 18.1299H123.21" stroke="#083B5A" stroke-width="3" stroke-miterlimit="10" stroke-linecap="round"/>
<path d="M23.4399 53.4599L37.8399 41.3999" stroke="#083B5A" stroke-width="3" stroke-miterlimit="10" stroke-linecap="round"/>
<path d="M46.87 39.9199L60.24 45.9699" stroke="#083B5A" stroke-width="3" stroke-miterlimit="10" stroke-linecap="round"/>
<path d="M69.27 45.0698L82.3 34.5698" stroke="#083B5A" stroke-width="3" stroke-miterlimit="10" stroke-linecap="round"/>
<path d="M19.27 60.8399C21.6062 60.8399 23.5 58.946 23.5 56.6099C23.5 54.2737 21.6062 52.3799 19.27 52.3799C16.9339 52.3799 15.04 54.2737 15.04 56.6099C15.04 58.946 16.9339 60.8399 19.27 60.8399Z" stroke="#083B5A" stroke-width="3" stroke-miterlimit="10" stroke-linecap="round"/>
<path d="M42.36 41.9502C44.6962 41.9502 46.59 40.0564 46.59 37.7202C46.59 35.3841 44.6962 33.4902 42.36 33.4902C40.0238 33.4902 38.13 35.3841 38.13 37.7202C38.13 40.0564 40.0238 41.9502 42.36 41.9502Z" stroke="#083B5A" stroke-width="3" stroke-miterlimit="10" stroke-linecap="round"/>
<path d="M65.45 51.3902C67.7861 51.3902 69.68 49.4963 69.68 47.1602C69.68 44.824 67.7861 42.9302 65.45 42.9302C63.1138 42.9302 61.22 44.824 61.22 47.1602C61.22 49.4963 63.1138 51.3902 65.45 51.3902Z" stroke="#083B5A" stroke-width="3" stroke-miterlimit="10" stroke-linecap="round"/>
<path d="M86.45 35.6499C88.7861 35.6499 90.68 33.7561 90.68 31.4199C90.68 29.0838 88.7861 27.1899 86.45 27.1899C84.1138 27.1899 82.22 29.0838 82.22 31.4199C82.22 33.7561 84.1138 35.6499 86.45 35.6499Z" stroke="#083B5A" stroke-width="3" stroke-miterlimit="10" stroke-linecap="round"/>
<path d="M97.99 40.4902H112.69" stroke="#083B5A" stroke-width="3" stroke-miterlimit="10" stroke-linecap="round"/>
<path d="M86.33 47.1602H112.69" stroke="#083B5A" stroke-width="3" stroke-miterlimit="10" stroke-linecap="round"/>
<path d="M104.99 53.46H112.69" stroke="#083B5A" stroke-width="3" stroke-miterlimit="10" stroke-linecap="round"/>
<path d="M87.64 53.46H95.34" stroke="#083B5A" stroke-width="3" stroke-miterlimit="10" stroke-linecap="round"/>
<path d="M12.9 98.1899H77.87" stroke="#083B5A" stroke-width="3" stroke-miterlimit="10" stroke-linecap="round"/>
<path d="M18.13 97.7601V86.0601C18.13 85.6601 18.46 85.3301 18.86 85.3301H29.49C29.89 85.3301 30.22 85.6601 30.22 86.0601V98.1901" stroke="#083B5A" stroke-width="3" stroke-miterlimit="10" stroke-linecap="round"/>
<path d="M60.46 97.1501V72.0401C60.46 71.6401 60.79 71.3101 61.19 71.3101H71.82C72.22 71.3101 72.55 71.6401 72.55 72.0401V97.5801" stroke="#083B5A" stroke-width="3" stroke-miterlimit="10" stroke-linecap="round"/>
<path d="M39.47 96.32V63.46C39.47 63.06 39.8 62.73 40.2 62.73H50.83C51.23 62.73 51.56 63.06 51.56 63.46V96.75" stroke="#083B5A" stroke-width="3" stroke-miterlimit="10" stroke-linecap="round"/>
<path d="M100.09 99.6399C108.302 99.6399 114.96 92.9824 114.96 84.7699C114.96 76.5574 108.302 69.8999 100.09 69.8999C91.8775 69.8999 85.22 76.5574 85.22 84.7699C85.22 92.9824 91.8775 99.6399 100.09 99.6399Z" stroke="#083B5A" stroke-width="3" stroke-miterlimit="10" stroke-linecap="round"/>
<path d="M100.09 69.8999V84.7699L113.57 91.0699" stroke="#083B5A" stroke-width="3" stroke-miterlimit="10" stroke-linecap="round"/>
<path d="M100.09 84.77L90.72 96.32" stroke="#083B5A" stroke-width="3" stroke-miterlimit="10" stroke-linecap="round"/>
<path d="M90.47 12.45C92.033 12.45 93.3 11.183 93.3 9.62004C93.3 8.05707 92.033 6.79004 90.47 6.79004C88.9071 6.79004 87.64 8.05707 87.64 9.62004C87.64 11.183 88.9071 12.45 90.47 12.45Z" stroke="#083B5A" stroke-width="2" stroke-miterlimit="10" stroke-linecap="round"/>
<path d="M101.37 12.45C102.933 12.45 104.2 11.183 104.2 9.62004C104.2 8.05707 102.933 6.79004 101.37 6.79004C99.8071 6.79004 98.54 8.05707 98.54 9.62004C98.54 11.183 99.8071 12.45 101.37 12.45Z" stroke="#083B5A" stroke-width="2" stroke-miterlimit="10" stroke-linecap="round"/>
<path d="M112.07 12.45C113.633 12.45 114.9 11.183 114.9 9.62004C114.9 8.05707 113.633 6.79004 112.07 6.79004C110.507 6.79004 109.24 8.05707 109.24 9.62004C109.24 11.183 110.507 12.45 112.07 12.45Z" stroke="#083B5A" stroke-width="2" stroke-miterlimit="10" stroke-linecap="round"/>
</g>
</g>
<defs>
<clipPath id="clip0_194_2603">
<rect width="1920" height="6917" fill="white" transform="translate(-995 -1789)"/>
</clipPath>
<clipPath id="clip1_194_2603">
<rect width="124.71" height="113.23" fill="white"/>
</clipPath>
</defs>
</svg>
