<svg width="126" height="127" viewBox="0 0 126 127" fill="none" xmlns="http://www.w3.org/2000/svg">
<path d="M84.69 59.4702L74.02 68.7802L51.19 106.11C51.19 106.11 50.09 112.13 50.11 113.44C50.13 114.75 48.01 118.94 48.01 118.94C48.01 118.94 54.86 123.61 56.36 123.77C57.86 123.93 95.2 123.6 95.2 123.6L112.03 123.81L121.08 122.08L123.37 113.93L116.87 103.26L90.87 61.5402L84.7 59.4502L84.69 59.4702Z" fill="#F9D97D"/>
<path d="M94.96 62.65C93.35 60.02 90.71 58.19 87.68 57.6V21.89C87.68 16.13 83 11.46 77.24 11.45H59.96C59.22 10.16 57.85 9.37001 56.37 9.36001H53.57C51.27 2.84001 44.12 -0.589987 37.59 1.71001C34.01 2.97001 31.2 5.78001 29.94 9.36001H27.14C25.66 9.36001 24.29 10.16 23.55 11.45H10.44C4.68 11.46 0 16.13 0 21.89V109.57C0 115.33 4.68 120 10.44 120.01H47.09C47.19 120.21 47.26 120.41 47.37 120.6C49.29 124.11 52.98 126.29 56.99 126.27H114.21C118.21 126.29 121.9 124.11 123.81 120.6C125.83 117.04 125.74 112.65 123.57 109.18L94.96 62.66V62.65ZM83.5 21.9V57.61C82 57.9 80.58 58.5 79.32 59.37V23.98C79.32 21.67 77.45 19.8 75.14 19.8H60.53V15.62H77.23C80.69 15.62 83.49 18.42 83.49 21.88L83.5 21.9ZM27.14 13.54H31.52C32.51 13.54 33.37 12.84 33.57 11.87C34.49 7.35001 38.9 4.44001 43.42 5.36001C46.7 6.03001 49.26 8.59001 49.93 11.87C50.13 12.84 50.98 13.54 51.98 13.54H56.36V21.89H27.13V13.54H27.14ZM56.37 26.07C57.85 26.07 59.22 25.27 59.96 23.98H75.15V64.39L48.64 107.48H12.53V23.98H23.55C24.29 25.27 25.66 26.06 27.14 26.07H56.37ZM10.44 115.83C6.98 115.83 4.18 113.03 4.18 109.57V21.89C4.18 18.43 6.98 15.63 10.44 15.63H22.97V19.81H12.53C10.22 19.81 8.35 21.68 8.35 23.99V107.49C8.35 109.8 10.22 111.67 12.53 111.67H46.48C46.04 113.02 45.87 114.43 45.97 115.85H10.44V115.83ZM120.16 118.56C118.97 120.74 116.68 122.1 114.2 122.09H56.99C54.51 122.09 52.22 120.74 51.03 118.56C49.75 116.31 49.81 113.54 51.18 111.35L79.78 64.83C81.72 61.62 85.9 60.59 89.11 62.53C90.05 63.1 90.84 63.89 91.41 64.83L120.01 111.35C121.38 113.54 121.44 116.3 120.17 118.55L120.16 118.56Z" fill="#083B5A"/>
<path d="M41.75 40.68H68.89C70.04 40.68 70.98 39.75 70.98 38.59C70.98 37.43 70.05 36.5 68.89 36.5H41.75C40.6 36.5 39.66 37.43 39.66 38.59C39.66 39.75 40.59 40.68 41.75 40.68Z" fill="#083B5A"/>
<path d="M41.75 49.0301H54.28C55.43 49.0301 56.37 48.1001 56.37 46.9401C56.37 45.7801 55.44 44.8501 54.28 44.8501H41.75C40.6 44.8501 39.66 45.7801 39.66 46.9401C39.66 48.1001 40.59 49.0301 41.75 49.0301Z" fill="#083B5A"/>
<path d="M41.75 63.64H68.89C70.04 63.64 70.98 62.71 70.98 61.55C70.98 60.39 70.05 59.46 68.89 59.46H41.75C40.6 59.46 39.66 60.39 39.66 61.55C39.66 62.71 40.59 63.64 41.75 63.64Z" fill="#083B5A"/>
<path d="M41.75 71.9901H54.28C55.43 71.9901 56.37 71.0601 56.37 69.9001C56.37 68.7401 55.44 67.8101 54.28 67.8101H41.75C40.6 67.8101 39.66 68.7401 39.66 69.9001C39.66 71.0601 40.59 71.9901 41.75 71.9901Z" fill="#083B5A"/>
<path d="M41.75 86.5999H56.36C57.51 86.5999 58.45 85.6699 58.45 84.5099C58.45 83.3499 57.52 82.4199 56.36 82.4199H41.75C40.6 82.4199 39.66 83.3499 39.66 84.5099C39.66 85.6699 40.59 86.5999 41.75 86.5999Z" fill="#083B5A"/>
<path d="M41.75 94.95H50.1C51.25 94.95 52.19 94.02 52.19 92.86C52.19 91.7 51.26 90.77 50.1 90.77H41.75C40.6 90.77 39.66 91.7 39.66 92.86C39.66 94.02 40.59 94.95 41.75 94.95Z" fill="#083B5A"/>
<path d="M19.4 45.4697C18.59 46.2897 18.59 47.6097 19.4 48.4197L23.58 52.5997C23.97 52.9897 24.5 53.2097 25.06 53.2097C25.17 53.2097 25.28 53.2097 25.39 53.1797C26.05 53.0697 26.62 52.6497 26.92 52.0497L35.27 35.3497C35.79 34.3197 35.37 33.0597 34.33 32.5497C33.29 32.0397 32.04 32.4497 31.53 33.4897L24.48 47.5997L22.35 45.4697C21.53 44.6597 20.21 44.6597 19.4 45.4697Z" fill="#083B5A"/>
<path d="M34.3299 55.5099C33.2999 54.9899 32.0399 55.4099 31.5299 56.4399L24.4799 70.5499L22.3499 68.4199C21.5199 67.6199 20.1999 67.6399 19.3999 68.4699C18.6199 69.2799 18.6199 70.5599 19.3999 71.3699L23.5799 75.5499C23.9699 75.9399 24.4999 76.1599 25.0599 76.1599C25.1699 76.1599 25.2799 76.1599 25.3899 76.1299C26.0499 76.0199 26.6199 75.5999 26.9199 74.9999L35.2699 58.2999C35.7899 57.2699 35.3699 56.0099 34.3399 55.4999L34.3299 55.5099Z" fill="#083B5A"/>
<path d="M34.3299 78.4601C33.2999 77.9401 32.0399 78.3601 31.5299 79.3901L24.4799 93.5001L22.3499 91.3701C21.5199 90.5701 20.1999 90.5901 19.3999 91.4201C18.6199 92.2301 18.6199 93.5101 19.3999 94.3201L23.5799 98.5001C23.9699 98.9001 24.4999 99.1201 25.0599 99.1201C25.1699 99.1201 25.2799 99.1201 25.3899 99.0901C26.0499 98.9801 26.6199 98.5601 26.9199 97.9601L35.2699 81.2601C35.7899 80.2301 35.3799 78.9801 34.3499 78.4601C34.3499 78.4601 34.3499 78.4601 34.3399 78.4601H34.3299Z" fill="#083B5A"/>
<path d="M98.23 97.7697L100.36 96.4697C99.59 92.7897 100.19 95.6697 99.43 91.9897L96.96 91.6497C96.13 90.4197 95.77 89.8897 94.93 88.6597L95.53 86.2397C92.38 84.1797 94.84 85.7897 91.7 83.7297L89.71 85.2297C88.26 84.9497 87.62 84.8297 86.17 84.5497L84.87 82.4297C81.19 83.1897 84.07 82.5897 80.39 83.3597L80.05 85.8197C78.82 86.6497 78.29 87.0197 77.06 87.8497L74.64 87.2597C72.58 90.3997 74.19 87.9497 72.13 91.0897L73.63 93.0697C73.35 94.5297 73.23 95.1597 72.95 96.6197L70.83 97.9097C71.59 101.59 70.99 98.7097 71.76 102.4L74.22 102.74C75.05 103.96 75.42 104.5 76.25 105.72L75.66 108.14C78.8 110.2 76.35 108.59 79.49 110.66L81.47 109.15C82.93 109.43 83.56 109.55 85.02 109.83L86.31 111.96C89.99 111.19 87.11 111.79 90.8 111.03L91.14 108.56C92.36 107.73 92.9 107.37 94.12 106.53L96.54 107.13C98.6 103.98 96.99 106.44 99.06 103.3L97.55 101.31C97.83 99.8597 97.95 99.2197 98.23 97.7697ZM85.59 106.8C80.29 106.8 75.99 102.5 75.99 97.1897C75.99 91.8797 80.29 87.5897 85.59 87.5897C90.8899 87.5897 95.2 91.8897 95.2 97.1897C95.2 102.49 90.9 106.8 85.59 106.8Z" fill="#083B5A"/>
</svg>
