<svg width="130" height="130" viewBox="0 0 130 130" fill="none" xmlns="http://www.w3.org/2000/svg">
<rect width="130" height="130" fill="#1E1E1E"/>
<g clip-path="url(#clip0_194_2603)">
<rect width="1920" height="6917" transform="translate(-983 -2262)" fill="white"/>
<g clip-path="url(#clip1_194_2603)">
<path d="M42.04 72.5998C42.04 72.7398 41.72 78.7998 41.72 79.7198V83.7298C41.72 84.4098 41.67 85.1398 41.26 85.1398H38.07C38.07 85.1398 36.75 86.3698 38.39 87.6898C40.03 89.0098 40.9 90.6998 42.36 92.0198C43.82 93.3398 44.46 93.7998 45.64 94.3898C46.82 94.9798 46.37 95.7998 48.74 94.6598C51.11 93.5198 51.75 93.3798 53.12 92.0598C54.49 90.7398 55.53 88.7298 55.97 88.1398C56.41 87.5498 57.59 86.6298 57.14 86.2198C56.69 85.8098 56.14 85.0298 54.9 85.1298C53.66 85.2298 53.58 85.6298 53.17 85.1298C52.76 84.6298 53.31 83.8998 53.08 81.9798C52.85 80.0598 52.72 78.3798 52.44 76.6898C52.16 74.9998 51.94 74.6298 51.82 73.6998C51.7 72.7698 52.53 72.5398 51.66 72.1298C50.79 71.7198 51.48 71.4498 49.15 71.5398C46.82 71.6298 46.5 71.5898 45.23 71.6298C43.96 71.6698 41.76 72.2798 41.76 72.2798L42.03 72.5898L42.04 72.5998Z" fill="#F9D97D"/>
<path d="M57.57 56.2399C58.65 56.2399 59.7 56.5599 60.59 57.1599C61.06 57.4799 61.71 57.3599 62.02 56.8799C62.34 56.4099 62.22 55.7599 61.74 55.4499C60.5 54.6199 59.06 54.1699 57.57 54.1699C53.45 54.1699 50.1 57.5199 50.1 61.6399C50.1 65.7599 53.45 69.1099 57.57 69.1099C59.46 69.1099 61.18 68.3899 62.41 66.9299C62.78 66.4899 62.72 65.8399 62.28 65.4699C61.84 65.0999 61.19 65.1599 60.82 65.5999C60.04 66.5299 58.95 67.0499 57.56 67.0499C54.58 67.0499 52.16 64.6299 52.16 61.6499C52.16 58.6699 54.58 56.2499 57.56 56.2499L57.57 56.2399Z" fill="#083B5A"/>
<path d="M86.38 63.1201C86.38 61.4801 85.04 60.1401 83.4 60.1401C81.98 60.1401 80.75 61.1501 80.48 62.5401C80.37 63.1001 80.73 63.6401 81.29 63.7501C81.85 63.8601 82.39 63.5001 82.5 62.9401C82.58 62.5201 82.96 62.2101 83.39 62.2101C83.87 62.2101 84.27 62.5901 84.3 63.0701C84.3 63.0801 84.32 63.5101 83.64 64.4701C82.44 66.1901 81.72 67.1201 81.34 67.6301C80.86 68.2601 80.59 68.6101 80.77 69.1701C80.87 69.5001 81.13 69.7601 81.46 69.8701C81.84 70.0001 84.29 69.9501 85.67 69.9301C86.24 69.9301 86.7 69.4501 86.69 68.8801C86.69 68.3101 86.21 67.8601 85.64 67.8601C85 67.8601 84.33 67.8701 83.73 67.8801C84.13 67.3401 84.66 66.6101 85.33 65.6501C85.83 64.9401 86.36 63.9901 86.36 63.1101L86.38 63.1201Z" fill="#083B5A"/>
<path d="M63.63 61.6399C63.63 65.7599 66.98 69.1099 71.1 69.1099C75.22 69.1099 78.57 65.7599 78.57 61.6399C78.57 57.5199 75.22 54.1699 71.1 54.1699C66.98 54.1699 63.63 57.5199 63.63 61.6399ZM76.49 61.6399C76.49 64.6199 74.07 67.0399 71.09 67.0399C68.11 67.0399 65.69 64.6199 65.69 61.6399C65.69 58.6599 68.11 56.2399 71.09 56.2399C74.07 56.2399 76.49 58.6599 76.49 61.6399Z" fill="#083B5A"/>
<path d="M31.05 66.9499C31.05 64.2799 32.19 61.7199 34.17 59.9299C36.18 58.1099 38.78 57.2699 41.48 57.5499C42.06 57.6099 42.57 57.1799 42.62 56.6099C42.79 54.5099 43.74 52.5699 45.28 51.1299C48.01 48.5899 51.99 48.2299 55.08 49.9599C55.73 50.3199 56.54 49.8999 56.61 49.1499C57.34 41.3199 63.93 35.2199 71.92 35.2199C75.34 35.2199 78.58 36.3199 81.29 38.3999C81.74 38.7499 82.39 38.6599 82.74 38.2099C83.09 37.7599 83 37.1099 82.55 36.7599C79.48 34.3999 75.8 33.1499 71.92 33.1499C63.45 33.1499 56.22 39.2399 54.75 47.5199C51.07 46.1099 46.85 46.8499 43.88 49.6099C42.2 51.1699 41.09 53.1999 40.69 55.4299C37.78 55.3799 34.95 56.4399 32.78 58.3899C30.36 60.5699 28.97 63.6899 28.97 66.9499C28.97 69.0799 29.56 71.1599 30.67 72.9699C30.97 73.4599 31.6 73.6099 32.09 73.3099C32.58 73.0099 32.73 72.3699 32.43 71.8899C31.52 70.4099 31.04 68.6999 31.04 66.9499H31.05Z" fill="#083B5A"/>
<path d="M89.2599 52.58C89.3399 51.92 89.3699 51.25 89.3699 50.59C89.3699 46.66 88.0899 42.95 85.6699 39.85C85.3199 39.4 84.6699 39.32 84.2199 39.67C83.7699 40.02 83.6899 40.67 84.0399 41.12C86.1699 43.84 87.2999 47.12 87.2999 50.58C87.2999 51.47 87.2199 52.36 87.0699 53.24C86.9699 53.82 87.3699 54.36 87.9499 54.44C93.3799 55.18 97.4699 59.88 97.4699 65.37C97.4699 71.45 92.5199 76.4 86.4399 76.4H53.9599V74.21C53.9599 72.01 52.1699 70.22 49.9699 70.22H44.6999C42.4999 70.22 40.7099 72.01 40.7099 74.21V76.4H40.5099C38.5099 76.4 36.5999 75.78 34.9899 74.62C34.5299 74.29 33.8799 74.39 33.5499 74.85C33.2199 75.31 33.3199 75.96 33.7799 76.29C35.7499 77.71 38.0799 78.46 40.5099 78.46H40.7099V84.08H39.1299C36.8399 84.08 35.7199 86.89 37.3899 88.46L43.1499 93.89C45.4899 96.1 49.1699 96.1 51.5099 93.89L57.2699 88.46C58.9399 86.89 57.8199 84.08 55.5299 84.08H53.9499V78.46H86.4299C93.6499 78.46 99.5299 72.59 99.5299 65.36C99.5299 59.2 95.1799 53.87 89.2499 52.57L89.2599 52.58ZM55.5399 86.15C55.9599 86.15 56.1799 86.67 55.8599 86.96L50.0999 92.39C48.5499 93.85 46.1199 93.85 44.5699 92.39L38.8099 86.96C38.4999 86.66 38.7099 86.15 39.1299 86.15H41.7399C42.3099 86.15 42.7699 85.69 42.7699 85.12V74.21C42.7699 73.15 43.6299 72.29 44.6899 72.29H49.9599C51.0199 72.29 51.8799 73.15 51.8799 74.21V85.12C51.8799 85.69 52.3399 86.15 52.9099 86.15H55.5199H55.5399Z" fill="#083B5A"/>
<path d="M64.9 123.1C97.0429 123.1 123.1 97.0432 123.1 64.9002C123.1 32.7572 97.0429 6.7002 64.9 6.7002C32.757 6.7002 6.69995 32.7572 6.69995 64.9002C6.69995 97.0432 32.757 123.1 64.9 123.1Z" stroke="#083B5A" stroke-width="3" stroke-miterlimit="10" stroke-linecap="round"/>
<path d="M24.37 26.88C27.2419 26.88 29.57 24.5519 29.57 21.68C29.57 18.8081 27.2419 16.48 24.37 16.48C21.4982 16.48 19.17 18.8081 19.17 21.68C19.17 24.5519 21.4982 26.88 24.37 26.88Z" fill="#F9D97D" stroke="#083B5A" stroke-width="3" stroke-miterlimit="10" stroke-linecap="round"/>
<path d="M6.7 70.1002C9.57188 70.1002 11.9 67.7721 11.9 64.9002C11.9 62.0283 9.57188 59.7002 6.7 59.7002C3.82812 59.7002 1.5 62.0283 1.5 64.9002C1.5 67.7721 3.82812 70.1002 6.7 70.1002Z" fill="#F9D97D" stroke="#083B5A" stroke-width="3" stroke-miterlimit="10" stroke-linecap="round"/>
<path d="M24.37 113.94C27.2419 113.94 29.57 111.612 29.57 108.74C29.57 105.868 27.2419 103.54 24.37 103.54C21.4982 103.54 19.17 105.868 19.17 108.74C19.17 111.612 21.4982 113.94 24.37 113.94Z" fill="#F9D97D" stroke="#083B5A" stroke-width="3" stroke-miterlimit="10" stroke-linecap="round"/>
<path d="M105.09 26.7101C107.962 26.7101 110.29 24.3819 110.29 21.5101C110.29 18.6382 107.962 16.3101 105.09 16.3101C102.218 16.3101 99.89 18.6382 99.89 21.5101C99.89 24.3819 102.218 26.7101 105.09 26.7101Z" fill="#F9D97D" stroke="#083B5A" stroke-width="3" stroke-miterlimit="10" stroke-linecap="round"/>
<path d="M122.77 70.1002C125.642 70.1002 127.97 67.7721 127.97 64.9002C127.97 62.0283 125.642 59.7002 122.77 59.7002C119.898 59.7002 117.57 62.0283 117.57 64.9002C117.57 67.7721 119.898 70.1002 122.77 70.1002Z" fill="#F9D97D" stroke="#083B5A" stroke-width="3" stroke-miterlimit="10" stroke-linecap="round"/>
<path d="M105.09 113.94C107.962 113.94 110.29 111.612 110.29 108.74C110.29 105.868 107.962 103.54 105.09 103.54C102.218 103.54 99.89 105.868 99.89 108.74C99.89 111.612 102.218 113.94 105.09 113.94Z" fill="#F9D97D" stroke="#083B5A" stroke-width="3" stroke-miterlimit="10" stroke-linecap="round"/>
<path d="M63.23 11.9C66.1019 11.9 68.43 9.57188 68.43 6.7C68.43 3.82812 66.1019 1.5 63.23 1.5C60.3581 1.5 58.03 3.82812 58.03 6.7C58.03 9.57188 60.3581 11.9 63.23 11.9Z" fill="#F9D97D" stroke="#083B5A" stroke-width="3" stroke-miterlimit="10" stroke-linecap="round"/>
<path d="M63.23 128.29C66.1019 128.29 68.43 125.962 68.43 123.09C68.43 120.218 66.1019 117.89 63.23 117.89C60.3581 117.89 58.03 120.218 58.03 123.09C58.03 125.962 60.3581 128.29 63.23 128.29Z" fill="#F9D97D" stroke="#083B5A" stroke-width="3" stroke-miterlimit="10" stroke-linecap="round"/>
</g>
</g>
<defs>
<clipPath id="clip0_194_2603">
<rect width="1920" height="6917" fill="white" transform="translate(-983 -2262)"/>
</clipPath>
<clipPath id="clip1_194_2603">
<rect width="129.47" height="129.79" fill="white"/>
</clipPath>
</defs>
</svg>
