<svg width="104" height="134" viewBox="0 0 104 134" fill="none" xmlns="http://www.w3.org/2000/svg">
<rect width="104" height="134" fill="#1E1E1E"/>
<g clip-path="url(#clip0_194_2603)">
<rect width="1920" height="6917" transform="translate(-1001 -2033)" fill="white"/>
<g clip-path="url(#clip1_194_2603)">
<path d="M87.1401 27.1998C94.5738 27.1998 100.6 21.1735 100.6 13.7398C100.6 6.30603 94.5738 0.279785 87.1401 0.279785C79.7063 0.279785 73.6801 6.30603 73.6801 13.7398C73.6801 21.1735 79.7063 27.1998 87.1401 27.1998Z" fill="#F9D97D"/>
<path d="M13.73 132.94C21.1638 132.94 27.19 126.914 27.19 119.48C27.19 112.046 21.1638 106.02 13.73 106.02C6.29627 106.02 0.27002 112.046 0.27002 119.48C0.27002 126.914 6.29627 132.94 13.73 132.94Z" fill="#F9D97D"/>
<path d="M26.54 34.29L49.07 56.82" stroke="#083B5A" stroke-width="3" stroke-miterlimit="10" stroke-linecap="round"/>
<path d="M26.54 56.82L49.07 34.29" stroke="#083B5A" stroke-width="3" stroke-miterlimit="10" stroke-linecap="round"/>
<path d="M75.87 86.4399L98.4 108.98" stroke="#083B5A" stroke-width="3" stroke-miterlimit="10" stroke-linecap="round"/>
<path d="M75.87 108.98L98.4 86.4399" stroke="#083B5A" stroke-width="3" stroke-miterlimit="10" stroke-linecap="round"/>
<path d="M37.67 103.35L60.2 125.88" stroke="#083B5A" stroke-width="3" stroke-miterlimit="10" stroke-linecap="round"/>
<path d="M37.67 125.88L60.2 103.35" stroke="#083B5A" stroke-width="3" stroke-miterlimit="10" stroke-linecap="round"/>
<path d="M13.74 100.42C15.5184 100.42 16.96 98.9783 16.96 97.2C16.96 95.4216 15.5184 93.98 13.74 93.98C11.9617 93.98 10.52 95.4216 10.52 97.2C10.52 98.9783 11.9617 100.42 13.74 100.42Z" fill="#083B5A"/>
<path d="M17.33 88.3799C19.1083 88.3799 20.55 86.9383 20.55 85.1599C20.55 83.3816 19.1083 81.9399 17.33 81.9399C15.5516 81.9399 14.11 83.3816 14.11 85.1599C14.11 86.9383 15.5516 88.3799 17.33 88.3799Z" fill="#083B5A"/>
<path d="M26.94 80.2198C28.7183 80.2198 30.16 78.7781 30.16 76.9998C30.16 75.2214 28.7183 73.7798 26.94 73.7798C25.1616 73.7798 23.72 75.2214 23.72 76.9998C23.72 78.7781 25.1616 80.2198 26.94 80.2198Z" fill="#083B5A"/>
<path d="M39.4099 78.3399C41.1883 78.3399 42.6299 76.8983 42.6299 75.1199C42.6299 73.3415 41.1883 71.8999 39.4099 71.8999C37.6316 71.8999 36.1899 73.3415 36.1899 75.1199C36.1899 76.8983 37.6316 78.3399 39.4099 78.3399Z" fill="#083B5A"/>
<path d="M52.1599 78.3399C53.9383 78.3399 55.3799 76.8983 55.3799 75.1199C55.3799 73.3415 53.9383 71.8999 52.1599 71.8999C50.3816 71.8999 48.9399 73.3415 48.9399 75.1199C48.9399 76.8983 50.3816 78.3399 52.1599 78.3399Z" fill="#083B5A"/>
<path d="M13.74 131.78C20.5 131.78 25.98 126.3 25.98 119.54C25.98 112.78 20.5 107.3 13.74 107.3C6.98003 107.3 1.5 112.78 1.5 119.54C1.5 126.3 6.98003 131.78 13.74 131.78Z" stroke="#083B5A" stroke-width="3" stroke-miterlimit="10" stroke-linecap="round"/>
<path d="M87.14 25.98C93.9 25.98 99.38 20.5 99.38 13.74C99.38 6.98003 93.9 1.5 87.14 1.5C80.3801 1.5 74.9 6.98003 74.9 13.74C74.9 20.5 80.3801 25.98 87.14 25.98Z" stroke="#083B5A" stroke-width="3" stroke-miterlimit="10" stroke-linecap="round"/>
<path d="M72.02 51.2101L87.14 36.8101L101.69 51.2101" stroke="#083B5A" stroke-width="3" stroke-miterlimit="10" stroke-linecap="round"/>
<path d="M87.14 36.8101C87.14 36.8101 92.53 76.3501 61.78 75.9601" stroke="#083B5A" stroke-width="3" stroke-miterlimit="10" stroke-linecap="round"/>
</g>
</g>
<defs>
<clipPath id="clip0_194_2603">
<rect width="1920" height="6917" fill="white" transform="translate(-1001 -2033)"/>
</clipPath>
<clipPath id="clip1_194_2603">
<rect width="103.19" height="133.28" fill="white"/>
</clipPath>
</defs>
</svg>
