<svg width="125" height="100" viewBox="0 0 125 100" fill="none" xmlns="http://www.w3.org/2000/svg">
<rect width="125" height="100" fill="#1E1E1E"/>
<g clip-path="url(#clip0_194_2603)">
<rect width="1920" height="6917" transform="translate(-127 -3236)" fill="white"/>
<g clip-path="url(#clip1_194_2603)">
<path d="M30.6182 14.6555H123.728" stroke="#083B5A" stroke-width="3" stroke-miterlimit="10" stroke-linecap="round"/>
<path d="M39.1929 20.0715H7.30255C3.97209 20.0715 1.27222 22.7823 1.27222 26.1262V92.668C1.27222 96.0119 3.97209 98.7226 7.30255 98.7226H39.1929C42.5234 98.7226 45.2232 96.0119 45.2232 92.668V26.1262C45.2232 22.7823 42.5234 20.0715 39.1929 20.0715Z" stroke="#083B5A" stroke-width="3" stroke-miterlimit="10" stroke-linecap="round"/>
<path d="M39.1929 20.0715H7.30255C3.97209 20.0715 1.27222 22.7823 1.27222 26.1262V92.668C1.27222 96.0119 3.97209 98.7226 7.30255 98.7226H39.1929C42.5234 98.7226 45.2232 96.0119 45.2232 92.668V26.1262C45.2232 22.7823 42.5234 20.0715 39.1929 20.0715Z" stroke="#083B5A" stroke-width="3" stroke-miterlimit="10" stroke-linecap="round"/>
<path d="M23.9687 73.2777C31.5149 73.2777 37.6323 67.1356 37.6323 59.5589C37.6323 51.9822 31.5149 45.8401 23.9687 45.8401C16.4224 45.8401 10.305 51.9822 10.305 59.5589C10.305 67.1356 16.4224 73.2777 23.9687 73.2777Z" fill="#F9D97D" stroke="#083B5A" stroke-width="3" stroke-miterlimit="10" stroke-linecap="round"/>
<path d="M15.3514 57.6599L18.7101 64.2851C18.8967 64.6428 19.3462 64.7705 19.6855 64.5576L33.1032 56.0845" stroke="#083B5A" stroke-width="3" stroke-miterlimit="10" stroke-linecap="round"/>
<path d="M16.0045 89.7214H31.4154" stroke="#083B5A" stroke-width="3" stroke-miterlimit="10" stroke-linecap="round"/>
<path d="M31.3899 26.5776H14.902C13.8587 26.5776 12.8664 26.1263 12.1794 25.3343L8.82074 21.4512H37.6578L34.2312 25.3003C33.5103 26.1178 32.4671 26.5776 31.3815 26.5776H31.3899Z" fill="#F9D97D" stroke="#083B5A" stroke-width="3" stroke-miterlimit="10" stroke-linecap="round"/>
<path d="M45.2233 82.3043H117.579C120.971 82.3043 123.728 79.5367 123.728 76.1219V7.45123C123.728 4.04495 120.971 1.27734 117.579 1.27734H35.9276C32.5265 1.27734 29.77 4.04495 29.77 7.45123V20.0715" stroke="#083B5A" stroke-width="3" stroke-miterlimit="10" stroke-linecap="round"/>
<path d="M77.5292 27.3523L80.6673 31.261L85.5696 30.0858L90.1242 30.3498L95.3996 32.9471L99.0382 37.5711L100.039 40.5261L103.644 41.5139L105.433 40.5261L104.229 35.9957L102.108 32.0274C102.108 32.0274 99.8015 28.8681 95.5014 26.6199C91.2013 24.3718 88.2667 24.6358 88.2667 24.6358H84.9165L82.3466 25.2063L77.5292 27.3438V27.3523Z" fill="#F9D97D"/>
<path d="M68.4625 59.2607L58.5222 69.2497V70.9102L59.4128 71.9917L60.4984 72.1961L64.4932 69.3348L70.3115 63.0162L70.6592 61.6196L68.4625 59.2607Z" fill="#F9D97D"/>
<path d="M75.5446 44.801C74.9933 44.801 74.4589 44.8436 73.9331 44.9373C72.0163 45.2438 70.2776 46.1039 68.8951 47.3472C66.8341 49.1866 65.528 51.8691 65.528 54.8581C65.528 60.4103 70.0147 64.9151 75.5446 64.9151C78.5131 64.9151 81.1848 63.6122 83.0168 61.5514C84.255 60.1549 85.1117 58.4176 85.4255 56.4931C85.5103 55.9651 85.5612 55.4201 85.5612 54.8581C85.5612 49.3058 81.0745 44.801 75.5446 44.801ZM75.5446 60.802C72.2792 60.802 69.6245 58.1451 69.6245 54.8581C69.6245 51.571 72.2707 48.9141 75.5446 48.9141C78.8184 48.9141 81.4646 51.571 81.4646 54.8581C81.4646 58.1451 78.8184 60.802 75.5446 60.802Z" fill="#F9D97D"/>
<path d="M75.5531 65.3153C72.7711 65.3153 70.1589 64.2253 68.1911 62.2496C66.2234 60.274 65.1378 57.6512 65.1378 54.858C65.1378 52.0648 66.2234 49.442 68.1911 47.4579C68.3099 47.3386 68.4286 47.2194 68.5559 47.1087C70.0486 45.7462 71.8891 44.8606 73.8737 44.537C77.173 43.992 80.5571 45.0905 82.915 47.4579C85.2898 49.8423 86.3754 53.24 85.8241 56.5611C85.4679 58.7241 84.4671 60.6913 82.915 62.2496C80.9473 64.2253 78.335 65.3153 75.5531 65.3153ZM75.5531 45.5759C75.0611 45.5759 74.5607 45.6185 74.0688 45.6951C72.3047 45.9761 70.6762 46.7681 69.3531 47.9773C69.2428 48.0795 69.1326 48.1817 69.0308 48.2839C67.2836 50.0381 66.3252 52.3714 66.3252 54.8495C66.3252 57.3276 67.2836 59.6609 69.0308 61.4066C70.778 63.1608 73.0934 64.1316 75.5615 64.1316C78.0297 64.1316 80.3536 63.1693 82.0923 61.4151C83.4663 60.0356 84.3653 58.2898 84.6791 56.3653C85.1626 53.4189 84.2042 50.3958 82.0923 48.2839C80.3536 46.5382 77.9788 45.5674 75.5531 45.5674V45.5759ZM75.5531 61.381C71.9654 61.381 69.0478 58.4516 69.0478 54.8495C69.0478 51.2473 71.9654 48.3179 75.5531 48.3179C79.1407 48.3179 82.0584 51.2473 82.0584 54.8495C82.0584 58.4516 79.1407 61.381 75.5531 61.381ZM75.5531 49.5016C72.61 49.5016 70.2182 51.9031 70.2182 54.858C70.2182 57.813 72.61 60.2059 75.5531 60.2059C78.4961 60.2059 80.8794 57.8044 80.8794 54.858C80.8794 51.9116 78.4877 49.5016 75.5531 49.5016Z" fill="#083B5A"/>
<path d="M60.2694 72.7836C59.5824 72.7836 58.9378 72.5111 58.4459 72.0257C57.4451 71.0209 57.4451 69.3773 58.4459 68.364L66.7747 60.0015C67.0037 59.7716 67.3769 59.7716 67.6059 60.0015C67.8349 60.2315 67.8349 60.6062 67.6059 60.8361L59.2771 69.1985C59.0142 69.4625 58.87 69.8202 58.87 70.1949C58.87 70.5695 59.0142 70.9272 59.2771 71.1912C59.8114 71.7277 60.7359 71.7277 61.2618 71.1912L69.5906 62.8288C69.8196 62.5988 70.1928 62.5988 70.4218 62.8288C70.6508 63.0587 70.6508 63.4334 70.4218 63.6633L62.093 72.0257C61.6095 72.5111 60.9564 72.7836 60.2694 72.7836Z" fill="#083B5A"/>
<path d="M87.0793 62.5819C85.5951 62.5819 84.1193 62.4116 82.6859 62.071C82.3721 61.9944 82.1771 61.6793 82.2449 61.3642C82.3128 61.0491 82.6351 60.8533 82.9489 60.9214C84.2974 61.2365 85.6799 61.3983 87.0793 61.3983C95.917 61.3983 103.389 55.0626 104.857 46.334C104.882 46.1807 104.814 46.07 104.772 46.0189C104.729 45.9678 104.636 45.8826 104.483 45.8826H100.98C100.802 45.8826 100.641 46.0104 100.607 46.1892C99.2587 52.5589 93.5762 57.1745 87.0793 57.1745C86.4348 57.1745 85.7902 57.1319 85.1625 57.0382C84.8402 56.9956 84.6197 56.6976 84.6621 56.374C84.7045 56.0504 85.0099 55.829 85.3237 55.8716C85.9004 55.9482 86.4856 55.9908 87.0793 55.9908C93.0249 55.9908 98.224 51.7585 99.4538 45.9337C99.6065 45.2184 100.243 44.6904 100.972 44.6904H104.475C104.933 44.6904 105.365 44.8948 105.662 45.244C105.959 45.5931 106.086 46.0615 106.01 46.5213C104.449 55.8205 96.4853 62.5649 87.0709 62.5649L87.0793 62.5819Z" fill="#083B5A"/>
<path d="M68.9374 48.1391C68.6745 48.1391 68.4286 47.9518 68.3692 47.6878C68.0384 46.2572 67.8688 44.784 67.8688 43.3022C67.8688 38.5845 69.582 34.0456 72.6947 30.5201C72.9746 30.2051 73.3817 30.0092 73.8058 30.0007C74.2299 29.9836 74.654 30.154 74.9593 30.4605L77.3935 32.9045C77.9617 33.4751 78.0041 34.4118 77.4783 35.0249C75.5106 37.3242 74.425 40.2706 74.425 43.3107C74.425 43.8983 74.4674 44.4859 74.5437 45.0565C74.5861 45.3801 74.3656 45.6781 74.0433 45.7207C73.721 45.7633 73.4241 45.5418 73.3817 45.2183C73.2969 44.5966 73.2545 43.9579 73.2545 43.3107C73.2545 39.9896 74.4419 36.7792 76.5962 34.2585C76.7234 34.1053 76.715 33.8838 76.5708 33.7391L74.1366 31.2951C74.0603 31.2184 73.95 31.1673 73.8482 31.1844C73.7888 31.1844 73.6701 31.2014 73.5768 31.3121C70.6507 34.6247 69.0477 38.8911 69.0477 43.3192C69.0477 44.7073 69.2088 46.0954 69.5142 47.4323C69.5905 47.7474 69.3954 48.0625 69.0731 48.1391C69.0307 48.1477 68.9798 48.1562 68.9374 48.1562V48.1391Z" fill="#083B5A"/>
<path d="M104.483 41.8887H100.981C100.251 41.8887 99.6065 41.3692 99.4623 40.6454C98.2325 34.8206 93.0249 30.5883 87.0878 30.5883C85.2134 30.5883 83.4069 30.9886 81.7276 31.7805C81.1338 32.0615 80.4299 31.9338 79.9634 31.474L77.4105 28.9107C77.0627 28.5616 76.9016 28.0762 76.9694 27.5908C77.0373 27.1054 77.3172 26.6881 77.7497 26.4497C80.591 24.8572 83.8225 24.0227 87.0878 24.0227C90.3532 24.0227 93.2878 24.7891 96.0188 26.2283C96.3072 26.3816 96.4175 26.7392 96.2648 27.0202C96.1121 27.3098 95.7559 27.4205 95.476 27.2672C92.9061 25.9132 90.014 25.1979 87.0878 25.1979C84.0176 25.1979 80.9812 25.9898 78.318 27.4801C78.1738 27.5567 78.1399 27.6845 78.1314 27.7611C78.1144 27.8803 78.1568 27.9995 78.2417 28.0932L80.7946 30.6564C80.9048 30.7671 81.083 30.8012 81.2271 30.7331C83.0676 29.8645 85.0353 29.4302 87.0878 29.4302C93.5762 29.4302 99.2672 34.0542 100.616 40.4154C100.65 40.5943 100.811 40.722 100.989 40.722H104.492C104.644 40.722 104.738 40.6369 104.789 40.5858C104.831 40.5347 104.899 40.424 104.874 40.2707C104.424 37.6138 103.364 35.042 101.803 32.8365C101.617 32.5725 101.676 32.2063 101.939 32.019C102.202 31.8316 102.567 31.8912 102.753 32.1552C104.416 34.5055 105.544 37.2391 106.027 40.0748C106.103 40.5347 105.976 40.9945 105.679 41.3522C105.382 41.7013 104.95 41.9057 104.492 41.9057L104.483 41.8887Z" fill="#083B5A"/>
<path d="M103.338 71.4978H95.1877C94.0766 71.4978 93.1097 70.7824 92.7789 69.7265L90.4041 62.1731C90.3108 61.8665 90.4805 61.5344 90.7858 61.4322C91.0996 61.3385 91.4219 61.5088 91.5237 61.8154L93.8985 69.3688C94.0766 69.9394 94.594 70.3226 95.1877 70.3226H103.338C103.661 70.3226 103.924 70.5866 103.924 70.9102C103.924 71.2338 103.661 71.4978 103.338 71.4978Z" fill="#083B5A"/>
<path d="M103.338 67.5721H96.9434C96.6211 67.5721 96.3582 67.3082 96.3582 66.9846C96.3582 66.661 96.6211 66.397 96.9434 66.397H103.338C103.661 66.397 103.924 66.661 103.924 66.9846C103.924 67.3082 103.661 67.5721 103.338 67.5721Z" fill="#083B5A"/>
<path d="M68.929 38.3292H57.8522C57.5299 38.3292 57.267 38.0652 57.267 37.7416C57.267 37.418 57.5299 37.1541 57.8522 37.1541H68.929C69.2513 37.1541 69.5142 37.418 69.5142 37.7416C69.5142 38.0652 69.2513 38.3292 68.929 38.3292Z" fill="#083B5A"/>
<path d="M64.1454 34.3949H57.8522C57.5299 34.3949 57.267 34.1309 57.267 33.8073C57.267 33.4837 57.5299 33.2197 57.8522 33.2197H64.1454C64.4677 33.2197 64.7307 33.4837 64.7307 33.8073C64.7307 34.1309 64.4677 34.3949 64.1454 34.3949Z" fill="#083B5A"/>
<path d="M99.3521 29.8218C99.1994 29.8218 99.0467 29.7622 98.9365 29.6515C98.8262 29.5408 98.7668 29.396 98.7668 29.2342C98.7668 29.1916 98.7668 29.1576 98.7753 29.1235C98.7753 29.0809 98.7923 29.0469 98.8093 29.0128C98.8262 28.9787 98.8432 28.9447 98.8601 28.9106C98.8856 28.8766 98.911 28.851 98.9365 28.8169C99.0722 28.6807 99.2757 28.6211 99.4623 28.6551C99.5047 28.6551 99.5387 28.6722 99.5726 28.6892C99.6065 28.6977 99.6404 28.7233 99.6744 28.7403C99.7083 28.7573 99.7337 28.7829 99.7677 28.8084C99.7931 28.834 99.8186 28.868 99.8355 28.9021C99.861 28.9362 99.8779 28.9702 99.8864 29.0043C99.9034 29.0384 99.9118 29.0724 99.9203 29.115C99.9203 29.1491 99.9288 29.1916 99.9288 29.2257C99.9288 29.379 99.8694 29.5323 99.7592 29.643C99.6489 29.7537 99.5047 29.8133 99.3436 29.8133L99.3521 29.8218Z" fill="#083B5A"/>
<path d="M62.0929 83.1816V89.7216H90.3701V82.3044H62.0929" fill="#083B5A"/>
<path d="M96.7991 89.6448H54.909C53.4569 89.6448 52.2798 90.8267 52.2798 92.2847V92.8722C52.2798 94.3302 53.4569 95.5121 54.909 95.5121H96.7991C98.2512 95.5121 99.4283 94.3302 99.4283 92.8722V92.2847C99.4283 90.8267 98.2512 89.6448 96.7991 89.6448Z" fill="#083B5A"/>
<path d="M96.2732 10.3807C97.5988 10.3807 98.6734 9.30171 98.6734 7.97074C98.6734 6.63976 97.5988 5.56079 96.2732 5.56079C94.9476 5.56079 93.8729 6.63976 93.8729 7.97074C93.8729 9.30171 94.9476 10.3807 96.2732 10.3807Z" stroke="#083B5A" stroke-width="2" stroke-miterlimit="10" stroke-linecap="round"/>
<path d="M105.518 10.3807C106.844 10.3807 107.918 9.30171 107.918 7.97074C107.918 6.63976 106.844 5.56079 105.518 5.56079C104.192 5.56079 103.118 6.63976 103.118 7.97074C103.118 9.30171 104.192 10.3807 105.518 10.3807Z" stroke="#083B5A" stroke-width="2" stroke-miterlimit="10" stroke-linecap="round"/>
<path d="M114.593 10.3807C115.919 10.3807 116.993 9.30171 116.993 7.97074C116.993 6.63976 115.919 5.56079 114.593 5.56079C113.268 5.56079 112.193 6.63976 112.193 7.97074C112.193 9.30171 113.268 10.3807 114.593 10.3807Z" stroke="#083B5A" stroke-width="2" stroke-miterlimit="10" stroke-linecap="round"/>
</g>
</g>
<defs>
<clipPath id="clip0_194_2603">
<rect width="1920" height="6917" fill="white" transform="translate(-127 -3236)"/>
</clipPath>
<clipPath id="clip1_194_2603">
<rect width="125" height="100" fill="white"/>
</clipPath>
</defs>
</svg>
