<svg width="128" height="128" viewBox="0 0 128 128" fill="none" xmlns="http://www.w3.org/2000/svg">
<rect width="128" height="128" fill="#1E1E1E"/>
<g clip-path="url(#clip0_194_2603)">
<rect width="1920" height="6917" transform="translate(-1000 -3763)" fill="white"/>
<g clip-path="url(#clip1_194_2603)">
<path d="M38.3524 46.1808L46.4847 57.5943L53.9688 61.0579L67.499 67.4179L78.9024 75.0337L80.8975 80.4924L80.3101 90.3362L73.1298 99.1166L60.3896 100.22L52.6928 100.089L44.2263 95.8657L38.8284 95.2074L35.2635 97.4355L34.6761 103.512L37.8561 107.492L46.2923 110.773C46.2923 110.773 50.09 112.748 58.6173 113.022C67.1445 113.295 75.368 111.33 75.368 111.33L84.4421 106.469L88.4019 100.2L93.1415 92.9187L93.9213 82.7103L92.1288 72.8968L84.9586 62.8403L74.892 57.0981L53.8878 47.6898L48.9254 38.0282L51.204 31.3644L57.0172 27.1109L61.5947 25.8146L68.3902 25.7235L75.8946 28.5389L79.743 31.3644L85.3434 30.3821L88.1892 25.1766L86.498 20.0623L78.315 15.2416L66.0103 13.125L55.7816 13.6415C55.7816 13.6415 45.32 18.5938 41.1374 25.3589C36.9548 32.124 38.3929 46.1909 38.3929 46.1909L38.3524 46.1808Z" fill="#F9D97D"/>
<path d="M109.437 11.5857C112.211 11.5857 114.46 9.33217 114.46 6.55235C114.46 3.77253 112.211 1.51904 109.437 1.51904C106.662 1.51904 104.413 3.77253 104.413 6.55235C104.413 9.33217 106.662 11.5857 109.437 11.5857Z" stroke="#083B5A" stroke-width="3" stroke-miterlimit="10"/>
<path d="M79.1252 16.3962H97.9926C99.0154 16.3962 100.008 15.9911 100.727 15.2619L105.497 10.4919" stroke="#083B5A" stroke-width="3" stroke-miterlimit="10"/>
<path d="M109.437 46.4238C112.211 46.4238 114.46 44.1703 114.46 41.3905C114.46 38.6107 112.211 36.3572 109.437 36.3572C106.662 36.3572 104.413 38.6107 104.413 41.3905C104.413 44.1703 106.662 46.4238 109.437 46.4238Z" stroke="#083B5A" stroke-width="3" stroke-miterlimit="10"/>
<path d="M81.7078 31.5974H97.9926C99.0155 31.5974 100.008 31.9519 100.727 32.681L105.497 37.451" stroke="#083B5A" stroke-width="3" stroke-miterlimit="10"/>
<path d="M121.458 29.0251C124.232 29.0251 126.481 26.7716 126.481 23.9918C126.481 21.212 124.232 18.9585 121.458 18.9585C118.684 18.9585 116.435 21.212 116.435 23.9918C116.435 26.7716 118.684 29.0251 121.458 29.0251Z" stroke="#083B5A" stroke-width="3" stroke-miterlimit="10"/>
<path d="M116.435 23.9917H88.0171" stroke="#083B5A" stroke-width="3" stroke-miterlimit="10"/>
<path d="M111.948 73.1401C114.722 73.1401 116.971 70.8866 116.971 68.1068C116.971 65.327 114.722 63.0735 111.948 63.0735C109.174 63.0735 106.925 65.327 106.925 68.1068C106.925 70.8866 109.174 73.1401 111.948 73.1401Z" stroke="#083B5A" stroke-width="3" stroke-miterlimit="10"/>
<path d="M93.2935 77.9507H100.504C101.527 77.9507 102.52 77.5456 103.239 76.8164L108.009 72.0464" stroke="#083B5A" stroke-width="3" stroke-miterlimit="10"/>
<path d="M111.948 107.988C114.722 107.988 116.971 105.735 116.971 102.955C116.971 100.175 114.722 97.9219 111.948 97.9219C109.174 97.9219 106.925 100.175 106.925 102.955C106.925 105.735 109.174 107.988 111.948 107.988Z" stroke="#083B5A" stroke-width="3" stroke-miterlimit="10"/>
<path d="M92.5238 93.1519H100.504C101.527 93.1519 102.52 93.5063 103.239 94.2355L108.009 99.0055" stroke="#083B5A" stroke-width="3" stroke-miterlimit="10"/>
<path d="M121.458 90.5896C124.232 90.5896 126.481 88.3361 126.481 85.5563C126.481 82.7764 124.232 80.5229 121.458 80.5229C118.684 80.5229 116.435 82.7764 116.435 85.5563C116.435 88.3361 118.684 90.5896 121.458 90.5896Z" stroke="#083B5A" stroke-width="3" stroke-miterlimit="10"/>
<path d="M116.435 85.5562H93.9113" stroke="#083B5A" stroke-width="3" stroke-miterlimit="10"/>
<path d="M18.5737 125.185C21.3479 125.185 23.5969 122.931 23.5969 120.151C23.5969 117.372 21.3479 115.118 18.5737 115.118C15.7995 115.118 13.5505 117.372 13.5505 120.151C13.5505 122.931 15.7995 125.185 18.5737 125.185Z" stroke="#083B5A" stroke-width="3" stroke-miterlimit="10"/>
<path d="M43.7403 110.308H30.0177C28.9948 110.308 28.0023 110.713 27.2833 111.442L22.5133 116.212" stroke="#083B5A" stroke-width="3" stroke-miterlimit="10"/>
<path d="M18.5737 90.3364C21.3479 90.3364 23.5969 88.0829 23.5969 85.3031C23.5969 82.5233 21.3479 80.2698 18.5737 80.2698C15.7995 80.2698 13.5505 82.5233 13.5505 85.3031C13.5505 88.0829 15.7995 90.3364 18.5737 90.3364Z" stroke="#083B5A" stroke-width="3" stroke-miterlimit="10"/>
<path d="M40.3578 95.0963H30.0076C28.9847 95.0963 27.9922 94.7418 27.2732 94.0127L22.5032 89.2427" stroke="#083B5A" stroke-width="3" stroke-miterlimit="10"/>
<path d="M6.54235 107.735C9.31657 107.735 11.5655 105.482 11.5655 102.702C11.5655 99.9222 9.31657 97.6687 6.54235 97.6687C3.76812 97.6687 1.51917 99.9222 1.51917 102.702C1.51917 105.482 3.76812 107.735 6.54235 107.735Z" stroke="#083B5A" stroke-width="3" stroke-miterlimit="10"/>
<path d="M11.5656 102.702H34.342" stroke="#083B5A" stroke-width="3" stroke-miterlimit="10"/>
<path d="M16.052 63.6203C18.8262 63.6203 21.0752 61.3668 21.0752 58.587C21.0752 55.8072 18.8262 53.5537 16.052 53.5537C13.2778 53.5537 11.0288 55.8072 11.0288 58.587C11.0288 61.3668 13.2778 63.6203 16.052 63.6203Z" stroke="#083B5A" stroke-width="3" stroke-miterlimit="10"/>
<path d="M38.5956 48.7432H27.496C26.4731 48.7432 25.4806 49.1483 24.7616 49.8774L19.9916 54.6474" stroke="#083B5A" stroke-width="3" stroke-miterlimit="10"/>
<path d="M16.052 28.7822C18.8262 28.7822 21.0752 26.5287 21.0752 23.7489C21.0752 20.9691 18.8262 18.7156 16.052 18.7156C13.2778 18.7156 11.0288 20.9691 11.0288 23.7489C11.0288 26.5287 13.2778 28.7822 16.052 28.7822Z" stroke="#083B5A" stroke-width="3" stroke-miterlimit="10"/>
<path d="M37.3195 33.5421H27.496C26.4731 33.5421 25.4806 33.1876 24.7616 32.4585L19.9916 27.6885" stroke="#083B5A" stroke-width="3" stroke-miterlimit="10"/>
<path d="M6.54235 46.1709C9.31657 46.1709 11.5655 43.9174 11.5655 41.1376C11.5655 38.3577 9.31657 36.1042 6.54235 36.1042C3.76812 36.1042 1.51917 38.3577 1.51917 41.1376C1.51917 43.9174 3.76812 46.1709 6.54235 46.1709Z" stroke="#083B5A" stroke-width="3" stroke-miterlimit="10"/>
<path d="M36.9042 41.1375H27.3541" stroke="#083B5A" stroke-width="3" stroke-miterlimit="10"/>
<path d="M18.5534 41.1375H11.5656" stroke="#083B5A" stroke-width="3" stroke-miterlimit="10"/>
<path d="M52.8549 15.5761C53.4727 15.333 54.1006 15.1203 54.7386 14.9178C71.6007 9.83384 83.2472 18.6042 85.5056 20.498C86.9741 21.6322 87.9159 23.4045 87.9159 25.3996C87.9159 28.8227 85.1511 31.5976 81.7281 31.5976C80.0571 31.5976 78.5481 30.9393 77.4341 29.8557C76.3505 28.9645 69.1296 23.4957 58.3136 26.7567C53.9588 28.0733 50.7484 31.628 49.7256 36.2764C48.7938 40.5299 49.9079 44.6923 52.6524 47.1229C55.5589 49.7053 60.2175 51.5485 66.6586 54.0905C69.3727 55.164 72.4615 56.3793 75.7934 57.8174C82.6193 60.7543 87.8248 65.5344 90.8427 71.6514C93.5771 77.1809 94.3873 83.6726 93.1214 89.9212C91.8251 96.3419 88.4122 102.226 83.5308 106.469C78.1531 111.148 71.3171 113.64 63.7824 113.69C63.3672 113.69 62.9519 113.69 62.5468 113.69C60.0454 113.69 57.7971 113.629 55.6602 113.437" stroke="#083B5A" stroke-width="3" stroke-miterlimit="10"/>
<path d="M59.5693 51.0015V26.5742" stroke="#083B5A" stroke-width="3" stroke-miterlimit="10"/>
<path d="M59.5693 101.162V64.7241" stroke="#083B5A" stroke-width="3" stroke-miterlimit="10"/>
<path d="M71.9247 112.789V120.303C71.9247 123.716 69.16 126.491 65.747 126.491C62.3341 126.491 59.5693 123.726 59.5693 120.303V113.7" stroke="#083B5A" stroke-width="3" stroke-miterlimit="10"/>
<path d="M71.9247 99.3597V89.5361" stroke="#083B5A" stroke-width="3" stroke-miterlimit="10"/>
<path d="M71.9247 80.7357V69.8184" stroke="#083B5A" stroke-width="3" stroke-miterlimit="10"/>
<path d="M71.9247 27.0603V56.0246" stroke="#083B5A" stroke-width="3" stroke-miterlimit="10"/>
<path d="M59.5693 13.6315V7.69686C59.5693 4.28394 62.3341 1.50903 65.747 1.50903C69.16 1.50903 71.9247 4.27381 71.9247 7.69686V13.8644" stroke="#083B5A" stroke-width="3" stroke-miterlimit="10"/>
<path d="M47.0316 111.563C44.0339 110.47 40.9046 108.859 37.2385 106.449C34.3825 104.586 33.5825 100.747 35.4459 97.8914C37.3093 95.0355 41.1375 94.2354 43.9934 96.0989C51.4573 100.99 54.931 101.375 63.7013 101.325C68.2485 101.294 72.3096 99.846 75.4288 97.1319C78.2645 94.6709 80.2494 91.2377 81.009 87.4703C82.2648 81.2724 80.2697 73.211 70.9019 69.1803C67.732 67.8131 64.866 66.6788 62.1012 65.5851C54.769 62.6886 48.9761 60.3998 44.439 56.3691C38.3525 50.9611 35.7396 42.2516 37.6435 33.6129C38.8082 28.296 41.4818 23.7083 45.229 20.2751" stroke="#083B5A" stroke-width="3" stroke-miterlimit="10"/>
</g>
</g>
<defs>
<clipPath id="clip0_194_2603">
<rect width="1920" height="6917" fill="white" transform="translate(-1000 -3763)"/>
</clipPath>
<clipPath id="clip1_194_2603">
<rect width="128" height="128" fill="white"/>
</clipPath>
</defs>
</svg>
