<svg width="118" height="128" viewBox="0 0 118 128" fill="none" xmlns="http://www.w3.org/2000/svg">
<rect width="118" height="128" fill="#1E1E1E"/>
<g clip-path="url(#clip0_194_2603)">
<rect width="1920" height="6917" transform="translate(-132 -3003)" fill="white"/>
<g clip-path="url(#clip1_194_2603)">
<path d="M86.9599 75.98H36.6899V95.82H86.9599V75.98Z" fill="#F9D97D"/>
<path d="M67.9499 66.7202H52.5699V78.6302H67.9499V66.7202Z" fill="#F9D97D"/>
<path d="M86.28 56.1401H68.95V81.9001H86.28V56.1401Z" fill="#F9D97D"/>
<path d="M86.96 54.8101H68.44C67.71 54.8101 67.12 55.4001 67.12 56.1301C67.12 56.8601 67.71 57.4501 68.44 57.4501H86.96C87.69 57.4501 88.28 56.8601 88.28 56.1301C88.28 55.4001 87.69 54.8101 86.96 54.8101Z" fill="#083B5A"/>
<path d="M77.7 54.8101C76.97 54.8101 76.38 55.4001 76.38 56.1301V62.7401C76.38 63.4701 76.97 64.0601 77.7 64.0601C78.43 64.0601 79.02 63.4701 79.02 62.7401V56.1301C79.02 55.4001 78.43 54.8101 77.7 54.8101Z" fill="#083B5A"/>
<path d="M68.44 81.27H52.57C51.84 81.27 51.25 81.86 51.25 82.59C51.25 83.32 51.84 83.91 52.57 83.91H68.44C69.17 83.91 69.76 83.32 69.76 82.59C69.76 81.86 69.17 81.27 68.44 81.27Z" fill="#083B5A"/>
<path d="M86.96 78.6299C86.23 78.6299 85.64 79.2199 85.64 79.9499V102.44C85.64 103.17 86.23 103.76 86.96 103.76C87.69 103.76 88.28 103.17 88.28 102.44V79.9499C88.28 79.2199 87.69 78.6299 86.96 78.6299Z" fill="#083B5A"/>
<path d="M116.06 111.7H112.12C111.39 111.7 110.8 112.29 110.8 113.02C110.8 113.75 111.39 114.34 112.12 114.34H116.06C116.79 114.34 117.38 113.75 117.38 113.02C117.38 112.29 116.79 111.7 116.06 111.7Z" fill="#083B5A"/>
<path d="M116.06 111.7C115.33 111.7 114.74 112.29 114.74 113.02V118.31C114.74 119.04 115.33 119.63 116.06 119.63C116.79 119.63 117.38 119.04 117.38 118.31V113.02C117.38 112.29 116.79 111.7 116.06 111.7Z" fill="#083B5A"/>
<path d="M45.95 116.99L36.69 117.02C35.96 117.02 35.37 117.62 35.37 118.35C35.37 119.08 35.96 119.67 36.69 119.67L45.95 119.64C46.68 119.64 47.27 119.04 47.27 118.31C47.27 117.58 46.68 116.99 45.95 116.99Z" fill="#083B5A"/>
<path d="M114.74 105.08H113.42C112.69 105.08 112.1 105.67 112.1 106.4C112.1 107.13 112.69 107.72 113.42 107.72H114.74C115.47 107.72 116.06 107.13 116.06 106.4C116.06 105.67 115.47 105.08 114.74 105.08Z" fill="#083B5A"/>
<path d="M114.74 95.8198C114.01 95.8198 113.42 96.4098 113.42 97.1398V113.01C113.42 113.74 114.01 114.33 114.74 114.33C115.47 114.33 116.06 113.74 116.06 113.01V97.1398C116.06 96.4098 115.47 95.8198 114.74 95.8198Z" fill="#083B5A"/>
<path d="M106.8 78.6299H86.96C86.23 78.6299 85.64 79.2199 85.64 79.9499C85.64 80.6799 86.23 81.2699 86.96 81.2699H106.8C107.53 81.2699 108.12 80.6799 108.12 79.9499C108.12 79.2199 107.53 78.6299 106.8 78.6299Z" fill="#083B5A"/>
<path d="M115.94 96.5899L108 79.3899C107.69 78.7299 106.91 78.4399 106.24 78.7399C105.58 79.0499 105.29 79.8299 105.59 80.4999L113.53 97.6999C113.75 98.1799 114.23 98.4699 114.73 98.4699C114.92 98.4699 115.1 98.4299 115.28 98.3499C115.94 98.0399 116.23 97.2599 115.93 96.5899H115.94Z" fill="#083B5A"/>
<path d="M36.69 111.7C35.96 111.7 35.37 112.29 35.37 113.02V118.39C35.37 119.12 35.96 119.71 36.69 119.71C37.42 119.71 38.01 119.12 38.01 118.39V113.02C38.01 112.29 37.42 111.7 36.69 111.7Z" fill="#083B5A"/>
<path d="M34.05 94.5C33.32 94.5 32.73 95.09 32.73 95.82V113.02C32.73 113.75 33.32 114.34 34.05 114.34C34.78 114.34 35.37 113.75 35.37 113.02V95.82C35.37 95.09 34.78 94.5 34.05 94.5Z" fill="#083B5A"/>
<path d="M86.96 94.5H34.04C33.31 94.5 32.72 95.09 32.72 95.82C32.72 96.55 33.31 97.14 34.04 97.14H86.96C87.69 97.14 88.28 96.55 88.28 95.82C88.28 95.09 87.69 94.5 86.96 94.5Z" fill="#083B5A"/>
<path d="M40.66 111.7H34.05C33.32 111.7 32.73 112.29 32.73 113.02C32.73 113.75 33.32 114.34 34.05 114.34H40.66C41.39 114.34 41.98 113.75 41.98 113.02C41.98 112.29 41.39 111.7 40.66 111.7Z" fill="#083B5A"/>
<path d="M53.89 109.05C48.78 109.05 44.63 113.21 44.63 118.31C44.63 123.41 48.79 127.57 53.89 127.57C58.99 127.57 63.15 123.41 63.15 118.31C63.15 113.21 58.99 109.05 53.89 109.05ZM53.89 124.92C50.24 124.92 47.28 121.95 47.28 118.31C47.28 114.67 50.25 111.7 53.89 111.7C57.53 111.7 60.5 114.67 60.5 118.31C60.5 121.95 57.53 124.92 53.89 124.92Z" fill="#083B5A"/>
<path d="M53.8899 114.34C51.6999 114.34 49.9199 116.12 49.9199 118.31C49.9199 120.5 51.6999 122.28 53.8899 122.28C56.0799 122.28 57.8599 120.5 57.8599 118.31C57.8599 116.12 56.0799 114.34 53.8899 114.34ZM53.8899 119.63C53.1599 119.63 52.5699 119.04 52.5699 118.31C52.5699 117.58 53.1599 116.99 53.8899 116.99C54.6199 116.99 55.2099 117.58 55.2099 118.31C55.2099 119.04 54.6199 119.63 53.8899 119.63Z" fill="#083B5A"/>
<path d="M97.5399 114.34C95.3499 114.34 93.5699 116.12 93.5699 118.31C93.5699 120.5 95.3499 122.28 97.5399 122.28C99.7299 122.28 101.51 120.5 101.51 118.31C101.51 116.12 99.7299 114.34 97.5399 114.34ZM97.5399 119.63C96.8099 119.63 96.2199 119.04 96.2199 118.31C96.2199 117.58 96.8099 116.99 97.5399 116.99C98.2699 116.99 98.8599 117.58 98.8599 118.31C98.8599 119.04 98.2699 119.63 97.5399 119.63Z" fill="#083B5A"/>
<path d="M97.54 109.05C92.43 109.05 88.28 113.21 88.28 118.31C88.28 123.41 92.44 127.57 97.54 127.57C102.64 127.57 106.8 123.41 106.8 118.31C106.8 113.21 102.64 109.05 97.54 109.05ZM97.54 124.92C93.89 124.92 90.93 121.95 90.93 118.31C90.93 114.67 93.9 111.7 97.54 111.7C101.18 111.7 104.15 114.67 104.15 118.31C104.15 121.95 101.18 124.92 97.54 124.92Z" fill="#083B5A"/>
<path d="M89.64 116.99H61.83C61.1 116.99 60.51 117.58 60.51 118.31C60.51 119.04 61.1 119.63 61.83 119.63H89.64C90.37 119.63 90.96 119.04 90.96 118.31C90.96 117.58 90.37 116.99 89.64 116.99Z" fill="#083B5A"/>
<path d="M116.06 116.99H105.48C104.75 116.99 104.16 117.58 104.16 118.31C104.16 119.04 104.75 119.63 105.48 119.63H116.06C116.79 119.63 117.38 119.04 117.38 118.31C117.38 117.58 116.79 116.99 116.06 116.99Z" fill="#083B5A"/>
<path d="M114.74 95.8198H98.8699C98.1399 95.8198 97.5499 96.4098 97.5499 97.1398C97.5499 97.8698 98.1399 98.4598 98.8699 98.4598H114.74C115.47 98.4598 116.06 97.8698 116.06 97.1398C116.06 96.4098 115.47 95.8198 114.74 95.8198Z" fill="#083B5A"/>
<path d="M98.87 95.8203C96.68 95.8203 94.9 94.0403 94.9 91.8503C94.9 91.1203 94.31 90.5303 93.58 90.5303C92.85 90.5303 92.26 91.1203 92.26 91.8503C92.26 95.5003 95.23 98.4603 98.87 98.4603C99.6 98.4603 100.19 97.8703 100.19 97.1403C100.19 96.4103 99.6 95.8203 98.87 95.8203Z" fill="#083B5A"/>
<path d="M93.57 78.6299C92.84 78.6299 92.25 79.2199 92.25 79.9499V91.8599C92.25 92.5899 92.84 93.1799 93.57 93.1799C94.3 93.1799 94.89 92.5899 94.89 91.8599V79.9499C94.89 79.2199 94.3 78.6299 93.57 78.6299Z" fill="#083B5A"/>
<path d="M86.96 54.8101C86.23 54.8101 85.64 55.4001 85.64 56.1301V95.8201C85.64 96.5501 86.23 97.1401 86.96 97.1401C87.69 97.1401 88.28 96.5501 88.28 95.8201V56.1301C88.28 55.4001 87.69 54.8101 86.96 54.8101Z" fill="#083B5A"/>
<path d="M68.44 54.8101C67.71 54.8101 67.12 55.4001 67.12 56.1301V95.8201C67.12 96.5501 67.71 97.1401 68.44 97.1401C69.17 97.1401 69.76 96.5501 69.76 95.8201V56.1301C69.76 55.4001 69.17 54.8101 68.44 54.8101Z" fill="#083B5A"/>
<path d="M52.57 65.3999C51.84 65.3999 51.25 65.9899 51.25 66.7199V95.8199C51.25 96.5499 51.84 97.1399 52.57 97.1399C53.3 97.1399 53.89 96.5499 53.89 95.8199V66.7199C53.89 65.9899 53.3 65.3999 52.57 65.3999Z" fill="#083B5A"/>
<path d="M60.4999 81.27C59.7699 81.27 59.1799 81.86 59.1799 82.59V86.56C59.1799 87.29 59.7699 87.88 60.4999 87.88C61.2299 87.88 61.8199 87.29 61.8199 86.56V82.59C61.8199 81.86 61.2299 81.27 60.4999 81.27Z" fill="#083B5A"/>
<path d="M68.44 65.3999H52.57C51.84 65.3999 51.25 65.9899 51.25 66.7199C51.25 67.4499 51.84 68.0399 52.57 68.0399H68.44C69.17 68.0399 69.76 67.4499 69.76 66.7199C69.76 65.9899 69.17 65.3999 68.44 65.3999Z" fill="#083B5A"/>
<path d="M60.4999 65.3999C59.7699 65.3999 59.1799 65.9899 59.1799 66.7199V69.3699C59.1799 70.0999 59.7699 70.6899 60.4999 70.6899C61.2299 70.6899 61.8199 70.0999 61.8199 69.3699V66.7199C61.8199 65.9899 61.2299 65.3999 60.4999 65.3999Z" fill="#083B5A"/>
<path d="M36.69 74.6602C35.96 74.6602 35.37 75.2502 35.37 75.9802V95.8202C35.37 96.5502 35.96 97.1402 36.69 97.1402C37.42 97.1402 38.01 96.5502 38.01 95.8202V75.9802C38.01 75.2502 37.42 74.6602 36.69 74.6602Z" fill="#083B5A"/>
<path d="M52.57 74.6602H36.7C35.97 74.6602 35.38 75.2502 35.38 75.9802C35.38 76.7102 35.97 77.3002 36.7 77.3002H52.57C53.3 77.3002 53.89 76.7102 53.89 75.9802C53.89 75.2502 53.3 74.6602 52.57 74.6602Z" fill="#083B5A"/>
<path d="M44.6299 75.98C43.8999 75.98 43.3099 76.57 43.3099 77.3V81.27C43.3099 82 43.8999 82.59 44.6299 82.59C45.3599 82.59 45.9499 82 45.9499 81.27V77.3C45.9499 76.57 45.3599 75.98 44.6299 75.98Z" fill="#083B5A"/>
<path d="M54.18 120.6C55.384 120.6 56.36 119.624 56.36 118.42C56.36 117.216 55.384 116.24 54.18 116.24C52.976 116.24 52 117.216 52 118.42C52 119.624 52.976 120.6 54.18 120.6Z" fill="#083B5A"/>
<path d="M97.54 120.49C98.744 120.49 99.72 119.514 99.72 118.31C99.72 117.106 98.744 116.13 97.54 116.13C96.336 116.13 95.36 117.106 95.36 118.31C95.36 119.514 96.336 120.49 97.54 120.49Z" fill="#083B5A"/>
<path d="M59.34 22.3498L55.72 17.1098L43.3 13.0698L33.46 15.9398L25.98 26.4398V36.6098L32.87 49.7398L43.28 66.1898L60.58 37.4198L61.32 28.1598L59.34 22.3498ZM43.43 42.2898C37.92 42.2898 33.46 37.8298 33.46 32.3198C33.46 26.8098 37.92 22.3498 43.43 22.3498C48.94 22.3498 53.4 26.8098 53.4 32.3198C53.4 37.8298 48.93 42.2898 43.43 42.2898Z" fill="#F9D97D"/>
<path d="M25.99 37.3101C25.97 37.6101 26.04 37.9101 26.2 38.1801L26.64 38.9301L28.43 42.0401L41.94 65.4101C42.54 66.4501 44.05 66.4501 44.65 65.4101L58.32 41.8601L59.87 39.1801L60.39 38.2901C60.54 38.0201 60.61 37.7201 60.59 37.4201" stroke="#083B5A" stroke-width="3" stroke-linecap="round" stroke-linejoin="round"/>
<path d="M58.32 41.8598C58.32 41.8598 58.33 41.8498 58.33 41.8398C58.92 40.9998 59.44 40.1098 59.87 39.1798C59.88 39.1698 59.89 39.1698 59.88 39.1598C60.15 38.5998 60.39 38.0298 60.59 37.4398C60.59 37.4398 60.6 37.4298 60.59 37.4198C61.26 35.5298 61.62 33.4998 61.62 31.3798C61.62 21.2598 53.42 13.0698 43.31 13.0698C33.2 13.0698 25 21.2598 25 31.3798C25 33.4598 25.35 35.4498 25.99 37.3098C26.17 37.8598 26.38 38.3798 26.61 38.8898C26.61 38.9098 26.62 38.9198 26.64 38.9298C27.12 40.0298 27.72 41.0698 28.42 42.0298C28.42 42.0398 28.43 42.0398 28.43 42.0398" stroke="#083B5A" stroke-width="3" stroke-linecap="round" stroke-linejoin="round"/>
<path d="M43.43 42.2896C48.9362 42.2896 53.4 37.8259 53.4 32.3196C53.4 26.8133 48.9362 22.3496 43.43 22.3496C37.9237 22.3496 33.46 26.8133 33.46 32.3196C33.46 37.8259 37.9237 42.2896 43.43 42.2896Z" stroke="#083B5A" stroke-width="3" stroke-linecap="round" stroke-linejoin="round"/>
<path d="M90.21 50.04C90.34 48.7 90.4 47.34 90.4 45.96C90.4 21.41 70.5 1.5 45.95 1.5C21.4 1.5 1.5 21.41 1.5 45.96C1.5 64.91 13.36 81.1 30.07 87.49" stroke="#083B5A" stroke-width="3" stroke-linecap="round" stroke-linejoin="round"/>
</g>
</g>
<defs>
<clipPath id="clip0_194_2603">
<rect width="1920" height="6917" fill="white" transform="translate(-132 -3003)"/>
</clipPath>
<clipPath id="clip1_194_2603">
<rect width="117.39" height="127.57" fill="white"/>
</clipPath>
</defs>
</svg>
