<svg width="139" height="44" viewBox="0 0 139 44" fill="none" xmlns="http://www.w3.org/2000/svg">
<g clip-path="url(#clip0_254_337)">
<mask id="mask0_254_337" style="mask-type:luminance" maskUnits="userSpaceOnUse" x="0" y="0" width="139" height="44">
<path d="M138.5 0H0.5V44H138.5V0Z" fill="white"/>
</mask>
<g mask="url(#mask0_254_337)">
<path d="M10.0636 38.7593H11.2584V42.94H13.8464V43.9111H10.0636V38.7593Z" fill="#FAAD26"/>
<path d="M16.2905 43.6545C15.8606 43.4236 15.5237 43.1053 15.2797 42.7016C15.0356 42.2961 14.9154 41.8415 14.9154 41.3359C14.9154 40.8304 15.0374 40.3758 15.2797 39.9703C15.5237 39.5647 15.8588 39.2483 16.2905 39.0174C16.7221 38.7864 17.2029 38.6719 17.7402 38.6719C18.2757 38.6719 18.7583 38.7864 19.1845 39.0174C19.6107 39.2483 19.9494 39.5666 20.1953 39.9703C20.4412 40.3758 20.5632 40.8304 20.5632 41.3359C20.5632 41.8415 20.4393 42.2961 20.1953 42.7016C19.9494 43.1072 19.6125 43.4236 19.1845 43.6545C18.7565 43.8855 18.2757 44 17.7402 44C17.2029 44 16.7203 43.8855 16.2905 43.6545ZM18.5652 42.7744C18.8111 42.6343 19.0042 42.4398 19.1444 42.1888C19.2846 41.9379 19.3539 41.6542 19.3539 41.3341C19.3539 41.0141 19.2846 40.7304 19.1444 40.4794C19.0042 40.2285 18.8111 40.0339 18.5652 39.8939C18.3194 39.7539 18.0444 39.6848 17.7402 39.6848C17.4361 39.6848 17.161 39.7539 16.9152 39.8939C16.6693 40.0339 16.4762 40.2285 16.336 40.4794C16.1958 40.7304 16.1266 41.0141 16.1266 41.3341C16.1266 41.6542 16.1958 41.9379 16.336 42.1888C16.4762 42.4398 16.6693 42.6343 16.9152 42.7744C17.161 42.9144 17.4361 42.9835 17.7402 42.9835C18.0444 42.9853 18.3194 42.9144 18.5652 42.7744Z" fill="#FAAD26"/>
<path d="M25.7612 41.2541H26.852V43.3454C26.5716 43.5563 26.2474 43.7182 25.8795 43.8309C25.5116 43.9437 25.1401 44 24.7668 44C24.2313 44 23.7486 43.8855 23.3224 43.6582C22.8944 43.429 22.5594 43.1144 22.3153 42.7089C22.0713 42.3034 21.951 41.8469 21.951 41.3359C21.951 40.825 22.0731 40.3685 22.3153 39.963C22.5594 39.5575 22.8963 39.2411 23.3298 39.0137C23.7614 38.7846 24.2494 38.6719 24.7904 38.6719C25.242 38.6719 25.6536 38.7483 26.0215 38.901C26.3894 39.0538 26.6991 39.2738 26.9504 39.5629L26.1836 40.2703C25.8157 39.883 25.3695 39.6884 24.8486 39.6884C24.519 39.6884 24.2276 39.7575 23.9708 39.8939C23.7158 40.0321 23.5155 40.2249 23.3734 40.4758C23.2313 40.7268 23.1603 41.0141 23.1603 41.3378C23.1603 41.656 23.2313 41.9415 23.3734 42.1925C23.5155 42.4434 23.714 42.638 23.9671 42.778C24.2203 42.918 24.51 42.9871 24.8342 42.9871C25.1784 42.9871 25.4879 42.9144 25.7629 42.7671V41.2541H25.7612Z" fill="#FAAD26"/>
<path d="M28.7681 38.7593H29.9628V43.9129H28.7681V38.7593Z" fill="#FAAD26"/>
<path d="M32.5108 43.8344C32.1301 43.7235 31.8241 43.5798 31.5928 43.4035L31.999 42.5051C32.2194 42.667 32.4834 42.7979 32.7876 42.8943C33.0917 42.9925 33.3977 43.0416 33.7019 43.0416C34.0406 43.0416 34.292 42.9907 34.4541 42.8906C34.6162 42.7906 34.6981 42.6561 34.6981 42.4888C34.6981 42.3669 34.6508 42.2651 34.5542 42.1833C34.4577 42.1014 34.3357 42.0378 34.1863 41.9887C34.037 41.9396 33.833 41.885 33.578 41.8268C33.1846 41.7341 32.8623 41.6395 32.6128 41.5468C32.3614 41.454 32.1465 41.3031 31.968 41.0976C31.7877 40.8921 31.6985 40.6175 31.6985 40.2738C31.6985 39.9738 31.7786 39.7028 31.9425 39.461C32.1046 39.2173 32.3487 39.0264 32.6765 38.8827C33.0025 38.7409 33.4032 38.6699 33.8749 38.6699C34.2046 38.6699 34.5269 38.71 34.8402 38.7881C35.1553 38.8663 35.4303 38.9791 35.6652 39.1264L35.2973 40.032C34.8201 39.7629 34.343 39.6265 33.8676 39.6265C33.5325 39.6265 33.2866 39.681 33.1264 39.7883C32.9661 39.8956 32.8859 40.0393 32.8859 40.2157C32.8859 40.392 32.9788 40.523 33.1628 40.6103C33.3467 40.6957 33.629 40.7812 34.0079 40.8649C34.4013 40.9576 34.7236 41.0522 34.9731 41.1449C35.2245 41.2376 35.4394 41.3849 35.6179 41.5868C35.7964 41.7886 35.8874 42.0614 35.8874 42.4033C35.8874 42.6979 35.8055 42.967 35.6397 43.2089C35.4758 43.4526 35.2281 43.6453 34.8985 43.7872C34.5688 43.929 34.1681 43.9999 33.6964 43.9999C33.2866 43.9999 32.8914 43.9454 32.5108 43.8344Z" fill="#FAAD26"/>
<path d="M38.5083 39.7304H36.8564V38.7593H41.3531V39.7304H39.7012V43.9111H38.5064V39.7304H38.5083Z" fill="#FAAD26"/>
<path d="M42.8065 38.7593H44.0012V43.9129H42.8065V38.7593Z" fill="#FAAD26"/>
<path d="M47.0791 43.6582C46.6548 43.429 46.3197 43.1144 46.0756 42.7089C45.8316 42.3034 45.7114 41.8469 45.7114 41.3359C45.7114 40.825 45.8334 40.3685 46.0756 39.963C46.3197 39.5575 46.653 39.2411 47.0791 39.0137C47.5035 38.7846 47.9825 38.6719 48.5125 38.6719C48.9605 38.6719 49.3648 38.7501 49.7255 38.9083C50.0861 39.0647 50.3902 39.292 50.6361 39.5848L49.8693 40.2921C49.5197 39.8903 49.088 39.6884 48.5726 39.6884C48.2539 39.6884 47.9679 39.7575 47.7166 39.8975C47.4653 40.0376 47.2704 40.2321 47.1301 40.4831C46.9899 40.734 46.9207 41.0177 46.9207 41.3378C46.9207 41.6578 46.9899 41.9415 47.1301 42.1925C47.2704 42.4434 47.4653 42.638 47.7166 42.778C47.9679 42.918 48.252 42.9871 48.5726 42.9871C49.088 42.9871 49.5215 42.7835 49.8693 42.3761L50.6361 43.0835C50.3902 43.3836 50.0861 43.6109 49.7218 43.7691C49.3576 43.9255 48.9532 44.0037 48.5052 44.0037C47.9807 44 47.5035 43.8855 47.0791 43.6582Z" fill="#FAAD26"/>
<path d="M52.7198 43.8344C52.3391 43.7235 52.0331 43.5798 51.8018 43.4035L52.208 42.5051C52.4283 42.667 52.6924 42.7979 52.9966 42.8943C53.3007 42.9925 53.6067 43.0416 53.9109 43.0416C54.2496 43.0416 54.501 42.9907 54.6631 42.8906C54.8251 42.7906 54.9071 42.6561 54.9071 42.4888C54.9071 42.3669 54.8598 42.2651 54.7632 42.1833C54.6667 42.1014 54.5447 42.0378 54.3953 41.9887C54.246 41.9396 54.042 41.885 53.787 41.8268C53.3936 41.7341 53.0713 41.6395 52.8217 41.5468C52.5704 41.454 52.3555 41.3031 52.177 41.0976C51.9967 40.8921 51.9075 40.6175 51.9075 40.2738C51.9075 39.9738 51.9876 39.7028 52.1515 39.461C52.3136 39.2173 52.5577 39.0264 52.8855 38.8827C53.2115 38.7409 53.6122 38.6699 54.0839 38.6699C54.4135 38.6699 54.7359 38.71 55.0492 38.7881C55.3642 38.8663 55.6393 38.9791 55.8742 39.1264L55.5063 40.032C55.0291 39.7629 54.552 39.6265 54.0766 39.6265C53.7415 39.6265 53.4956 39.681 53.3353 39.7883C53.1751 39.8956 53.0949 40.0393 53.0949 40.2157C53.0949 40.392 53.1878 40.523 53.3718 40.6103C53.5557 40.6957 53.838 40.7812 54.2168 40.8649C54.6102 40.9576 54.9326 41.0522 55.1821 41.1449C55.4335 41.2376 55.6484 41.3849 55.8268 41.5868C56.0053 41.7886 56.0964 42.0614 56.0964 42.4033C56.0964 42.6979 56.0144 42.967 55.8487 43.2089C55.6848 43.4526 55.4371 43.6453 55.1074 43.7872C54.7778 43.929 54.3771 43.9999 53.9054 43.9999C53.4956 43.9999 53.1004 43.9454 52.7198 43.8344Z" fill="#FAAD26"/>
<path d="M65.3156 43.9129L65.3083 40.8215L63.7894 43.3692H63.2503L61.7386 40.8888V43.9148H60.6185V38.7612H61.6057L63.538 41.9635L65.4395 38.7612H66.4193L66.4339 43.9148H65.3156V43.9129Z" fill="#FAAD26"/>
<path d="M71.8704 42.8071H69.4736L69.0164 43.9109H67.7925L70.0928 38.7573H71.273L73.5806 43.9109H72.3275L71.8704 42.8071ZM71.4952 41.9015L70.6774 39.9284L69.8597 41.9015H71.4952Z" fill="#FAAD26"/>
<path d="M74.9301 38.7593H77.2741C77.8351 38.7593 78.3304 38.8666 78.7603 39.0794C79.1901 39.2921 79.5252 39.594 79.7638 39.9813C80.0024 40.3687 80.1208 40.8197 80.1208 41.3361C80.1208 41.8507 80.0024 42.3035 79.7638 42.6909C79.5252 43.0782 79.1919 43.3801 78.7603 43.5929C78.3304 43.8056 77.8351 43.9129 77.2741 43.9129H74.9301V38.7593ZM77.2158 42.9327C77.7312 42.9327 78.1428 42.7891 78.4506 42.5018C78.7584 42.2144 78.9114 41.8253 78.9114 41.3343C78.9114 40.8433 78.7584 40.4542 78.4506 40.1668C78.1428 39.8795 77.7312 39.7358 77.2158 39.7358H76.1249V42.9309H77.2158V42.9327Z" fill="#FAAD26"/>
<path d="M85.827 42.9544V43.9109H81.8311V38.7573H85.7304V39.7138H83.0167V40.8322H85.4135V41.7596H83.0167V42.9526H85.827V42.9544Z" fill="#FAAD26"/>
<path d="M90.9993 43.8344C90.6186 43.7235 90.3127 43.5798 90.0814 43.4035L90.4875 42.5051C90.7079 42.667 90.972 42.7979 91.2761 42.8943C91.5803 42.9925 91.8863 43.0416 92.1904 43.0416C92.5292 43.0416 92.7805 42.9907 92.9426 42.8906C93.1047 42.7906 93.1866 42.6561 93.1866 42.4888C93.1866 42.3669 93.1393 42.2651 93.0428 42.1833C92.9462 42.1014 92.8242 42.0378 92.6749 41.9887C92.5255 41.9396 92.3215 41.885 92.0666 41.8268C91.6732 41.7341 91.3508 41.6395 91.1013 41.5468C90.8499 41.454 90.635 41.3031 90.4565 41.0976C90.2762 40.8921 90.187 40.6175 90.187 40.2738C90.187 39.9738 90.2671 39.7028 90.431 39.461C90.5931 39.2173 90.8372 39.0264 91.165 38.8827C91.491 38.7409 91.8917 38.6699 92.3634 38.6699C92.6931 38.6699 93.0154 38.71 93.3287 38.7881C93.6438 38.8663 93.9188 38.9791 94.1537 39.1264L93.7858 40.032C93.3087 39.7629 92.8315 39.6265 92.3561 39.6265C92.021 39.6265 91.7752 39.681 91.6149 39.7883C91.4546 39.8956 91.3745 40.0393 91.3745 40.2157C91.3745 40.392 91.4674 40.523 91.6513 40.6103C91.8353 40.6957 92.1176 40.7812 92.4964 40.8649C92.8898 40.9576 93.2121 41.0522 93.4617 41.1449C93.713 41.2376 93.9279 41.3849 94.1064 41.5868C94.2849 41.7886 94.3759 42.0614 94.3759 42.4033C94.3759 42.6979 94.294 42.967 94.1282 43.2089C93.9643 43.4526 93.7166 43.6453 93.387 43.7872C93.0573 43.929 92.6567 43.9999 92.1849 43.9999C91.7752 43.9999 91.3799 43.9454 90.9993 43.8344Z" fill="#FAAD26"/>
<path d="M100.698 43.9129L100.69 40.8215L99.1713 43.3692H98.6322L97.1206 40.8888V43.9148H96.0005V38.7612H96.9876L98.92 41.9635L100.821 38.7612H101.801L101.816 43.9148H100.698V43.9129Z" fill="#FAAD26"/>
<path d="M107.252 42.8071H104.856L104.398 43.9109H103.175L105.475 38.7573H106.655L108.963 43.9109H107.71L107.252 42.8071ZM106.877 41.9015L106.059 39.9284L105.242 41.9015H106.877Z" fill="#FAAD26"/>
<path d="M113.601 43.9129L112.605 42.4781H112.547H111.507V43.9129H110.312V38.7593H112.547C113.004 38.7593 113.401 38.8357 113.738 38.9885C114.075 39.1412 114.333 39.3558 114.516 39.6358C114.698 39.9159 114.789 40.2468 114.789 40.6305C114.789 41.0142 114.696 41.3434 114.512 41.6198C114.328 41.898 114.066 42.109 113.727 42.2563L114.885 43.9129H113.601ZM113.299 39.9632C113.111 39.8086 112.84 39.7304 112.481 39.7304H111.509V41.5271H112.481C112.84 41.5271 113.113 41.4489 113.299 41.2925C113.487 41.1361 113.579 40.9142 113.579 40.6305C113.578 40.3396 113.485 40.1177 113.299 39.9632Z" fill="#FAAD26"/>
<path d="M117.537 39.7304H115.885V38.7593H120.382V39.7304H118.73V43.9111H117.535V39.7304H117.537Z" fill="#FAAD26"/>
<path d="M125.833 42.9544V43.9109H121.837V38.7573H125.736V39.7138H123.023V40.8322H125.42V41.7596H123.023V42.9526H125.833V42.9544Z" fill="#FAAD26"/>
<path d="M130.883 43.9129L129.887 42.4781H129.829H128.789V43.9129H127.594V38.7593H129.829C130.286 38.7593 130.683 38.8357 131.02 38.9885C131.357 39.1412 131.616 39.3558 131.798 39.6358C131.98 39.9159 132.071 40.2468 132.071 40.6305C132.071 41.0142 131.978 41.3434 131.794 41.6198C131.61 41.898 131.348 42.109 131.009 42.2563L132.167 43.9129H130.883ZM130.581 39.9632C130.394 39.8086 130.122 39.7304 129.763 39.7304H128.791V41.5271H129.763C130.122 41.5271 130.395 41.4489 130.581 41.2925C130.769 41.1361 130.862 40.9142 130.862 40.6305C130.86 40.3396 130.767 40.1177 130.581 39.9632Z" fill="#FAAD26"/>
<path d="M81.9931 6.8959V23.0931C81.902 22.9858 73.3347 12.0731 69.2896 6.8959H66.9511L66.9548 33.8294L56.1018 6.49219C56.1018 6.49219 54.6265 6.50674 53.9964 6.49219C53.1222 8.73802 43.4166 33.3457 43.3692 33.4585C40.7794 29.516 38.2132 25.6099 35.6379 21.6929C35.7454 21.6474 35.831 21.6092 35.9202 21.5728C36.8327 21.191 37.6431 20.6491 38.3334 19.9417C39.8869 18.3523 40.6992 16.4611 40.6173 14.2116C40.5681 12.9005 40.3368 11.6439 39.6939 10.4856C38.8488 8.96351 37.5284 8.02517 35.9293 7.43235C34.2373 6.80679 32.4725 6.61403 30.6859 6.6013C29.533 6.59039 28.3819 6.63767 27.2291 6.67586C25.6263 6.7286 24.0218 6.85407 22.4191 6.85953C15.2214 6.88135 0.507285 6.86862 0.507285 6.86862V6.90499C0.507285 6.90499 0.512749 9.82547 0.5 11.1384C3.25924 11.1311 9.08368 11.1329 9.08368 11.1329V33.8112H13.8919V11.1329C13.8919 11.1329 17.5836 11.1311 19.2737 11.1384C20.1989 10.0309 22.5994 7.19413 22.8653 6.87953V33.8131H27.8337V22.5894C27.974 22.5894 29.9774 22.6785 30.8716 22.6985C33.1628 26.2445 37.8307 33.4603 38.0748 33.8367H48.5726C48.5726 33.8367 54.9016 15.2263 55.0436 14.7899C55.0891 14.9063 60.5439 30.798 61.6567 33.8349C63.5016 33.8331 65.3484 33.8458 67.1915 33.8476C68.6522 33.8512 70.1092 33.8476 71.5699 33.8476V17.1867C71.6555 17.2885 71.6974 17.3321 71.7356 17.3831C73.8538 20.1417 84.6576 34.2077 84.6576 34.2077L86.6009 34.2022V6.8959H81.9931ZM33.3158 18.2014C31.968 18.6124 30.582 18.6633 29.1869 18.6124C28.8008 18.5978 27.8264 18.5233 27.8264 18.5233V18.3432L27.8283 11.1529L27.8319 11.0002C27.8319 11.0002 28.6661 10.9456 29.0777 10.9365C30.5092 10.9093 31.9389 10.9511 33.3212 11.3857C33.7256 11.513 34.1226 11.7003 34.4796 11.9294C35.1462 12.3586 35.4795 13.0223 35.5905 13.7916C35.7199 14.6681 35.6488 15.5337 35.3592 16.372C35.0187 17.3612 34.2774 17.9068 33.3158 18.2014Z" fill="#3A3A3C"/>
<path d="M118.169 6.31543C110.412 6.31361 104.176 12.5764 104.167 20.2905C104.18 28.1063 110.514 34.1709 117.974 34.2656C125.778 34.3638 132.089 28.0681 132.164 20.436C132.24 12.7784 126.064 6.31543 118.169 6.31543ZM119.743 11.9581C119.743 11.951 119.744 11.9399 119.748 11.931C119.75 11.9164 119.759 11.8946 119.766 11.8673C120.009 11.9164 120.245 11.971 120.477 12.0346C120.478 12.0346 120.482 12.0346 120.484 12.0364C120.6 12.0692 120.715 12.1055 120.83 12.14C121.03 12.2036 121.229 12.2765 121.422 12.3565C121.506 12.3892 121.588 12.4256 121.668 12.4601C121.81 12.5238 121.95 12.5892 122.087 12.6602C122.086 12.662 122.087 12.662 122.087 12.6602C122.199 12.7184 122.312 12.7802 122.42 12.8457C122.527 12.9038 122.633 12.9693 122.739 13.0366C122.81 13.0802 122.879 13.1257 122.948 13.173C123.019 13.2184 123.088 13.2674 123.154 13.3184C123.698 13.7094 124.21 14.1713 124.682 14.706C124.321 14.9151 123.977 15.1115 123.637 15.3097C123.112 15.6116 122.591 15.9134 122.065 16.2135C122.057 16.2208 122.047 16.2262 122.037 16.228C121.986 16.2589 121.934 16.2898 121.883 16.3189C121.821 16.3552 121.761 16.3843 121.697 16.4099C120.936 16.7245 120.109 16.3571 119.843 15.6279C119.832 15.6025 119.825 15.577 119.817 15.5515C119.777 15.4242 119.754 15.2896 119.748 15.1479C119.721 14.0877 119.743 13.0219 119.743 11.9581ZM115.508 12.1419C115.61 12.1092 115.712 12.0783 115.814 12.0473C115.858 12.0364 115.9 12.0237 115.947 12.011C116.087 11.9728 116.231 11.94 116.375 11.9073C116.442 11.8909 116.51 11.8764 116.581 11.8637C116.586 11.9146 116.588 11.9582 116.592 11.9964V12.011C116.594 12.0437 116.597 12.0746 116.597 12.1055V12.911C116.597 13.3893 116.597 13.8658 116.595 14.3404C116.597 14.3986 116.595 14.4567 116.595 14.5149C116.597 14.695 116.595 14.8751 116.595 15.0569C116.595 15.166 116.585 15.2696 116.565 15.3696C116.563 15.4023 116.554 15.4352 116.546 15.4661C116.539 15.4987 116.532 15.5352 116.519 15.5679C116.508 15.6006 116.495 15.6334 116.486 15.6643C116.475 15.6952 116.463 15.7225 116.448 15.7498C116.448 15.7551 116.448 15.7607 116.442 15.7625C116.432 15.786 116.419 15.808 116.406 15.8316C116.401 15.8371 116.399 15.8425 116.395 15.8461C116.382 15.8698 116.37 15.8898 116.357 15.9116C116.351 15.9171 116.346 15.9242 116.342 15.9316C116.33 15.9497 116.317 15.9698 116.304 15.988C116.304 15.988 116.304 15.9897 116.302 15.9934C116.295 15.9988 116.289 16.0062 116.284 16.0115C116.264 16.0388 116.24 16.0644 116.218 16.088C116.198 16.1116 116.175 16.1335 116.149 16.1571C116.126 16.1826 116.1 16.2025 116.073 16.2207C116.04 16.2516 116.002 16.2771 115.962 16.3026C115.925 16.3261 115.891 16.3462 115.851 16.3662C115.818 16.3844 115.785 16.399 115.749 16.4117C115.716 16.4244 115.679 16.4372 115.641 16.4499C115.623 16.4553 115.608 16.4608 115.592 16.4626C115.568 16.4699 115.543 16.4753 115.521 16.4808C115.484 16.4881 115.446 16.4953 115.412 16.5008C115.199 16.5317 114.949 16.5152 114.74 16.4425C114.721 16.4372 114.703 16.4298 114.687 16.4243C114.654 16.4116 114.621 16.3971 114.588 16.379C114.497 16.3299 114.404 16.2808 114.317 16.2317C114.299 16.2208 114.281 16.2117 114.266 16.2044C113.64 15.8607 113.024 15.5043 112.407 15.146C112.283 15.0751 112.157 15.0006 112.03 14.9278C111.933 14.8696 111.833 14.8114 111.734 14.7551C111.716 14.7441 111.704 14.7187 111.676 14.6896C112.743 13.4803 114.013 12.6293 115.508 12.1419ZM110.07 23.1363C109.416 21.2288 109.421 19.3575 110.068 17.4427C111.068 18.0191 112.042 18.5501 112.984 19.1393C113.024 19.1649 113.066 19.1922 113.104 19.2249C113.124 19.2394 113.142 19.2557 113.162 19.2739C113.195 19.2993 113.226 19.3303 113.253 19.363C113.261 19.3703 113.268 19.3776 113.277 19.3886C113.284 19.3958 113.292 19.4031 113.297 19.4122C113.324 19.4431 113.348 19.4704 113.368 19.5031C113.37 19.5031 113.37 19.5048 113.37 19.5048C113.403 19.5503 113.432 19.5995 113.456 19.6468C113.483 19.6977 113.507 19.7485 113.527 19.8012C113.567 19.9049 113.596 20.0141 113.605 20.1269C113.612 20.1796 113.616 20.2341 113.616 20.2869C113.616 20.3378 113.614 20.385 113.605 20.4341C113.603 20.4595 113.599 20.4833 113.594 20.5087C113.596 20.5142 113.596 20.5196 113.594 20.5215C113.592 20.5415 113.589 20.5615 113.583 20.5833C113.583 20.5851 113.581 20.5887 113.581 20.5887C113.579 20.6142 113.57 20.6397 113.563 20.6633C113.539 20.7524 113.507 20.836 113.467 20.9178C113.37 21.1087 113.224 21.276 113.029 21.4033C112.079 22.0198 111.075 22.5562 110.068 23.1437V23.1363H110.07ZM116.586 28.7136C116.34 28.6645 116.096 28.6101 115.861 28.5427C115.758 28.5154 115.656 28.4845 115.552 28.4518C115.455 28.4209 115.361 28.3881 115.268 28.3554C115.26 28.3554 115.255 28.3537 115.248 28.3482C115.162 28.3173 115.075 28.2845 114.991 28.2517C114.672 28.1244 114.364 27.9808 114.068 27.8208C113.177 27.3334 112.379 26.6824 111.654 25.8732C111.804 25.7877 111.926 25.715 112.048 25.644C112.771 25.2294 113.488 24.813 114.21 24.3966C114.217 24.3911 114.224 24.3857 114.233 24.3839C114.295 24.3475 114.357 24.3129 114.419 24.2765C114.47 24.2456 114.523 24.2202 114.577 24.1983C114.592 24.1911 114.605 24.1838 114.621 24.1783C114.955 24.0383 115.295 24.0201 115.597 24.102C115.641 24.1147 115.681 24.1292 115.721 24.1456C115.752 24.1565 115.783 24.1692 115.811 24.1838C115.849 24.202 115.883 24.222 115.92 24.2421C115.956 24.2656 115.991 24.2874 116.024 24.3111C116.056 24.3347 116.089 24.3602 116.12 24.3893C116.153 24.4147 116.182 24.442 116.209 24.4747C116.24 24.5057 116.266 24.5385 116.291 24.5711C116.31 24.5912 116.324 24.6111 116.337 24.6348C116.351 24.6549 116.368 24.6784 116.381 24.7002C116.404 24.7384 116.424 24.7766 116.442 24.8166C116.468 24.8694 116.488 24.9239 116.506 24.9821C116.512 25.0076 116.519 25.0331 116.526 25.0585C116.528 25.0604 116.528 25.0658 116.528 25.0712C116.554 25.1621 116.568 25.2622 116.574 25.364C116.637 26.4606 116.586 27.5662 116.586 28.7136ZM115.222 20.2741C115.228 18.6502 116.548 17.3428 118.176 17.3482C119.764 17.3337 121.171 18.692 121.114 20.3886C121.061 21.9781 119.703 23.2782 118.049 23.2365C116.521 23.1982 115.219 21.8635 115.222 20.2741ZM119.741 26.5278C119.739 26.526 119.739 26.526 119.741 26.526C119.741 26.5242 119.741 26.5243 119.741 26.5243C119.741 26.5243 119.739 26.5187 119.741 26.5187C119.739 26.5133 119.739 26.5114 119.741 26.5078C119.739 26.506 119.739 26.5024 119.741 26.5005C119.739 26.4751 119.739 26.4496 119.741 26.4261V25.5695C119.741 25.4495 119.752 25.3331 119.772 25.2258C119.772 25.224 119.772 25.2204 119.774 25.2185C119.947 24.3347 120.741 23.8619 121.584 24.1311C121.586 24.1311 121.591 24.1329 121.595 24.1329C121.711 24.1712 121.828 24.2238 121.946 24.2911C122.114 24.3875 122.28 24.4839 122.447 24.5802C122.455 24.5821 122.462 24.5875 122.473 24.5948C123.108 24.9639 123.744 25.3295 124.381 25.695C124.44 25.7278 124.498 25.7605 124.556 25.7969C124.593 25.8204 124.633 25.8422 124.678 25.8713C123.343 27.3807 121.722 28.319 119.746 28.7191C119.744 28.7191 119.744 28.7191 119.741 28.7191V26.5278ZM126.747 20.6123C126.745 20.6868 126.742 20.7615 126.735 20.8361C126.736 20.8379 126.736 20.8414 126.735 20.8432C126.729 20.9196 126.724 20.9924 126.716 21.0687C126.685 21.4015 126.634 21.7344 126.563 22.0672C126.543 22.169 126.518 22.2726 126.492 22.3744C126.49 22.3889 126.485 22.4072 126.48 22.4254C126.418 22.6581 126.347 22.8945 126.268 23.1309C126.088 23.0272 125.924 22.9345 125.762 22.8417C125.035 22.4253 124.305 22.0052 123.58 21.5815C123.569 21.5798 123.562 21.5707 123.553 21.567C123.533 21.5562 123.513 21.5471 123.494 21.5344C123.451 21.5107 123.411 21.4834 123.372 21.4562C123.365 21.4507 123.36 21.4489 123.352 21.4434C123.34 21.4362 123.327 21.4289 123.314 21.4162C122.578 20.8596 122.536 19.885 123.187 19.2776V19.2758C123.188 19.274 123.188 19.2703 123.192 19.2739C123.21 19.2593 123.229 19.243 123.249 19.2284C123.323 19.1593 123.407 19.1048 123.498 19.0484C123.638 18.9647 123.78 18.8866 123.921 18.8047C123.933 18.7974 123.944 18.7903 123.957 18.7848C124.438 18.503 124.921 18.2264 125.405 17.9465C125.567 17.8555 125.731 17.761 125.893 17.6664C125.946 17.6337 126.002 17.6028 126.059 17.5719C126.073 17.561 126.09 17.5536 126.104 17.5463C126.117 17.5391 126.13 17.5319 126.143 17.5264C126.154 17.521 126.168 17.5137 126.181 17.5064C126.208 17.4919 126.239 17.4754 126.272 17.4572H126.274C126.294 17.5154 126.312 17.5718 126.33 17.63C126.348 17.6882 126.367 17.7446 126.383 17.8028C126.454 18.0447 126.518 18.2847 126.569 18.5248C126.594 18.6393 126.614 18.7539 126.634 18.8648C126.665 19.0485 126.691 19.2339 126.709 19.4157C126.72 19.4903 126.727 19.5631 126.729 19.6377C126.742 19.7541 126.747 19.8685 126.749 19.9831C126.755 20.0849 126.756 20.1832 126.756 20.2832C126.755 20.3905 126.751 20.5032 126.747 20.6123Z" fill="#3A3A3C"/>
<path d="M101.499 12.2473C100.963 11.9454 100.444 11.6235 99.8999 11.3544C98.6924 10.7543 97.4065 10.4652 96.057 10.4852C95.1536 10.4997 94.3104 10.7052 93.6183 11.3362C92.7095 12.1636 92.3343 13.7912 93.0937 14.9495C93.5509 15.646 94.1519 16.1934 94.813 16.6807C95.782 17.3954 96.8383 17.9573 97.9165 18.4883C99.0493 19.0466 100.168 19.6376 101.171 20.4123C102.923 21.7652 103.896 23.5546 104.129 25.7495C104.284 27.2134 104.145 28.6354 103.44 29.9575C102.643 31.4559 101.417 32.507 99.9053 33.2398C98.4428 33.949 96.8747 34.22 95.2684 34.28C93.1976 34.3582 91.1978 34.0345 89.3128 33.1453C88.8611 32.9325 88.4313 32.6743 87.9923 32.4379C87.894 32.3851 87.8339 32.3324 87.8903 32.196C88.4586 30.8358 89.0195 29.4719 89.5823 28.1099C89.5878 28.0972 89.6024 28.0863 89.6078 28.0808C90.1214 28.3808 90.6241 28.6991 91.1486 28.9755C92.9663 29.9338 94.8859 30.2721 96.9148 29.8738C97.5959 29.7411 98.2334 29.4956 98.7233 28.9809C99.3262 28.3481 99.4791 27.5662 99.3881 26.7278C99.2442 25.4185 98.5503 24.4238 97.545 23.6201C96.4959 22.7836 95.3139 22.1635 94.1228 21.5597C92.9116 20.9451 91.6986 20.3268 90.6168 19.4976C89.0432 18.2955 88.1945 16.6753 87.9596 14.7259C87.8029 13.4238 87.8812 12.1363 88.4167 10.9198C89.3164 8.87039 90.9009 7.57017 92.9954 6.86097C93.8824 6.56092 94.8003 6.43362 95.7364 6.41726C97.2991 6.38998 98.849 6.48999 100.364 6.90461C101.22 7.13919 102.025 7.48652 102.756 7.99752C102.912 8.10844 102.945 8.20664 102.878 8.38849C102.43 9.62506 101.994 10.8652 101.555 12.1054C101.534 12.1636 101.512 12.2145 101.499 12.2473Z" fill="#3A3A3C"/>
<path d="M118.175 17.3483C119.761 17.3301 121.167 18.6904 121.112 20.387C121.059 21.9745 119.699 23.2748 118.047 23.2311C116.517 23.1911 115.217 21.86 115.22 20.2706C115.224 18.6504 116.544 17.3429 118.175 17.3483Z" fill="#FAAD26"/>
<path d="M46.5273 33.8345C45.4801 33.8363 44.2252 33.8399 43.4129 33.8399C42.5642 33.8399 41.2857 33.8381 40.2239 33.8345H46.5273Z" fill="#3A3A3C"/>
<path d="M138.5 18.5231H134.448C133.634 10.9509 127.64 4.92627 120.076 4.05158V0C129.873 0.907423 137.659 8.72508 138.5 18.5231Z" fill="#FAAD26"/>
</g>
</g>
<defs>
<clipPath id="clip0_254_337">
<rect width="138" height="44" fill="white" transform="translate(0.5)"/>
</clipPath>
</defs>
</svg>
