<svg width="325" height="104" viewBox="0 0 325 104" fill="none" xmlns="http://www.w3.org/2000/svg">
<path d="M22.4634 90.9625H25.2596V100.772H31.3454V103.049H22.4634V90.9625Z" fill="#EDEDF4"/>
<path d="M37.1023 102.439C36.0919 101.899 35.293 101.148 34.7291 100.209C34.1651 99.247 33.8832 98.1909 33.8832 96.994C33.8832 95.7972 34.1651 94.7411 34.7291 93.7789C35.293 92.8167 36.0919 92.0892 37.1023 91.5494C38.1127 91.0096 39.2406 90.728 40.5094 90.728C41.7783 90.728 42.9061 90.9862 43.893 91.5494C44.9034 92.0892 45.6788 92.8402 46.2662 93.7789C46.8537 94.7411 47.1356 95.7972 47.1356 96.994C47.1356 98.1909 46.8537 99.247 46.2662 100.209C45.6788 101.171 44.9034 101.899 43.893 102.439C42.8826 102.978 41.7548 103.26 40.5094 103.26C39.2641 103.26 38.1127 103.002 37.1023 102.439ZM42.4362 100.373C43.0236 100.045 43.4701 99.599 43.799 98.9888C44.128 98.4021 44.2925 97.745 44.2925 96.994C44.2925 96.243 44.128 95.5859 43.799 94.9992C43.4701 94.4125 43.0236 93.9432 42.4362 93.6146C41.8488 93.2861 41.2143 93.1218 40.4859 93.1218C39.7575 93.1218 39.1231 93.2861 38.5356 93.6146C37.9482 93.9432 37.5018 94.3891 37.1728 94.9992C36.8438 95.5859 36.6794 96.243 36.6794 96.994C36.6794 97.745 36.8438 98.4021 37.1728 98.9888C37.5018 99.5755 37.9482 100.045 38.5356 100.373C39.1231 100.702 39.7575 100.866 40.4859 100.866C41.1908 100.866 41.8488 100.702 42.4362 100.373Z" fill="#EDEDF4"/>
<path d="M59.3544 96.8071H61.9156V101.712C61.2577 102.205 60.5058 102.58 59.6364 102.862C58.767 103.12 57.8976 103.261 57.0282 103.261C55.7593 103.261 54.6314 103.003 53.6445 102.463C52.6342 101.923 51.8588 101.196 51.2713 100.233C50.7074 99.2712 50.4254 98.2152 50.4254 97.0183C50.4254 95.8214 50.7074 94.7419 51.2713 93.8032C51.8353 92.841 52.6342 92.1134 53.6445 91.5737C54.6549 91.0339 55.8063 90.7758 57.0752 90.7758C58.1325 90.7758 59.0959 90.9635 59.9653 91.3155C60.8347 91.6675 61.5631 92.1838 62.1506 92.8644L60.3413 94.5307C59.4719 93.6154 58.438 93.1695 57.2161 93.1695C56.4407 93.1695 55.7593 93.3338 55.1484 93.6623C54.5374 93.9909 54.0675 94.4368 53.7385 95.0235C53.4096 95.6102 53.2451 96.2908 53.2451 97.0417C53.2451 97.7927 53.4096 98.4498 53.7385 99.0365C54.0675 99.6233 54.5374 100.093 55.1249 100.421C55.7123 100.75 56.3937 100.914 57.1691 100.914C57.968 100.914 58.6965 100.75 59.3544 100.398V96.854V96.8071Z" fill="#EDEDF4"/>
<path d="M66.4268 90.9625H69.2229V103.049H66.4268V90.9625Z" fill="#EDEDF4"/>
<path d="M75.2147 102.862C74.3218 102.604 73.5934 102.275 73.053 101.853L74.0164 99.7406C74.5333 100.116 75.1442 100.421 75.8727 100.656C76.5776 100.891 77.306 101.008 78.0109 101.008C78.8098 101.008 79.3972 100.891 79.7732 100.656C80.1492 100.421 80.3371 100.116 80.3371 99.7171C80.3371 99.4355 80.2196 99.2008 80.0082 98.9896C79.7732 98.8019 79.4912 98.6376 79.1388 98.5437C78.7863 98.4264 78.3164 98.309 77.7054 98.1682C76.789 97.957 76.0136 97.7223 75.4262 97.5111C74.8388 97.2999 74.3218 96.9479 73.9224 96.455C73.4994 95.9622 73.288 95.3286 73.288 94.5307C73.288 93.8266 73.4759 93.193 73.8519 92.6297C74.2278 92.0665 74.8153 91.6206 75.5672 91.2686C76.3426 90.94 77.2825 90.7758 78.3869 90.7758C79.1623 90.7758 79.9142 90.8696 80.6661 91.0574C81.418 91.2451 82.0524 91.5033 82.6164 91.8553L81.747 93.9909C80.6191 93.3573 79.5147 93.0287 78.3869 93.0287C77.588 93.0287 77.024 93.146 76.6481 93.4042C76.2721 93.6623 76.0841 93.9909 76.0841 94.4133C76.0841 94.8357 76.2956 95.1408 76.7421 95.3286C77.165 95.5398 77.8464 95.7275 78.7393 95.9153C79.6557 96.1265 80.4311 96.3612 81.0186 96.5724C81.606 96.7836 82.1229 97.1356 82.5224 97.605C82.9453 98.0744 83.1568 98.708 83.1568 99.5294C83.1568 100.21 82.9688 100.844 82.5694 101.43C82.1934 101.994 81.606 102.463 80.8306 102.791C80.0552 103.12 79.1153 103.284 78.0109 103.284C77.0475 103.284 76.1076 103.167 75.2147 102.885V102.862Z" fill="#EDEDF4"/>
<path d="M89.3132 93.2389H85.4362V90.9625H96.0099V93.2389H92.1329V103.049H89.3367V93.2389H89.3132Z" fill="#EDEDF4"/>
<path d="M99.4171 90.9625H102.213V103.049H99.4171V90.9625Z" fill="#EDEDF4"/>
<path d="M109.45 102.463C108.463 101.923 107.664 101.196 107.101 100.233C106.537 99.2712 106.255 98.2152 106.255 97.0183C106.255 95.8214 106.537 94.7419 107.101 93.8032C107.664 92.841 108.463 92.1134 109.45 91.5737C110.437 91.0339 111.565 90.7758 112.81 90.7758C113.868 90.7758 114.808 90.9635 115.654 91.339C116.499 91.7145 117.204 92.2308 117.792 92.9348L115.983 94.6011C115.16 93.6623 114.15 93.193 112.928 93.193C112.176 93.193 111.518 93.3572 110.907 93.6858C110.32 94.0144 109.85 94.4603 109.521 95.0704C109.192 95.6571 109.027 96.3142 109.027 97.0652C109.027 97.8162 109.192 98.4733 109.521 99.06C109.85 99.6467 110.32 100.116 110.907 100.445C111.495 100.773 112.176 100.937 112.928 100.937C114.15 100.937 115.16 100.468 115.983 99.5059L117.792 101.172C117.204 101.876 116.499 102.416 115.654 102.791C114.808 103.167 113.844 103.331 112.787 103.331C111.565 103.331 110.437 103.05 109.427 102.51L109.45 102.463Z" fill="#EDEDF4"/>
<path d="M122.703 102.862C121.81 102.604 121.081 102.275 120.541 101.853L121.504 99.7406C122.021 100.116 122.632 100.421 123.361 100.656C124.065 100.891 124.794 101.008 125.499 101.008C126.298 101.008 126.885 100.891 127.261 100.656C127.637 100.421 127.825 100.116 127.825 99.7171C127.825 99.4355 127.708 99.2008 127.496 98.9896C127.261 98.8019 126.979 98.6376 126.627 98.5437C126.274 98.4264 125.804 98.309 125.193 98.1682C124.277 97.957 123.502 97.7223 122.914 97.5111C122.327 97.2999 121.81 96.9479 121.41 96.455C120.987 95.9622 120.776 95.3286 120.776 94.5307C120.776 93.8266 120.964 93.193 121.34 92.6297C121.716 92.0665 122.303 91.6206 123.055 91.2686C123.831 90.94 124.77 90.7758 125.875 90.7758C126.65 90.7758 127.402 90.8696 128.154 91.0574C128.906 91.2451 129.54 91.5033 130.104 91.8553L129.235 93.9909C128.107 93.3573 127.003 93.0287 125.875 93.0287C125.076 93.0287 124.512 93.146 124.136 93.4042C123.76 93.6623 123.572 93.9909 123.572 94.4133C123.572 94.8357 123.784 95.1408 124.23 95.3286C124.653 95.5398 125.334 95.7275 126.227 95.9153C127.144 96.1265 127.919 96.3612 128.506 96.5724C129.094 96.7836 129.611 97.1356 130.01 97.605C130.433 98.0744 130.645 98.708 130.645 99.5294C130.645 100.21 130.457 100.844 130.057 101.43C129.681 101.994 129.094 102.463 128.318 102.791C127.543 103.12 126.603 103.284 125.499 103.284C124.535 103.284 123.596 103.167 122.703 102.885V102.862Z" fill="#EDEDF4"/>
<path d="M152.309 103.049V95.7973L148.714 101.782H147.446L143.897 95.9616V103.072H141.266V90.9863H143.592L148.127 98.4961L152.591 90.9863H154.894V103.072H152.309V103.049Z" fill="#EDEDF4"/>
<path d="M167.7 100.467H162.061L160.98 103.049H158.113L163.518 90.9625H166.29L171.718 103.049H168.781L167.7 100.467ZM166.807 98.3315L164.88 93.7083L162.954 98.3315H166.807Z" fill="#EDEDF4"/>
<path d="M174.891 90.9628H180.389C181.705 90.9628 182.88 91.221 183.89 91.7138C184.9 92.2066 185.676 92.9107 186.24 93.8259C186.804 94.7412 187.086 95.7972 187.086 96.9941C187.086 98.191 186.804 99.2705 186.24 100.162C185.676 101.078 184.9 101.782 183.89 102.274C182.88 102.767 181.705 103.025 180.389 103.025H174.891V90.9393V90.9628ZM180.271 100.749C181.493 100.749 182.457 100.42 183.162 99.7399C183.89 99.0593 184.242 98.1441 184.242 96.9941C184.242 95.8442 183.89 94.9289 183.162 94.2483C182.433 93.5678 181.47 93.2392 180.271 93.2392H177.71V100.749H180.271Z" fill="#EDEDF4"/>
<path d="M200.502 100.796V103.049H191.103V90.9625H200.267V93.2155H193.899V95.8439H199.539V98.0264H193.899V100.819H200.502V100.796Z" fill="#EDEDF4"/>
<path d="M212.65 102.862C211.757 102.604 211.029 102.275 210.489 101.853L211.452 99.7406C211.969 100.116 212.58 100.421 213.308 100.656C214.013 100.891 214.742 101.008 215.447 101.008C216.245 101.008 216.833 100.891 217.209 100.656C217.585 100.421 217.773 100.116 217.773 99.7171C217.773 99.4355 217.655 99.2008 217.444 98.9896C217.209 98.8019 216.927 98.6376 216.574 98.5437C216.222 98.4264 215.752 98.309 215.141 98.1682C214.225 97.957 213.449 97.7223 212.862 97.5111C212.274 97.2999 211.757 96.9479 211.358 96.455C210.935 95.9622 210.724 95.3286 210.724 94.5307C210.724 93.8266 210.912 93.193 211.288 92.6297C211.664 92.0665 212.251 91.6206 213.003 91.2686C213.778 90.94 214.718 90.7758 215.823 90.7758C216.598 90.7758 217.35 90.8696 218.102 91.0574C218.854 91.2451 219.488 91.5033 220.052 91.8553L219.183 93.9909C218.055 93.3573 216.95 93.0287 215.823 93.0287C215.024 93.0287 214.46 93.146 214.084 93.4042C213.708 93.6623 213.52 93.9909 213.52 94.4133C213.52 94.8357 213.731 95.1408 214.178 95.3286C214.601 95.5398 215.282 95.7275 216.175 95.9153C217.091 96.1265 217.867 96.3612 218.454 96.5724C219.042 96.7836 219.559 97.1356 219.958 97.605C220.381 98.0744 220.592 98.708 220.592 99.5294C220.592 100.21 220.404 100.844 220.005 101.43C219.629 101.994 219.042 102.463 218.266 102.791C217.491 103.12 216.551 103.284 215.447 103.284C214.483 103.284 213.543 103.167 212.65 102.885V102.862Z" fill="#EDEDF4"/>
<path d="M235.443 103.049V95.7973L231.848 101.782H230.579L227.031 95.9616V103.072H224.399V90.9863H226.725L231.26 98.4961L235.725 90.9863H238.028V103.072H235.443V103.049Z" fill="#EDEDF4"/>
<path d="M250.833 100.467H245.194L244.113 103.049H241.247L246.651 90.9625H249.424L254.852 103.049H251.914L250.833 100.467ZM249.941 98.3315L248.014 93.7083L246.087 98.3315H249.941Z" fill="#EDEDF4"/>
<path d="M265.754 103.049L263.405 99.6927H260.82V103.049H258V90.9625H263.264C264.345 90.9625 265.261 91.1503 266.06 91.5023C266.859 91.8543 267.47 92.3706 267.893 93.0277C268.316 93.6848 268.527 94.4593 268.527 95.3511C268.527 96.2429 268.316 97.0173 267.869 97.6744C267.446 98.3315 266.812 98.8244 266.013 99.1764L268.739 103.072H265.731L265.754 103.049ZM265.049 93.7787C264.603 93.4267 263.969 93.2389 263.123 93.2389H260.843V97.4632H263.123C263.969 97.4632 264.603 97.2755 265.049 96.9234C265.496 96.5479 265.707 96.0316 265.707 95.3745C265.707 94.694 265.496 94.1777 265.049 93.8022V93.7787Z" fill="#EDEDF4"/>
<path d="M275.012 93.2389H271.135V90.9625H281.709V93.2389H277.832V103.049H275.036V93.2389H275.012Z" fill="#EDEDF4"/>
<path d="M294.491 100.796V103.049H285.093V90.9625H294.256V93.2155H287.889V95.8439H293.528V98.0264H287.889V100.819H294.491V100.796Z" fill="#EDEDF4"/>
<path d="M306.358 103.049L304.008 99.6927H301.423V103.049H298.627V90.9625H303.867C304.948 90.9625 305.864 91.1503 306.663 91.5023C307.462 91.8543 308.073 92.3706 308.496 93.0277C308.919 93.6848 309.13 94.4593 309.13 95.3511C309.13 96.2429 308.919 97.0173 308.472 97.6744C308.049 98.3315 307.415 98.8244 306.616 99.1764L309.342 103.072H306.334L306.358 103.049ZM305.653 93.7787C305.206 93.4267 304.572 93.2389 303.726 93.2389H301.447V97.4632H303.726C304.572 97.4632 305.206 97.2755 305.653 96.9234C306.099 96.5479 306.311 96.0316 306.311 95.3745C306.311 94.694 306.076 94.1777 305.653 93.8022V93.7787Z" fill="#EDEDF4"/>
<path d="M191.479 16.1932V54.2116C191.268 53.9534 171.131 28.3497 161.638 16.1932H156.139V79.3929L130.645 15.231C130.645 15.231 127.167 15.2544 125.687 15.231C123.643 20.5113 100.827 78.2429 100.709 78.5246C94.6236 69.2781 88.5848 60.1021 82.546 50.9025C82.8044 50.7852 82.9924 50.7148 83.2039 50.6209C85.3421 49.7291 87.2454 48.4619 88.8667 46.7956C92.5088 43.0642 94.4356 38.6287 94.2241 33.3484C94.1066 30.274 93.5662 27.3171 92.0624 24.5947C90.0651 21.0276 86.9634 18.8216 83.2274 17.437C79.2563 15.9585 75.0973 15.5126 70.9148 15.4891C68.2126 15.4656 65.5104 15.583 62.7847 15.6534C59.0252 15.7707 55.2421 16.0758 51.4826 16.0758C34.5645 16.1227 0 16.0758 0 16.0758V16.1697C0 16.1697 0 23.0224 0 26.0967C6.48525 26.0967 20.1607 26.0967 20.1607 26.0967V79.3225H31.4629V26.1202C31.4629 26.1202 40.1334 26.1202 44.1044 26.1202C46.2897 23.5152 51.929 16.8737 52.5399 16.1227V79.3225H64.2181V52.9912C64.547 52.9912 69.2465 53.2024 71.3613 53.2494C76.7421 61.5806 87.7154 78.5011 88.2793 79.3929H112.951C112.951 79.3929 127.825 35.7187 128.154 34.6861C128.272 34.9677 141.078 72.2586 143.686 79.3929C148.009 79.3929 152.356 79.4164 156.68 79.4164C160.111 79.4164 163.541 79.4164 166.972 79.4164V40.3184C167.183 40.5531 167.277 40.6704 167.371 40.7878C172.353 47.265 197.73 80.2612 197.73 80.2612H202.288V16.1932H191.456H191.479ZM77.0946 42.7356C73.9225 43.6978 70.6798 43.8152 67.3902 43.6978C66.4738 43.6744 64.1946 43.4866 64.1946 43.4866V26.1906V25.8386C64.1946 25.8386 66.1449 25.7212 67.1317 25.6978C70.4919 25.6273 73.852 25.7212 77.0946 26.7538C78.0345 27.0589 78.9744 27.4813 79.8203 28.0211C81.3946 29.0302 82.17 30.5791 82.4285 32.3862C82.7339 34.4514 82.5695 36.4696 81.888 38.441C81.0891 40.7643 79.3503 42.0316 77.0946 42.7356Z" fill="#EDEDF4"/>
<path d="M276.492 14.8318C258.258 14.8318 243.62 29.5228 243.596 47.6403C243.62 65.9924 258.517 80.2141 276.046 80.4487C294.374 80.6834 309.224 65.8985 309.389 47.9923C309.577 30.0157 295.055 14.8553 276.492 14.8553V14.8318ZM280.181 28.0678C280.181 28.0678 280.181 28.0209 280.181 27.9974C280.181 27.974 280.205 27.9035 280.228 27.8566C280.792 27.9739 281.356 28.0913 281.897 28.2556C282.179 28.326 282.437 28.4198 282.719 28.4902C283.189 28.6311 283.659 28.8188 284.106 29.0065C284.294 29.077 284.505 29.1708 284.693 29.2412C285.022 29.382 285.351 29.5463 285.68 29.7106C285.938 29.8514 286.197 29.9922 286.455 30.1565C286.714 30.2973 286.949 30.4381 287.207 30.6024C287.372 30.6963 287.536 30.8136 287.701 30.9309C287.865 31.0483 288.03 31.1421 288.194 31.283C289.463 32.1982 290.685 33.2778 291.789 34.545C290.943 35.0379 290.121 35.5072 289.345 35.9531C288.1 36.6572 286.878 37.3612 285.656 38.0653C285.656 38.0653 285.609 38.0887 285.586 38.0887C285.468 38.1591 285.351 38.2295 285.233 38.2999C285.092 38.3938 284.951 38.4642 284.787 38.5112C283.001 39.2387 281.051 38.3938 280.44 36.6806C280.416 36.6102 280.393 36.5633 280.369 36.4929C280.275 36.1878 280.228 35.8827 280.205 35.5542C280.134 33.0665 280.205 30.5554 280.205 28.0678H280.181ZM270.242 28.4902C270.477 28.4198 270.712 28.3494 270.971 28.279C271.065 28.2556 271.182 28.2321 271.276 28.1852C271.605 28.0913 271.934 28.0209 272.286 27.9505C272.451 27.9035 272.615 27.8801 272.78 27.8566C272.78 27.9739 272.78 28.0678 272.803 28.1617C272.803 28.1617 272.803 28.3494 272.803 28.4198V30.3208C272.803 31.4472 272.803 32.5502 272.803 33.6767C272.803 33.8175 272.803 33.9583 272.803 34.0757C272.803 34.4981 272.803 34.9205 272.803 35.3429C272.803 35.6011 272.78 35.8358 272.733 36.0705C272.733 36.1409 272.709 36.2347 272.686 36.3051C272.686 36.3755 272.662 36.4694 272.615 36.5398C272.592 36.6102 272.568 36.7041 272.545 36.7745C272.521 36.8449 272.498 36.9153 272.451 36.9857V37.0092C272.427 37.0561 272.404 37.1265 272.357 37.1735C272.357 37.1735 272.357 37.1969 272.333 37.1969C272.31 37.2439 272.286 37.2908 272.239 37.3612C272.239 37.3612 272.216 37.3847 272.216 37.4081C272.192 37.4551 272.145 37.502 272.122 37.549C272.122 37.549 272.098 37.5724 272.075 37.5959C272.028 37.6663 271.981 37.7132 271.91 37.7836C271.863 37.8306 271.816 37.901 271.746 37.9479C271.699 38.0183 271.628 38.0653 271.558 38.0887C271.487 38.1591 271.393 38.2295 271.299 38.2765C271.206 38.3234 271.135 38.3703 271.041 38.4173C270.971 38.4642 270.877 38.4877 270.806 38.5346C270.736 38.5581 270.642 38.605 270.548 38.6285C270.501 38.6285 270.477 38.652 270.43 38.652C270.383 38.652 270.313 38.6754 270.266 38.6989C270.172 38.6989 270.078 38.7224 270.007 38.7458C269.514 38.8162 268.926 38.7693 268.433 38.605C268.386 38.605 268.339 38.5816 268.315 38.5581C268.245 38.5346 268.151 38.4877 268.08 38.4407C267.869 38.3234 267.657 38.2061 267.446 38.0887C267.399 38.0653 267.352 38.0418 267.328 38.0183C265.848 37.2204 264.415 36.3755 262.958 35.5307C262.676 35.3664 262.371 35.1787 262.065 35.0144C261.83 34.8736 261.595 34.7328 261.36 34.6154C261.313 34.592 261.29 34.5216 261.219 34.4512C263.733 31.6115 266.718 29.6167 270.219 28.4668L270.242 28.4902ZM257.46 54.2817C255.932 49.7993 255.932 45.4108 257.46 40.9284C259.809 42.2895 262.089 43.5333 264.321 44.918C264.415 44.9884 264.509 45.0353 264.603 45.1292C264.65 45.1526 264.697 45.1996 264.744 45.2465C264.814 45.3169 264.885 45.3873 264.955 45.4577C264.955 45.4577 264.979 45.4812 265.002 45.5281C265.002 45.5281 265.026 45.5516 265.049 45.5751C265.12 45.6455 265.167 45.7159 265.214 45.7863C265.284 45.9036 265.355 45.9975 265.425 46.1148C265.496 46.2322 265.543 46.3495 265.59 46.4669C265.684 46.7015 265.754 46.9597 265.778 47.2413C265.778 47.3586 265.801 47.4995 265.801 47.6168C265.801 47.7341 265.801 47.8515 265.778 47.9688C265.778 48.0392 265.778 48.0862 265.754 48.1331V48.1566C265.754 48.2035 265.754 48.2504 265.731 48.2974C265.731 48.3678 265.707 48.4147 265.684 48.4616C265.637 48.6729 265.543 48.8606 265.449 49.0483C265.214 49.4942 264.885 49.8932 264.415 50.1983C262.183 51.6533 259.833 52.8971 257.46 54.2817ZM272.78 67.377C272.192 67.2596 271.628 67.1423 271.088 66.978C270.853 66.9076 270.595 66.8372 270.36 66.7668C270.125 66.6964 269.913 66.626 269.702 66.5321C269.702 66.5321 269.678 66.5321 269.655 66.5321C269.443 66.4617 269.255 66.3913 269.044 66.2974C268.292 65.9924 267.563 65.6638 266.882 65.2883C264.791 64.1384 262.911 62.6129 261.219 60.712C261.572 60.5008 261.854 60.3365 262.136 60.1722C263.827 59.2101 265.519 58.2244 267.211 57.2387C267.211 57.2387 267.234 57.2153 267.258 57.2153C267.399 57.1214 267.54 57.051 267.704 56.9571C267.822 56.8867 267.939 56.8163 268.08 56.7694C268.104 56.7694 268.151 56.7459 268.174 56.7224C268.95 56.3939 269.749 56.3469 270.477 56.5347C270.571 56.5582 270.665 56.6051 270.759 56.6286C270.83 56.652 270.9 56.6755 270.971 56.7224C271.065 56.7694 271.135 56.8163 271.229 56.8632C271.323 56.9102 271.393 56.9806 271.464 57.0275C271.534 57.0745 271.605 57.1449 271.699 57.2153C271.769 57.2857 271.84 57.3326 271.91 57.4265C271.981 57.4969 272.051 57.5673 272.098 57.6612C272.145 57.7081 272.169 57.755 272.216 57.802C272.239 57.8489 272.286 57.8958 272.31 57.9662C272.357 58.0601 272.404 58.154 272.451 58.2479C272.521 58.3652 272.568 58.506 272.592 58.6468C272.592 58.7172 272.615 58.7642 272.639 58.8346C272.639 58.8346 272.639 58.8346 272.639 58.858C272.709 59.0692 272.733 59.3039 272.756 59.5386C272.897 62.1201 272.78 64.7016 272.78 67.4004V67.377ZM269.584 47.5699C269.584 43.768 272.709 40.6937 276.516 40.6937C280.252 40.6702 283.542 43.8384 283.424 47.828C283.307 51.5594 280.111 54.6103 276.234 54.5164C272.639 54.4226 269.584 51.3013 269.584 47.5699ZM280.205 62.2374C280.205 62.2374 280.205 62.2374 280.205 62.214C280.205 62.1436 280.205 62.0966 280.205 62.0497V60.0314C280.205 59.7498 280.228 59.4682 280.275 59.2335C280.675 57.1683 282.555 56.0419 284.528 56.6755C284.528 56.6755 284.528 56.6755 284.552 56.6755C284.834 56.7694 285.092 56.8867 285.374 57.051C285.774 57.2857 286.15 57.4969 286.549 57.7316C286.549 57.7316 286.573 57.7316 286.62 57.755C288.124 58.6234 289.604 59.4682 291.108 60.3365C291.249 60.4069 291.39 60.5008 291.531 60.5712C291.625 60.6181 291.719 60.6885 291.813 60.7355C288.687 64.2792 284.857 66.4852 280.228 67.4239V62.2844L280.205 62.2374ZM296.677 48.3443C296.677 48.5086 296.677 48.6963 296.653 48.8606C296.653 49.0483 296.63 49.2126 296.606 49.4004C296.536 50.1748 296.418 50.9727 296.254 51.7472C296.207 51.9819 296.136 52.24 296.089 52.4747C296.089 52.4982 296.089 52.5451 296.066 52.592C295.925 53.1318 295.76 53.695 295.572 54.2583C295.149 54.0236 294.773 53.7889 294.374 53.5777C292.659 52.592 290.943 51.6064 289.251 50.6207C289.228 50.6207 289.204 50.5972 289.181 50.5972C289.134 50.5738 289.087 50.5503 289.04 50.5268C288.946 50.4799 288.852 50.4095 288.758 50.3391C288.758 50.3391 288.734 50.3391 288.711 50.3156C288.687 50.3156 288.664 50.2922 288.617 50.2452C286.878 48.931 286.784 46.6546 288.312 45.223C288.359 45.1996 288.406 45.1526 288.453 45.1057C288.617 44.9414 288.828 44.8241 289.04 44.6833C289.369 44.4955 289.698 44.3078 290.027 44.12C290.05 44.12 290.074 44.0966 290.121 44.0731C291.249 43.416 292.377 42.7589 293.528 42.1018C293.904 41.8906 294.303 41.6559 294.679 41.4447C294.797 41.3743 294.938 41.3039 295.079 41.2335C295.102 41.21 295.149 41.1865 295.173 41.1631C295.196 41.1631 295.243 41.1396 295.267 41.1161C295.29 41.1161 295.337 41.0926 295.361 41.0692C295.431 41.0457 295.502 40.9988 295.572 40.9518C295.619 41.0926 295.666 41.21 295.713 41.3508C295.76 41.4916 295.807 41.6089 295.831 41.7498C295.995 42.313 296.136 42.8762 296.277 43.4395C296.348 43.6976 296.371 43.9792 296.442 44.2374C296.512 44.6598 296.583 45.1057 296.606 45.5281C296.63 45.6924 296.653 45.8801 296.653 46.0444C296.677 46.326 296.7 46.5842 296.7 46.8658C296.7 47.1005 296.7 47.3352 296.7 47.5699C296.7 47.828 296.7 48.0862 296.7 48.3443H296.677Z" fill="#EDEDF4"/>
<path d="M237.323 28.7488C236.054 28.0448 234.855 27.2938 233.563 26.6601C230.72 25.252 227.712 24.5715 224.54 24.6184C222.425 24.6419 220.428 25.1347 218.807 26.6132C216.668 28.5611 215.799 32.3629 217.585 35.0852C218.666 36.728 220.076 37.9953 221.626 39.1452C223.906 40.8114 226.396 42.1491 228.911 43.3929C231.566 44.7071 234.197 46.0918 236.547 47.8988C240.659 51.067 242.962 55.2678 243.502 60.4308C243.855 63.8572 243.549 67.2131 241.881 70.3109C240.001 73.8311 237.135 76.2953 233.587 78.0084C230.156 79.6747 226.467 80.3083 222.684 80.4491C217.82 80.6369 213.12 79.8624 208.679 77.7972C207.622 77.3044 206.612 76.6942 205.578 76.131C205.343 76.0136 205.202 75.8728 205.343 75.5678C206.682 72.3761 207.998 69.1844 209.314 65.9693C209.314 65.9458 209.361 65.9223 209.384 65.8989C210.583 66.6029 211.781 67.3539 213.003 67.9875C217.279 70.2405 221.791 71.0384 226.561 70.0997C228.159 69.7946 229.662 69.2079 230.814 68.011C232.224 66.5325 232.6 64.702 232.365 62.7307C232.036 59.6563 230.391 57.333 228.041 55.4321C225.574 53.4608 222.801 52.0057 220.005 50.5976C217.162 49.1661 214.319 47.7111 211.758 45.7632C208.068 42.947 206.071 39.1452 205.507 34.5689C205.131 31.518 205.319 28.4907 206.588 25.6275C208.703 20.8166 212.415 17.7657 217.35 16.0995C219.441 15.3954 221.579 15.0903 223.788 15.0669C227.454 14.9965 231.096 15.2311 234.667 16.2168C236.688 16.7566 238.568 17.578 240.283 18.7748C240.659 19.033 240.73 19.2677 240.565 19.6901C239.508 22.6001 238.497 25.5102 237.464 28.4202C237.417 28.5611 237.37 28.6784 237.323 28.7488Z" fill="#EDEDF4"/>
<path d="M276.516 40.7177C280.252 40.6707 283.542 43.8624 283.425 47.852C283.307 51.5834 280.111 54.6343 276.211 54.5169C272.616 54.4231 269.561 51.3018 269.561 47.5704C269.561 43.7685 272.663 40.6942 276.516 40.7177Z" fill="#FAAD26"/>
<path d="M324.262 43.463H314.746C312.843 25.6976 298.744 11.5463 280.98 9.5046V0C304.008 2.1356 322.289 20.4877 324.262 43.463Z" fill="#FAAD26"/>
</svg>
