<svg width="60" height="72" viewBox="0 0 60 72" fill="none" xmlns="http://www.w3.org/2000/svg">
<path d="M58.0029 23.3552C47.3302 33.9709 48.1233 46.5567 59.7548 52.4802C59.7548 52.8697 59.8758 53.3398 59.7369 53.7159C57.7162 59.1469 54.88 64.0854 50.8475 68.2986C47.832 71.4506 44.2521 72.467 40.0582 71.1372C38.9919 70.8014 37.93 70.4566 36.8815 70.0761C32.9968 68.6612 29.1884 68.7732 25.3306 70.3268C18.668 73.0132 14.8326 72.1535 10.4372 66.427C2.76193 56.4337 -1.46325 45.312 0.826326 32.4755C1.2251 30.2413 2.04056 28.0027 3.07109 25.9744C6.92887 18.363 13.6273 14.9781 21.8313 17.2929C28.0369 19.0436 33.7451 19.0973 39.9104 17.0556C47.1241 14.6692 53.1863 17.3735 58.0074 23.3507L58.0029 23.3552Z" fill="#F3F3F3"/>
<path d="M43.6292 0.211914C45.063 8.54869 37.9927 17.2795 29.8336 17.4004C29.3407 8.87553 34.6054 1.72973 43.6292 0.211914Z" fill="#F3F3F3"/>
</svg>
