<svg width="124" height="80" viewBox="0 0 124 80" fill="none" xmlns="http://www.w3.org/2000/svg">
<path d="M101.519 15.047C99.0276 16.3365 96.5319 17.6305 93.9287 18.9826C88.3818 11.0219 80.9799 7.94601 71.1943 10.3682C79.8821 22.5063 80.0255 34.4786 71.3914 46.442C77.1087 50.1806 87.1362 46.7151 93.7405 38.5619C96.2497 39.8514 98.7991 41.1633 101.353 42.4796C94.9369 54.8549 78.5783 60.0844 65.6249 53.9729C64.1643 53.2834 63.0665 53.1849 61.5252 53.9102C48.4957 60.071 33.1228 55.24 25.6089 42.5378C28.1539 41.217 30.6899 39.9051 33.3603 38.5216C36.6401 43.4064 41.0221 46.5495 46.7796 47.4942C49.8175 47.9912 52.8374 47.8524 55.8304 46.7151C47.053 34.6308 47.0978 22.6495 55.6601 10.6593C48.8362 7.30127 40.1977 10.4533 33.0736 18.9557C30.6092 17.6887 28.118 16.4037 25.0668 14.8321C27.2219 12.3472 28.9918 9.87126 31.1872 7.85646C39.4808 0.227107 51.7307 -1.48323 61.8344 3.50003C63.1472 4.14924 64.0522 4.06865 65.3023 3.45078C78.3139 -2.96075 95.3849 2.46129 101.514 15.0515L101.519 15.047ZM63.4832 15.7231C55.6332 22.9809 57.2015 36.4486 63.6624 41.5976C70.7014 34.4294 70.6163 21.6018 63.4832 15.7231Z" fill="#F3F3F3"/>
<path d="M82.8796 60.3531V78.7235C80.9529 79.4041 79.8194 78.6787 78.7575 77.1251C76.0378 73.1537 73.1478 69.2943 69.9173 64.8214V78.831H66.4448V60.5635C70.0293 59.5651 71.0822 59.9098 73.1209 62.7708C75.0565 65.4796 76.9921 68.1884 79.3265 71.4613V60.3575H82.8751L82.8796 60.3531Z" fill="#F3F3F3"/>
<path d="M41.6359 78.6563C43.1637 75.2088 44.6916 71.7613 46.215 68.3137C47.026 66.478 47.9983 64.6871 48.6032 62.7842C49.2887 60.6262 50.5298 59.9814 52.7253 60.1516C54.2263 60.2635 55.0821 60.5411 55.7273 62.0679C58.0706 67.6108 60.6021 73.0731 63.0709 78.5847C59.6299 79.4443 59.3117 79.2518 57.8018 76.561C57.4568 75.9431 56.5338 75.3789 55.8214 75.2983C54.1994 75.1103 52.5326 75.361 50.9062 75.2088C48.6076 74.9894 47.1022 75.4909 46.0627 77.9042C45.6818 78.7907 43.4236 78.8713 42.0212 79.3235C41.8913 79.1041 41.7658 78.8847 41.6359 78.6653V78.6563ZM52.34 63.9125C51.1795 66.6661 50.2251 68.9406 49.1991 71.3717H55.6601C54.5713 68.9271 53.5631 66.6661 52.34 63.9125Z" fill="#F3F3F3"/>
<path d="M103.988 75.1685V78.8041H89.8245V60.3844H102.572V63.8633H93.4268V67.6511H101.904V71.3762H93.4224V75.1685H103.988Z" fill="#F3F3F3"/>
<path d="M21.8452 60.2949H25.2549V66.8273H34.8837V60.3396H38.3606V78.7504H35.0405V70.8748H25.367V78.7862H21.8452V60.2949Z" fill="#F3F3F3"/>
<path d="M17.6962 65.3945C16.8359 66.0213 15.9533 66.6661 15.0795 67.3063C12.0552 63.4155 8.5872 62.6902 5.70619 65.2423C3.09402 67.557 3.01336 71.5642 5.53144 73.9909C8.287 76.646 11.8759 76.0147 14.981 72.1911C15.8502 72.8089 16.7329 73.4358 17.5887 74.0447C15.9577 77.8504 11.8939 79.9279 7.84791 79.1354C3.33597 78.2534 0.141312 74.3805 0.114429 69.7554C0.0875452 65.2467 3.23739 61.1948 7.48049 60.2724C11.7057 59.3546 15.8278 61.3828 17.6917 65.399L17.6962 65.3945Z" fill="#F3F3F3"/>
<path d="M123.12 75.2536V78.7817H109.467C109.423 78.128 109.346 77.5504 109.346 76.9729C109.337 71.4747 109.342 65.9766 109.342 60.3486H112.837V75.2536H123.12Z" fill="#F3F3F3"/>
</svg>
