<svg width="131" height="86" viewBox="0 0 131 86" fill="none" xmlns="http://www.w3.org/2000/svg">
<path d="M27.3338 61.47C27.401 44.7338 44.2301 33.433 59.7553 39.6341C60.6514 39.9923 61.9328 39.9878 62.8334 39.6341C72.6996 35.7254 83.9324 38.7387 90.3845 47.1336C96.8679 55.5689 96.8992 67.3622 90.4651 75.8243C84.0445 84.264 72.8923 87.3176 62.9589 83.4626C61.9866 83.0865 60.6155 83.0776 59.6432 83.4537C44.0195 89.5473 27.2666 78.1838 27.3338 61.47ZM66.1983 79.442C73.3807 82.2448 82.3956 79.1868 87.1316 72.5111C92.1588 65.428 91.7645 55.9181 86.1682 49.2872C81.2441 43.4533 72.1665 40.834 66.4896 43.61C71.7318 49.9902 72.9281 52.0273 73.1925 55.0361C70.4325 55.5779 68.4789 55.2241 67.0855 52.1079C65.9609 49.6006 63.5324 47.6799 61.6998 45.5128C58.2677 47.756 56.0319 50.326 54.6519 53.5452C54.0829 54.866 53.3525 55.3719 51.9635 55.2062C51.0943 55.1033 50.1982 55.1883 49.0512 55.1883C49.4231 54.1003 49.5664 53.187 50.019 52.4527C51.9008 49.3857 53.8723 46.3725 55.781 43.3861C49.2528 40.7311 40.0228 43.9503 35.3003 50.7692C30.2417 58.0672 31.0393 67.9084 37.0522 74.4901C41.9226 79.8225 51.1077 82.0433 56.126 79.3077C51.5693 75.0318 48.8271 69.9053 48.3701 63.6281H59.24V68.1681H54.047C55.4987 71.8261 57.5687 74.5662 60.4587 76.675C60.8037 76.9257 61.543 77.0959 61.8208 76.9033C64.9169 74.7453 67.1258 71.9022 68.5999 67.9845H63.3263V63.5923H74.2858C73.6719 69.9724 70.9522 75.0811 66.1983 79.4375V79.442Z" fill="#F3F3F3"/>
<path d="M25.3938 9.25099C21.9168 3.69911 18.5295 1.83654 13.5068 3.04542C8.42582 4.26773 5.15052 8.58387 4.96682 14.2342C4.86825 17.2967 5.46416 20.1577 7.16678 22.7412C9.89545 26.8827 14.6852 28.4363 19.3315 26.7305C20.5637 26.2782 21.4195 25.6738 21.182 24.156C21.07 23.4262 21.1731 22.6695 21.1686 21.9218C21.1551 19.8936 21.7466 17.5788 18.7983 16.755H28.2568C25.1697 17.8922 25.9583 20.4443 25.9404 22.6203C25.9045 26.4663 25.8373 26.6678 22.1991 27.7871C18.301 28.987 14.3581 29.5064 10.3166 28.3468C3.22387 26.3051 -0.391949 21.2636 0.0337058 13.8716C0.414555 7.25858 4.94442 2.18577 11.97 1.54104C15.653 1.20524 19.466 2.11861 23.2028 2.59769C24.9591 2.82155 25.6536 3.99461 25.4251 5.79897C25.2817 6.93173 25.3982 8.09584 25.3982 9.24651L25.3938 9.25099Z" fill="#F3F3F3"/>
<path d="M58.8547 1.84103C56.4307 2.57979 56.1798 4.33937 56.2201 6.45267C56.2963 10.3256 56.2246 14.2029 56.1708 18.0803C56.0767 24.4963 51.1705 29.2064 44.6288 29.1975C38.1947 29.1885 33.4319 24.55 33.3333 18.1161C33.2706 14.1671 33.3288 10.2181 33.3244 6.26462C33.3244 4.26177 32.2923 2.78127 30.2283 1.82312H40.8203C39.9108 2.54845 38.7862 3.032 38.4143 3.85582C37.9886 4.79606 38.1903 6.04076 38.1858 7.15561C38.1679 11.1807 38.1544 15.2058 38.1768 19.2309C38.2037 24.0038 41.3939 27.5767 45.8027 27.8274C50.0055 28.0647 54.1635 24.3664 54.3517 19.7637C54.5533 14.7805 54.4279 9.77484 54.1814 4.79158C54.1321 3.78419 52.891 2.83052 52.192 1.84103H58.8547Z" fill="#F3F3F3"/>
<path d="M85.774 9.06296C82.4091 3.62302 79.5998 1.94402 74.7473 2.73203C70.0875 3.4887 66.2656 7.32128 65.7951 12.6C65.5487 15.3894 65.9027 18.5056 66.9511 21.0801C70.0651 28.7318 78.8157 29.8333 84.0983 23.4576C85.0258 22.3382 85.7203 21.0219 86.8538 19.2936C86.8538 21.2502 86.93 22.7009 86.8135 24.1336C86.7732 24.6351 86.3834 25.2888 85.9577 25.544C79.9762 29.1303 73.793 30.4422 67.3006 26.8737C58.7203 22.1591 58.0661 9.25549 66.1939 3.75734C72.0993 -0.236434 78.3094 0.354572 84.5777 2.93351C86.1056 3.56481 85.7516 4.80951 85.774 5.95122C85.7964 6.98549 85.7785 8.02422 85.7785 9.06296H85.774Z" fill="#F3F3F3"/>
<path d="M116.018 9.21964C113.54 4.5677 110.646 2.42307 106.573 2.56186C101.918 2.71857 98.0597 5.5751 96.5184 10.1241C95.2191 13.9656 95.4431 17.7713 97.186 21.4338C100.596 28.593 108.885 29.7168 114.055 23.7038C115.055 22.5397 115.803 21.1562 116.65 19.8981C117.931 23.5112 117.272 25.2261 113.876 26.7976C109.718 28.7229 105.471 29.7168 100.883 28.2885C94.4305 26.2827 90.7743 21.6621 90.7295 15.2013C90.6847 8.51222 94.3812 3.5021 100.865 1.60372C105.596 0.220225 110.189 0.945551 114.58 2.93348C115.243 3.23346 115.816 4.29906 115.946 5.09155C116.17 6.43475 116.009 7.84063 116.009 9.21964H116.018Z" fill="#F3F3F3"/>
<path d="M130.956 28.3871H120.346L119.75 27.7961C123.76 27.4916 122.985 24.85 122.994 22.6248C123.017 17.0371 122.945 11.4494 123.03 5.86615C123.061 3.90956 122.721 2.43652 120.467 1.85895H130.387C127.95 2.5798 127.762 4.33938 127.797 6.4482C127.896 11.8837 127.829 17.3236 127.829 22.7591C127.829 25.1142 128.87 26.9887 130.952 28.3826L130.956 28.3871Z" fill="#F3F3F3"/>
</svg>
