<svg width="133" height="133" viewBox="0 0 133 133" fill="none" xmlns="http://www.w3.org/2000/svg">
<path d="M128.254 32.3898C128.254 14.7098 113.874 0.319824 96.1835 0.319824C86.6735 0.319824 77.6435 4.59982 71.5735 11.8698C67.7235 8.57982 62.7935 6.72982 57.7035 6.72982C45.9135 6.72982 36.3235 16.3198 36.3235 28.1098C36.3235 29.1198 36.4035 30.1298 36.5535 31.1698C27.6335 33.8598 21.3535 42.1398 21.3535 51.6298C21.3535 63.4198 30.9435 73.0098 42.7335 73.0098C46.8335 73.0098 50.8035 71.8298 54.2235 69.6398C56.4135 76.6298 62.8935 81.5598 70.5235 81.5598C79.9535 81.5598 87.6235 73.8898 87.6235 64.4598C87.6235 64.0698 87.6135 63.6798 87.5835 63.2798C90.3735 64.0598 93.2535 64.4598 96.1735 64.4598C113.853 64.4598 128.243 50.0798 128.243 32.3898H128.254ZM96.1835 60.1798C92.5535 60.1798 89.0135 59.4798 85.6535 58.0998C84.8835 57.7798 84.0135 57.9398 83.4035 58.4998C82.7935 59.0598 82.5535 59.9098 82.8035 60.6998C83.1735 61.9198 83.3635 63.1798 83.3635 64.4498C83.3635 71.5198 77.6135 77.2798 70.5335 77.2798C63.8835 77.2798 58.3935 72.2898 57.7735 65.6698C57.6935 64.8598 57.1735 64.1698 56.4135 63.8798C56.1635 63.7798 55.9035 63.7398 55.6435 63.7398C55.1235 63.7398 54.6135 63.9298 54.2135 64.2898C51.0535 67.1498 46.9835 68.7298 42.7535 68.7298C33.3235 68.7298 25.6535 61.0598 25.6535 51.6298C25.6535 43.4598 31.4635 36.4098 39.4735 34.8498C40.0535 34.7398 40.5535 34.3898 40.8735 33.8998C41.1835 33.4098 41.2835 32.7998 41.1435 32.2398C40.7935 30.8398 40.6235 29.4498 40.6235 28.1198C40.6235 18.6898 48.2935 11.0198 57.7235 11.0198C62.5235 11.0198 66.9735 12.9698 70.2635 16.5198C70.7035 16.9898 71.3035 17.2298 71.9735 17.1998C72.6135 17.1598 73.2035 16.8298 73.5735 16.3098C78.7935 8.97982 87.2535 4.60982 96.2035 4.60982C111.524 4.60982 123.993 17.0798 123.993 32.3998C123.993 47.7198 111.524 60.1898 96.2035 60.1898L96.1835 60.1798Z" fill="#F9F7EF"/>
<path d="M76.9439 23.8398C71.0539 23.8398 66.2539 28.6398 66.2539 34.5298C66.2539 40.4198 71.0539 45.2198 76.9439 45.2198C82.8339 45.2198 87.6339 40.4298 87.6339 34.5298C87.6339 28.6298 82.8439 23.8398 76.9439 23.8398ZM76.9439 40.9398C73.4039 40.9398 70.5339 38.0598 70.5339 34.5298C70.5339 30.9998 73.4139 28.1198 76.9439 28.1198C80.4739 28.1198 83.3539 30.9998 83.3539 34.5298C83.3539 38.0598 80.4739 40.9398 76.9439 40.9398Z" fill="#F9F7EF"/>
<path d="M55.563 28.1198C57.403 28.1198 59.153 28.9098 60.373 30.2898L63.5831 27.4598C61.5531 25.1598 58.633 23.8398 55.563 23.8398C49.673 23.8398 44.873 28.6398 44.873 34.5298C44.873 40.4198 49.673 45.2198 55.563 45.2198C58.633 45.2198 61.5531 43.8998 63.5831 41.5998L60.373 38.7698C59.153 40.1498 57.403 40.9398 55.563 40.9398C52.023 40.9398 49.153 38.0598 49.153 34.5298C49.153 30.9998 52.033 28.1198 55.563 28.1198Z" fill="#F9F7EF"/>
<path d="M98.3228 38.7998H89.7728C88.5928 38.7998 87.6328 39.7598 87.6328 40.9398V45.2198H91.9128V43.0798H96.1928V44.1498L88.5028 49.9198C87.9628 50.3198 87.6428 50.9598 87.6428 51.6298V53.7698C87.6428 54.9498 88.6028 55.9098 89.7828 55.9098H100.473V51.6298H93.3428L99.6128 46.9298C100.153 46.5298 100.463 45.8898 100.463 45.2198V40.9398C100.463 39.7598 99.5028 38.7998 98.3228 38.7998Z" fill="#F9F7EF"/>
<path d="M55.5629 83.7002C46.1329 83.7002 38.4629 91.3702 38.4629 100.8C38.4629 110.23 46.1329 117.9 55.5629 117.9C64.9929 117.9 72.6629 110.23 72.6629 100.8C72.6629 91.3702 64.9929 83.7002 55.5629 83.7002ZM55.5629 113.63C48.4929 113.63 42.7329 107.88 42.7329 100.8C42.7329 93.7202 48.4829 87.9702 55.5629 87.9702C62.6429 87.9702 68.3929 93.7202 68.3929 100.8C68.3929 107.88 62.6429 113.63 55.5629 113.63Z" fill="#F9F7EF"/>
<path d="M83.3531 111.49C77.4631 111.49 72.6631 116.29 72.6631 122.18C72.6631 128.07 77.4631 132.87 83.3531 132.87C89.2431 132.87 94.0431 128.08 94.0431 122.18C94.0431 116.28 89.2531 111.49 83.3531 111.49ZM83.3531 128.59C79.8131 128.59 76.9431 125.71 76.9431 122.18C76.9431 118.65 79.8231 115.77 83.3531 115.77C86.8831 115.77 89.7631 118.65 89.7631 122.18C89.7631 125.71 86.8831 128.59 83.3531 128.59Z" fill="#F9F7EF"/>
<path d="M131.893 84.32L116.933 69.36C116.093 68.52 114.743 68.52 113.913 69.36L98.9531 84.32C98.3431 84.93 98.163 85.85 98.493 86.65C98.823 87.45 99.6031 87.97 100.463 87.97H106.873V130.72C106.873 131.9 107.833 132.86 109.013 132.86H121.843C123.023 132.86 123.983 131.9 123.983 130.72V87.97H130.393C131.253 87.97 132.033 87.45 132.373 86.65C132.703 85.85 132.523 84.93 131.913 84.32H131.893ZM121.833 83.69C120.653 83.69 119.693 84.65 119.693 85.83V128.58H111.143V85.83C111.143 84.65 110.183 83.69 109.003 83.69H105.613L115.413 73.89L125.213 83.69H121.823H121.833Z" fill="#F9F7EF"/>
<path d="M18.603 80.0499C17.763 79.2099 16.413 79.2099 15.583 80.0499L0.622959 95.0099C0.0129585 95.6199 -0.167033 96.5399 0.162967 97.3399C0.492967 98.1399 1.27297 98.6599 2.13297 98.6599H8.54297V130.73C8.54297 131.91 9.50296 132.87 10.683 132.87H23.513C24.693 132.87 25.653 131.91 25.653 130.73V98.6599H32.063C32.923 98.6599 33.703 98.1399 34.043 97.3399C34.373 96.5399 34.193 95.6199 33.583 95.0099L18.623 80.0499H18.603ZM23.503 94.3899C22.323 94.3899 21.363 95.3499 21.363 96.5299V128.6H12.813V96.5299C12.813 95.3499 11.853 94.3899 10.673 94.3899H7.28296L17.083 84.5899L26.883 94.3899H23.493H23.503Z" fill="#F9F7EF"/>
</svg>
