<svg width="125" height="125" viewBox="0 0 125 125" fill="none" xmlns="http://www.w3.org/2000/svg">
<path d="M41.68 33.8799C40.9 33.0999 39.73 33.0999 38.95 33.8799L31.35 41.4799L29.4 39.5299C28.62 38.7499 27.45 38.7499 26.67 39.5299C25.89 40.3099 25.89 41.4799 26.67 42.2599L29.98 45.5699C30.37 45.9599 30.95 46.1499 31.34 46.1499C31.92 46.1499 32.31 45.9599 32.7 45.5699L41.66 36.6099C42.44 35.8299 42.44 34.4699 41.66 33.8799H41.68Z" fill="#F9F7EF"/>
<path d="M38.95 51.4102L31.35 59.0102L29.4 57.0602C28.62 56.2802 27.45 56.2802 26.67 57.0602C25.89 57.8402 25.89 59.0102 26.67 59.7902L29.98 63.1002C30.37 63.4902 30.95 63.6802 31.34 63.6802C31.92 63.6802 32.31 63.4902 32.7 63.1002L41.66 54.1402C42.44 53.3602 42.44 52.1902 41.66 51.4102C40.88 50.6302 39.52 50.6302 38.93 51.4102H38.95Z" fill="#F9F7EF"/>
<path d="M75.95 66.21C74.78 66.21 74 66.99 74 68.16C74 69.33 74.78 70.11 75.95 70.11H79.85C81.02 70.11 81.8 69.33 81.8 68.16C81.8 66.99 81.02 66.21 79.85 66.21H75.95Z" fill="#F9F7EF"/>
<path d="M87.64 66.21C86.47 66.21 85.69 66.99 85.69 68.16C85.69 69.33 86.47 70.11 87.64 70.11H99.33V97.96L82.39 104.78L62.91 83.36L50.06 89.79C47.92 90.76 45.58 90.96 43.44 90.18L40.91 89.4C40.52 89.21 40.33 88.82 40.33 88.62C40.33 88.42 40.33 88.04 40.72 87.84L57.27 75.77C57.46 75.77 57.85 75.58 58.05 75.38C58.05 75.38 58.05 75.19 58.24 75.19L65.25 70.13H68.17C69.34 70.13 70.12 69.35 70.12 68.18C70.12 67.01 69.34 66.23 68.17 66.23H63.69L56.68 71.29L51.42 66.23H0V101.29H11.69C12.86 101.29 13.64 100.51 13.64 99.34C13.64 98.17 12.86 97.39 11.69 97.39H3.9V70.12H23.38V97.39H19.48C18.31 97.39 17.53 98.17 17.53 99.34C17.53 100.51 18.31 101.29 19.48 101.29H24.74L51.42 122.32C52.78 123.49 54.34 124.07 56.09 124.07C57.06 124.07 58.04 123.88 58.82 123.49C59.6 123.1 60.18 122.52 60.77 122.13L62.91 124.27C63.0367 124.397 63.1667 124.46 63.3 124.46L63.49 124.65H64.27C64.46 124.65 64.66 124.65 65.05 124.46C65.05 124.46 65.24 124.46 65.24 124.27C65.43 124.27 65.43 124.08 65.63 124.08L82.96 108.69L101.85 101.09H124.64V66.23H87.64V66.21ZM76.73 109.06L59.79 92.12C59.01 91.34 57.84 91.34 57.06 92.12C56.28 92.9 56.28 94.07 57.06 94.85L73.81 111.6L70.5 114.52L53.95 97.97C53.17 97.19 52 97.19 51.22 97.97C50.44 98.75 50.44 99.92 51.22 100.7L67.58 117.06L64.27 119.98L48.11 103.82C47.33 103.04 46.16 103.04 45.38 103.82C44.6 104.6 44.6 105.77 45.38 106.55L58.04 119.21C57.65 119.4 57.46 119.6 57.07 119.79C56.1 120.18 54.73 119.98 53.76 119.21L27.27 98.37V70.13H49.86L53.37 73.64L38.37 84.74C37.01 85.71 36.23 87.66 36.42 89.41C36.61 91.16 37.98 92.72 39.73 93.31L42.07 94.09C45.19 95.06 48.69 94.87 51.81 93.31L62.13 88.25L79.27 107.14L76.74 109.09L76.73 109.06ZM120.74 97.37H103.21V70.1H120.74V97.37Z" fill="#F9F7EF"/>
<path d="M42.85 21.4202C42.85 20.2502 42.07 19.4702 40.9 19.4702H38.95C37.78 19.4702 37 20.2502 37 21.4202C37 22.5902 37.78 23.3702 38.95 23.3702H40.9C42.07 23.3702 42.85 22.5902 42.85 21.4202Z" fill="#F9F7EF"/>
<path d="M46.74 23.36H48.69C49.86 23.36 50.64 22.58 50.64 21.41C50.64 20.24 49.86 19.46 48.69 19.46H46.74C45.57 19.46 44.79 20.24 44.79 21.41C44.79 22.58 45.57 23.36 46.74 23.36Z" fill="#F9F7EF"/>
<path d="M31.16 23.36H33.11C34.28 23.36 35.06 22.58 35.06 21.41C35.06 20.24 34.28 19.46 33.11 19.46H31.16C29.99 19.46 29.21 20.24 29.21 21.41C29.21 22.58 29.99 23.36 31.16 23.36Z" fill="#F9F7EF"/>
<path d="M17.53 64.26C18.7 64.26 19.48 63.29 19.48 62.31V3.89H85.7V21.42C85.7 22.59 86.48 23.37 87.65 23.37H105.18V60.37C105.18 61.54 105.96 62.32 107.13 62.32C108.3 62.32 109.08 61.35 109.08 60.37V21.42C109.08 20.84 108.89 20.45 108.5 20.06L89.02 0.580001C88.63 0.190001 88.24 0 87.66 0H17.53C16.36 0 15.58 0.970001 15.58 1.95V62.32C15.58 63.49 16.36 64.27 17.53 64.27V64.26ZM89.59 6.81L102.25 19.47H89.59V6.81Z" fill="#F9F7EF"/>
<path d="M58.43 13.6302C58.43 12.4602 57.65 11.6802 56.48 11.6802H31.16C29.99 11.6802 29.21 12.4602 29.21 13.6302C29.21 14.8002 29.99 15.5802 31.16 15.5802H56.48C57.65 15.5802 58.43 14.8002 58.43 13.6302Z" fill="#F9F7EF"/>
<path d="M77.9 46.7301C79.07 46.7301 79.85 45.9501 79.85 44.7801C79.85 43.6101 79.07 42.8301 77.9 42.8301H75.95C74.78 42.8301 74 43.6101 74 44.7801C74 45.9501 74.78 46.7301 75.95 46.7301H77.9Z" fill="#F9F7EF"/>
<path d="M85.69 46.7301C86.86 46.7301 87.64 45.9501 87.64 44.7801C87.64 43.6101 86.86 42.8301 85.69 42.8301H83.74C82.57 42.8301 81.79 43.6101 81.79 44.7801C81.79 45.9501 82.57 46.7301 83.74 46.7301H85.69Z" fill="#F9F7EF"/>
<path d="M70.11 46.7301C71.28 46.7301 72.06 45.9501 72.06 44.7801C72.06 43.6101 71.28 42.8301 70.11 42.8301H68.16C66.99 42.8301 66.21 43.6101 66.21 44.7801C66.21 45.9501 66.99 46.7301 68.16 46.7301H70.11Z" fill="#F9F7EF"/>
<path d="M93.48 35.0498H52.58C51.41 35.0498 50.63 35.8298 50.63 36.9998C50.63 38.1698 51.41 38.9498 52.58 38.9498H93.48C94.65 38.9498 95.43 38.1698 95.43 36.9998C95.43 35.8298 94.65 35.0498 93.48 35.0498Z" fill="#F9F7EF"/>
<path d="M52.58 46.7301H62.32C63.49 46.7301 64.27 45.9501 64.27 44.7801C64.27 43.6101 63.49 42.8301 62.32 42.8301H52.58C51.41 42.8301 50.63 43.6101 50.63 44.7801C50.63 45.9501 51.41 46.7301 52.58 46.7301Z" fill="#F9F7EF"/>
<path d="M95.43 56.47C95.43 55.3 94.65 54.52 93.48 54.52H52.58C51.41 54.52 50.63 55.3 50.63 56.47C50.63 57.64 51.41 58.42 52.58 58.42H93.48C94.65 58.42 95.43 57.64 95.43 56.47Z" fill="#F9F7EF"/>
</svg>
