<svg width="138" height="138" viewBox="0 0 138 138" fill="none" xmlns="http://www.w3.org/2000/svg">
<path d="M137.65 70.8599L115.33 42.9599L109.22 50.5999C102.15 34.7599 86.38 24.3599 68.83 24.3599C52.65 24.3599 37.87 33.3899 30.17 47.1599C30.2 44.7099 30.35 42.2499 30.66 39.7899C30.87 38.1199 30.35 36.4499 29.24 35.1899C28.13 33.9299 26.53 33.2099 24.85 33.2099C22.42 33.2099 20.22 34.7399 19.37 37.0099L18.96 38.0999C15.53 47.2399 13.04 56.7699 11.56 66.4299H0L22.32 94.3299L28.41 86.7099C31.85 94.3399 37.42 100.92 44.46 105.58V106.29H40.03V110.72H44.46V115.15H40.03V119.58H44.46V124.01H40.03V128.44H44.46V137.3H93.18V128.44H97.61V124.01H93.18V119.58H97.61V115.15H93.18V110.72H97.61V106.29H93.18V105.58C99.18 101.62 104.04 96.2899 107.48 90.1099C107.45 92.5699 107.3 95.0299 106.99 97.4999C106.78 99.1699 107.3 100.84 108.41 102.1C109.52 103.36 111.12 104.08 112.8 104.08C115.23 104.08 117.43 102.55 118.28 100.28L118.69 99.1899C122.12 90.0499 124.61 80.5199 126.09 70.8599H137.64H137.65ZM22.32 87.2399L9.20999 70.8599H15.38L15.72 68.5399C17.13 58.6799 19.61 48.9699 23.11 39.6599L23.52 38.5699C23.73 38.0199 24.26 37.6499 24.85 37.6499C25.41 37.6499 25.76 37.9499 25.92 38.1299C26.08 38.3099 26.34 38.6899 26.27 39.2499C25.1 48.5899 25.82 57.9099 28.41 66.9599L29.53 70.8599H35.45L22.34 87.2399H22.32ZM88.75 132.86H48.89V128.43H88.75V132.86ZM88.75 115.14H84.32V119.57H88.75V124H48.89V119.57H79.89V115.14H48.89V110.71H88.75V115.14ZM89.8 102.48L88.75 103.13V106.28H71.03V92.9899H73.24C80.57 92.9899 86.53 87.0299 86.53 79.6999C86.53 72.3699 80.57 66.4099 73.24 66.4099H64.38C59.49 66.4099 55.52 62.4399 55.52 57.5499C55.52 52.6599 59.49 48.6899 64.38 48.6899H73.24C78.13 48.6899 82.1 52.6599 82.1 57.5499H86.53C86.53 50.2199 80.57 44.2599 73.24 44.2599H71.03V37.6199H66.6V44.2599H64.39C57.06 44.2599 51.1 50.2199 51.1 57.5499C51.1 64.8799 57.06 70.8399 64.39 70.8399H73.25C78.14 70.8399 82.11 74.8099 82.11 79.6999C82.11 84.5899 78.14 88.5599 73.25 88.5599H64.39C59.5 88.5599 55.53 84.5899 55.53 79.6999H51.1C51.1 87.0299 57.06 92.9899 64.39 92.9899H66.6V106.28H48.88V103.13L47.83 102.48C40.38 97.8499 34.67 90.8699 31.57 82.7399L44.63 66.4199H32.83L32.63 65.7299C31.79 62.7899 31.18 59.8199 30.76 56.8299C35.89 40.2899 51.46 28.7699 68.81 28.7699C86.16 28.7699 100.18 39.0899 106.03 54.5399L92.99 70.8399H104.79L104.99 71.5299C105.83 74.4599 106.44 77.4199 106.86 80.4099C104.01 89.5599 97.98 97.3899 89.79 102.47L89.8 102.48ZM121.93 68.7399C120.52 78.5999 118.04 88.3099 114.54 97.6199L114.13 98.7099C113.92 99.2599 113.39 99.6299 112.8 99.6299C112.24 99.6299 111.89 99.3299 111.73 99.1499C111.57 98.9699 111.31 98.5899 111.38 98.0299C112.55 88.6899 111.83 79.3699 109.24 70.3199L108.12 66.4199H102.2L115.31 50.0399L128.42 66.4199H122.25L121.91 68.7399H121.93Z" fill="#F9F7EF"/>
<path d="M126.4 0H121.97V6.64H126.4V0Z" fill="#F9F7EF"/>
<path d="M116.357 2.33436L113.224 5.46631L117.918 10.1623L121.051 7.03036L116.357 2.33436Z" fill="#F9F7EF"/>
<path d="M117.54 11.0698H110.9V15.4998H117.54V11.0698Z" fill="#F9F7EF"/>
<path d="M117.919 16.4162L113.224 21.1113L116.356 24.2438L121.052 19.5486L117.919 16.4162Z" fill="#F9F7EF"/>
<path d="M126.4 19.9302H121.97V26.5702H126.4V19.9302Z" fill="#F9F7EF"/>
<path d="M130.45 16.4345L127.317 19.5664L132.011 24.2624L135.144 21.1305L130.45 16.4345Z" fill="#F9F7EF"/>
<path d="M137.47 11.0698H130.83V15.4998H137.47V11.0698Z" fill="#F9F7EF"/>
<path d="M132.005 2.33021L127.31 7.02539L130.442 10.1579L135.138 5.4627L132.005 2.33021Z" fill="#F9F7EF"/>
<path d="M15.67 99.6499H11.24V106.29H15.67V99.6499Z" fill="#F9F7EF"/>
<path d="M5.63998 101.994L2.50696 105.126L7.20133 109.822L10.3344 106.69L5.63998 101.994Z" fill="#F9F7EF"/>
<path d="M6.80998 110.72H0.169983V115.15H6.80998V110.72Z" fill="#F9F7EF"/>
<path d="M7.19446 116.068L2.49927 120.763L5.63175 123.895L10.3269 119.2L7.19446 116.068Z" fill="#F9F7EF"/>
<path d="M15.67 119.58H11.24V126.22H15.67V119.58Z" fill="#F9F7EF"/>
<path d="M19.7333 116.08L16.6003 119.212L21.2946 123.908L24.4277 120.776L19.7333 116.08Z" fill="#F9F7EF"/>
<path d="M26.74 110.72H20.1V115.15H26.74V110.72Z" fill="#F9F7EF"/>
<path d="M21.2774 101.974L16.5822 106.669L19.7147 109.802L24.4099 105.107L21.2774 101.974Z" fill="#F9F7EF"/>
<path d="M40.03 13.29H35.6V17.72H40.03V13.29Z" fill="#F9F7EF"/>
<path d="M40.03 22.1401H35.6V26.5701H40.03V22.1401Z" fill="#F9F7EF"/>
<path d="M44.46 17.7202H40.03V22.1502H44.46V17.7202Z" fill="#F9F7EF"/>
<path d="M35.6 17.7202H31.17V22.1502H35.6V17.7202Z" fill="#F9F7EF"/>
<path d="M133.04 97.4399H128.61V101.87H133.04V97.4399Z" fill="#F9F7EF"/>
<path d="M133.04 106.29H128.61V110.72H133.04V106.29Z" fill="#F9F7EF"/>
<path d="M137.47 101.87H133.04V106.3H137.47V101.87Z" fill="#F9F7EF"/>
<path d="M128.61 101.87H124.18V106.3H128.61V101.87Z" fill="#F9F7EF"/>
</svg>
