<svg width="94" height="91" viewBox="0 0 94 91" fill="none" xmlns="http://www.w3.org/2000/svg">
<g clip-path="url(#clip0_688_311)">
<path d="M84.2526 79.9469V89.8321H53.713V79.6716" fill="#F9D97D"/>
<path d="M53.713 74.8488V66.0367C53.713 65.2389 54.3596 64.5886 55.1569 64.5886H66.3509" fill="#F9D97D"/>
<path d="M71.3766 64.5886H82.8126C83.6099 64.5886 84.2525 65.2389 84.2525 66.0367V74.5695" fill="#F9D97D"/>
<path d="M71.3767 64.5887C72.6262 63.7669 73.4513 62.3467 73.4513 60.7311C73.4513 58.0823 71.2299 55.9561 68.5603 56.1276C66.2874 56.2752 64.4389 58.1302 64.2842 60.412C64.1692 62.1593 65.0141 63.711 66.3469 64.5887" fill="#F9D97D"/>
<path d="M53.713 79.6717C52.8641 81.0639 51.3012 81.9654 49.536 81.8657C47.2433 81.7341 45.367 79.8671 45.2242 77.5614C45.0537 74.8767 47.1679 72.6467 49.8018 72.6467C51.4559 72.6467 52.9077 73.5283 53.713 74.8527" fill="#F9D97D"/>
<path d="M84.2526 79.9469C85.1847 81.2514 86.7754 82.0492 88.5366 81.8418C90.631 81.5944 92.3129 79.8871 92.5429 77.7808C92.8444 75.0003 90.6865 72.6467 87.9812 72.6467C86.4461 72.6467 85.0856 73.4047 84.2526 74.5735" stroke="#083B5A" stroke-miterlimit="10"/>
<path d="M56.0691 68.5219L53.1695 76.4085L52.7173 79.3246C52.7173 79.3246 56.4341 82.2886 56.5689 82.3324C56.7038 82.3763 66.5412 83.7007 70.258 84.339C73.9748 84.9773 83.4948 82.0492 83.5861 81.8697C83.6773 81.6902 86.4421 78.5467 86.4421 78.5467L85.8074 74.5695C85.8074 74.5695 82.408 70.9354 82.0906 70.0697C81.7733 69.2041 76.9696 65.8292 76.9696 65.8292L70.4405 63.3679L63.6852 65.3745L56.0691 68.5219Z" fill="#F9D97D"/>
<path d="M87.7788 81.3352C90.1076 81.3352 91.9954 79.4367 91.9954 77.0947C91.9954 74.7528 90.1076 72.8542 87.7788 72.8542C85.4501 72.8542 83.5623 74.7528 83.5623 77.0947C83.5623 79.4367 85.4501 81.3352 87.7788 81.3352Z" fill="#F9D97D"/>
<path d="M60.5754 48.9791H88.2986C89.1316 48.9791 89.8059 48.3009 89.8059 47.4632V2.11427C89.8059 1.27655 89.1316 0.598389 88.2986 0.598389H2.17775C1.34475 0.598389 0.67041 1.27655 0.67041 2.11427V47.4632C0.67041 48.3009 1.34475 48.9791 2.17775 48.9791H30.0319" stroke="#F2F2F2" stroke-width="3" stroke-miterlimit="10" stroke-linecap="round"/>
<path d="M30.0319 48.9791V38.8147" stroke="#F2F2F2" stroke-width="3" stroke-miterlimit="10" stroke-linecap="round"/>
<path d="M60.5754 48.9792V39.094" stroke="#F2F2F2" stroke-width="3" stroke-miterlimit="10" stroke-linecap="round"/>
<path d="M30.0319 33.9957V25.1837C30.0319 24.3858 30.6784 23.7356 31.4757 23.7356H42.6697" stroke="#F2F2F2" stroke-width="3" stroke-miterlimit="10" stroke-linecap="round"/>
<path d="M47.6956 23.7317H59.1315C59.9288 23.7317 60.5714 24.3819 60.5714 25.1798V33.7126" stroke="#F2F2F2" stroke-width="3" stroke-miterlimit="10" stroke-linecap="round"/>
<path d="M47.6955 23.7315C48.945 22.9097 49.7701 21.4896 49.7701 19.8739C49.7701 17.2251 47.5488 15.0989 44.8792 15.2704C42.6063 15.418 40.7578 17.273 40.6031 19.5548C40.4881 21.3021 41.333 22.8539 42.6658 23.7315" stroke="#F2F2F2" stroke-width="3" stroke-miterlimit="10" stroke-linecap="round"/>
<path d="M30.0319 38.8147C29.1831 40.2069 27.6202 41.1085 25.855 41.0088C23.5623 40.8771 21.686 39.0102 21.5432 36.7045C21.3726 34.0197 23.4869 31.7898 26.1208 31.7898C27.7749 31.7898 29.2267 32.6714 30.0319 33.9958" stroke="#F2F2F2" stroke-width="3" stroke-miterlimit="10" stroke-linecap="round"/>
<path d="M60.5754 39.0939C61.5076 40.3983 63.0983 41.1962 64.8595 40.9887C66.9539 40.7414 68.6358 39.0341 68.8658 36.9278C69.1673 34.1473 67.0094 31.7937 64.3041 31.7937C62.769 31.7937 61.4084 32.5516 60.5754 33.7205" stroke="#F2F2F2" stroke-width="3" stroke-miterlimit="10" stroke-linecap="round"/>
<path d="M84.2526 79.9469V89.8321H53.713V79.6716" stroke="#083B5A" stroke-width="3" stroke-miterlimit="10" stroke-linecap="round"/>
<path d="M53.713 74.8488V66.0367C53.713 65.2389 54.3596 64.5886 55.1569 64.5886H66.3509" stroke="#083B5A" stroke-width="3" stroke-miterlimit="10" stroke-linecap="round"/>
<path d="M71.3766 64.5886H82.8126C83.6099 64.5886 84.2525 65.2389 84.2525 66.0367V74.5695" stroke="#083B5A" stroke-width="3" stroke-miterlimit="10" stroke-linecap="round"/>
<path d="M71.3767 64.5887C72.6262 63.7669 73.4513 62.3467 73.4513 60.7311C73.4513 58.0823 71.2299 55.9561 68.5603 56.1276C66.2874 56.2752 64.4389 58.1302 64.2842 60.412C64.1692 62.1593 65.0141 63.711 66.3469 64.5887" stroke="#083B5A" stroke-width="3" stroke-miterlimit="10" stroke-linecap="round"/>
<path d="M53.713 79.6717C52.8641 81.0639 51.3012 81.9654 49.536 81.8657C47.2433 81.7341 45.367 79.8671 45.2242 77.5614C45.0537 74.8767 47.1679 72.6467 49.8018 72.6467C51.4559 72.6467 52.9077 73.5283 53.713 74.8527" stroke="#083B5A" stroke-width="3" stroke-miterlimit="10" stroke-linecap="round"/>
<path d="M84.2526 79.9469C85.1847 81.2514 86.7754 82.0492 88.5366 81.8418C90.631 81.5944 92.3129 79.8871 92.5429 77.7808C92.8444 75.0003 90.6865 72.6467 87.9812 72.6467C86.4461 72.6467 85.0856 73.4047 84.2526 74.5735" stroke="#083B5A" stroke-width="3" stroke-miterlimit="10" stroke-linecap="round"/>
<path d="M45.1212 34.1394V51.6599" stroke="#F2F2F2" stroke-width="3" stroke-miterlimit="10" stroke-linecap="round"/>
<path d="M51.3925 39.377L45.494 34.1392C45.2798 33.9477 44.9585 33.9477 44.7483 34.1392L39.0839 39.1696" stroke="#F2F2F2" stroke-width="3" stroke-miterlimit="10" stroke-linecap="round"/>
<path d="M45.1211 56.6344C45.6929 56.6344 46.1564 56.1682 46.1564 55.5932C46.1564 55.0182 45.6929 54.552 45.1211 54.552C44.5493 54.552 44.0858 55.0182 44.0858 55.5932C44.0858 56.1682 44.5493 56.6344 45.1211 56.6344Z" fill="#F2F2F2"/>
<path d="M45.1211 63.1126C45.6929 63.1126 46.1564 62.6465 46.1564 62.0714C46.1564 61.4964 45.6929 61.0303 45.1211 61.0303C44.5493 61.0303 44.0858 61.4964 44.0858 62.0714C44.0858 62.6465 44.5493 63.1126 45.1211 63.1126Z" fill="#F2F2F2"/>
<path d="M45.1211 69.1243C45.6929 69.1243 46.1564 68.6582 46.1564 68.0832C46.1564 67.5081 45.6929 67.042 45.1211 67.042C44.5493 67.042 44.0858 67.5081 44.0858 68.0832C44.0858 68.6582 44.5493 69.1243 45.1211 69.1243Z" fill="#F2F2F2"/>
<path d="M16.1247 54.879C16.6964 54.879 17.16 54.4128 17.16 53.8378C17.16 53.2628 16.6964 52.7966 16.1247 52.7966C15.5529 52.7966 15.0894 53.2628 15.0894 53.8378C15.0894 54.4128 15.5529 54.879 16.1247 54.879Z" fill="#F2F2F2"/>
<path d="M16.1247 61.3536C16.6964 61.3536 17.16 60.8874 17.16 60.3124C17.16 59.7374 16.6964 59.2712 16.1247 59.2712C15.5529 59.2712 15.0894 59.7374 15.0894 60.3124C15.0894 60.8874 15.5529 61.3536 16.1247 61.3536Z" fill="#F2F2F2"/>
<path d="M16.1247 67.3651C16.6964 67.3651 17.16 66.8989 17.16 66.3239C17.16 65.7489 16.6964 65.2827 16.1247 65.2827C15.5529 65.2827 15.0894 65.7489 15.0894 66.3239C15.0894 66.8989 15.5529 67.3651 16.1247 67.3651Z" fill="#F2F2F2"/>
<path d="M28.5443 79.8553C29.1161 79.8553 29.5796 79.3891 29.5796 78.8141C29.5796 78.2391 29.1161 77.7729 28.5443 77.7729C27.9726 77.7729 27.509 78.2391 27.509 78.8141C27.509 79.3891 27.9726 79.8553 28.5443 79.8553Z" fill="#F2F2F2"/>
<path d="M34.4785 79.8553C35.0503 79.8553 35.5138 79.3891 35.5138 78.8141C35.5138 78.2391 35.0503 77.7729 34.4785 77.7729C33.9068 77.7729 33.4432 78.2391 33.4432 78.8141C33.4432 79.3891 33.9068 79.8553 34.4785 79.8553Z" fill="#F2F2F2"/>
<path d="M40.5951 79.8553C41.1669 79.8553 41.6304 79.3891 41.6304 78.8141C41.6304 78.2391 41.1669 77.7729 40.5951 77.7729C40.0233 77.7729 39.5598 78.2391 39.5598 78.8141C39.5598 79.3891 40.0233 79.8553 40.5951 79.8553Z" fill="#F2F2F2"/>
<path d="M22.1024 79.8553C22.6742 79.8553 23.1378 79.3891 23.1378 78.8141C23.1378 78.2391 22.6742 77.7729 22.1024 77.7729C21.5307 77.7729 21.0671 78.2391 21.0671 78.8141C21.0671 79.3891 21.5307 79.8553 22.1024 79.8553Z" fill="#F2F2F2"/>
<path d="M16.1247 79.8553C16.6964 79.8553 17.16 79.3891 17.16 78.8141C17.16 78.2391 16.6964 77.7729 16.1247 77.7729C15.5529 77.7729 15.0894 78.2391 15.0894 78.8141C15.0894 79.3891 15.5529 79.8553 16.1247 79.8553Z" fill="#F2F2F2"/>
<path d="M16.1247 73.8077C16.6964 73.8077 17.16 73.3415 17.16 72.7665C17.16 72.1915 16.6964 71.7253 16.1247 71.7253C15.5529 71.7253 15.0894 72.1915 15.0894 72.7665C15.0894 73.3415 15.5529 73.8077 16.1247 73.8077Z" fill="#F2F2F2"/>
</g>
<defs>
<clipPath id="clip0_688_311">
<rect width="93.0903" height="90.4306" fill="white" transform="translate(0.0754395)"/>
</clipPath>
</defs>
</svg>
