<svg width="93" height="93" viewBox="0 0 93 93" fill="none" xmlns="http://www.w3.org/2000/svg">
<g clip-path="url(#clip0_666_317)">
<path d="M53.7709 40.4844H2.97321C1.75871 40.4844 0.77417 41.4642 0.77417 42.6729V89.2505C0.77417 90.4591 1.75871 91.439 2.97321 91.439H53.7709C54.9854 91.439 55.97 90.4591 55.97 89.2505V42.6729C55.97 41.4642 54.9854 40.4844 53.7709 40.4844Z" fill="#F9D97D" stroke="#083B5A" stroke-width="3" stroke-miterlimit="10"/>
<path d="M60.2422 62.1665C60.3411 62.1747 60.436 62.1747 60.535 62.1747C60.568 62.1789 60.5968 62.1789 60.6298 62.1789H60.7205C68.6265 62.1789 75.7406 58.7924 80.6978 53.3931C85.1271 48.5671 87.8325 42.1283 87.8325 35.0584C87.8325 27.6379 84.8507 20.9145 80.0255 16.0184C75.1096 11.0274 68.2759 7.93799 60.7205 7.93799H60.6298C60.5968 7.93799 60.568 7.93799 60.535 7.93799C52.9961 7.98336 46.1913 11.1099 41.3125 16.1216C36.5409 21.0094 33.6045 27.6874 33.6045 35.0543" stroke="#F2F2F2" stroke-width="3" stroke-miterlimit="10" stroke-linecap="round"/>
<path d="M60.5349 62.1747C60.5679 62.1789 60.5968 62.1789 60.6298 62.1789H60.7205C66.1602 62.1087 70.8452 55.7483 73.0186 46.5831C73.8517 43.0852 74.3136 39.1791 74.3136 35.0584C74.3136 30.2696 73.6867 25.7694 72.5897 21.8674C70.2637 13.6054 65.8261 8.00398 60.7205 7.93799H60.6298C60.5968 7.93799 60.5679 7.93799 60.5349 7.93799C55.4334 8.00398 50.9958 13.6054 48.674 21.8674C47.5769 25.7694 46.9501 30.2654 46.9501 35.0543" stroke="#F2F2F2" stroke-width="3" stroke-miterlimit="10" stroke-linecap="round"/>
<path d="M41.3125 16.1256C42.9044 18.4561 45.4696 20.4442 48.674 21.8714C52.0723 23.3852 56.1923 24.2761 60.6299 24.2761C65.0674 24.2761 69.1915 23.3852 72.5898 21.8672C75.8437 20.4195 78.4378 18.3942 80.0256 16.0183" stroke="#F2F2F2" stroke-width="3" stroke-miterlimit="10" stroke-linecap="round"/>
<path d="M60.6299 43.9802C65.2571 43.9802 69.538 44.9454 73.0187 46.583C76.5778 48.2535 79.2998 50.6294 80.6978 53.393" stroke="#F2F2F2" stroke-width="3" stroke-miterlimit="10" stroke-linecap="round"/>
<path d="M33.6045 35.0583H87.8366" stroke="#F2F2F2" stroke-width="3" stroke-miterlimit="10" stroke-linecap="round"/>
<path d="M60.6339 7.93799V61.8695" stroke="#F2F2F2" stroke-width="3" stroke-miterlimit="10" stroke-linecap="round"/>
<path d="M60.2422 62.1664V35.0583H46.9501H33.6045" stroke="#F2F2F2" stroke-width="3" stroke-miterlimit="10" stroke-linecap="round"/>
<path d="M25.8141 36.0193C25.8141 36.0193 22.6674 18.9922 32.4415 9.32788" stroke="#F2F2F2" stroke-width="3" stroke-miterlimit="10" stroke-linecap="round"/>
<path d="M34.7799 10.0745C37.0052 10.0745 38.8091 8.27022 38.8091 6.04456C38.8091 3.8189 37.0052 2.01465 34.7799 2.01465C32.5546 2.01465 30.7506 3.8189 30.7506 6.04456C30.7506 8.27022 32.5546 10.0745 34.7799 10.0745Z" stroke="#F2F2F2" stroke-width="3" stroke-miterlimit="10" stroke-linecap="round"/>
<path d="M92.3814 54.0942C92.3814 54.0942 83.5599 68.9929 69.8431 69.8468" stroke="#F2F2F2" stroke-width="3" stroke-miterlimit="10" stroke-linecap="round"/>
<path d="M65.9251 74.8171C68.1504 74.8171 69.9544 73.0129 69.9544 70.7872C69.9544 68.5616 68.1504 66.7573 65.9251 66.7573C63.6998 66.7573 61.8959 68.5616 61.8959 70.7872C61.8959 73.0129 63.6998 74.8171 65.9251 74.8171Z" stroke="#F2F2F2" stroke-width="3" stroke-miterlimit="10" stroke-linecap="round"/>
<path d="M36.5037 40.6104H19.7309C19.4235 40.6104 19.1742 40.8597 19.1742 41.1672V48.9177C19.1742 49.2252 19.4235 49.4745 19.7309 49.4745H36.5037C36.8112 49.4745 37.0605 49.2252 37.0605 48.9177V41.1672C37.0605 40.8597 36.8112 40.6104 36.5037 40.6104Z" fill="#F9D97D" stroke="#083B5A" stroke-width="3" stroke-miterlimit="10"/>
<path d="M36.512 91.5182H19.7393C19.4299 91.5182 19.1825 91.2707 19.1825 90.9614V83.2151C19.1825 82.9057 19.4299 82.6582 19.7393 82.6582H36.512C36.8213 82.6582 37.0688 82.9057 37.0688 83.2151V90.9614C37.0688 91.2707 36.8213 91.5182 36.512 91.5182Z" fill="#F9D97D" stroke="#083B5A" stroke-width="3" stroke-miterlimit="10"/>
<path d="M26.6884 86.1272V82.0725" stroke="#083B5A" stroke-width="3" stroke-miterlimit="10"/>
<path d="M29.9835 85.4218V82.0725" stroke="#083B5A" stroke-width="3" stroke-miterlimit="10"/>
<path d="M26.6884 50.0478V45.9932" stroke="#083B5A" stroke-width="3" stroke-miterlimit="10"/>
<path d="M29.9835 49.3425V45.9932" stroke="#083B5A" stroke-width="3" stroke-miterlimit="10"/>
</g>
<defs>
<clipPath id="clip0_666_317">
<rect width="92.9246" height="92.1371" fill="white" transform="translate(0.0754395)"/>
</clipPath>
</defs>
</svg>
