<svg width="182" height="30" viewBox="0 0 182 30" fill="none" xmlns="http://www.w3.org/2000/svg">
<path d="M37.5951 1.13099C45.0553 1.13099 52.5109 1.06384 59.9711 1.16234C63.1075 1.20263 65.2761 3.03834 66.562 5.78294C67.9868 8.83647 67.9017 11.9258 65.8048 14.657C63.914 17.1195 61.4452 18.6642 58.1565 18.5567C56.0282 18.4851 53.8954 18.5433 51.7672 18.5433C51.691 18.8209 51.6148 19.0985 51.5387 19.3761C52.8022 19.8283 54.1284 20.7909 55.3247 20.6476C59.989 20.0924 63.7034 21.5297 66.8533 24.9503C68.1392 26.3473 69.7522 27.4397 71.7371 29.1053C67.8703 29.1053 64.6219 29.1859 61.3869 29.0471C60.6118 29.0113 59.7919 28.3262 59.1243 27.7845C55.5443 24.8921 52.0091 21.9505 47.9139 18.5746C48.5456 22.4028 46.9416 25.9846 50.5843 28.8232H37.9177C40.969 25.7294 39.6562 21.9774 39.8354 18.4761C39.9833 15.5748 39.8892 12.6601 39.8578 9.75432C39.8309 6.77242 40.6061 3.55323 37.1336 1.53843C37.2859 1.39963 37.4428 1.26532 37.5951 1.12653V1.13099ZM47.5375 2.83685C47.5375 5.37549 47.5061 7.73505 47.5465 10.0946C47.5823 12.1586 46.9192 15.1047 47.99 16.0539C49.2401 17.1643 52.0449 16.4793 54.1643 16.6673C55.9296 16.824 57.3275 16.3449 58.5015 14.9659C60.7059 12.378 60.679 6.60229 58.2864 4.18901C57.6905 3.58905 56.8257 2.93983 56.0551 2.89506C53.3219 2.73835 50.5753 2.83238 47.5375 2.83238V2.83685Z" fill="#F3F3F3"/>
<path d="M113.483 0.965327C114.191 0.933986 114.898 0.86683 115.606 0.871307C120.602 0.907126 125.598 0.965325 130.594 1.00562C138.278 1.06383 143.695 6.84853 143.892 14.5585C144.089 22.1878 138.896 26.7681 133.771 28.4695C133.417 28.5859 133.063 28.7964 132.709 28.7964C126.324 28.8143 119.935 28.8098 113.518 28.8098C113.572 28.5546 113.595 28.3083 113.63 28.3083C116.247 28.1695 116.511 26.5532 116.467 24.3504C116.341 18.1672 116.368 11.9795 116.449 5.79636C116.48 3.54427 116.597 1.44888 113.115 1.64141C113.236 1.41306 113.357 1.18919 113.478 0.960845L113.483 0.965327ZM124.518 27.1174C125.697 27.1174 126.723 27.1397 127.749 27.1174C131.866 27.0054 134.34 24.4578 134.331 20.3297C134.322 16.533 134.304 12.7317 134.281 8.93497C134.263 5.93516 132.964 4.01886 130.141 3.40994C128.367 3.02489 126.494 3.10548 124.518 2.96221V27.1218V27.1174Z" fill="#F3F3F3"/>
<path d="M11.9169 18.7806C12.8668 22.3848 10.967 26.1368 14.7486 28.9934H2.34193C5.5097 23.9519 3.42623 18.2881 3.97734 12.884C4.11176 11.5587 3.9415 10.202 4.00871 8.86333C4.1476 6.15007 4.20585 3.49054 0.961914 1.55634C2.22544 1.46679 2.85272 1.3862 3.48448 1.3862C10.044 1.35933 16.6081 1.34143 23.1676 1.32352C26.882 1.31457 29.5525 3.0428 30.8697 6.29334C32.3035 9.8349 31.6404 13.4973 28.9745 15.9509C27.0075 17.7642 24.7538 18.9104 21.931 18.803C18.7498 18.6866 15.5596 18.7761 11.9169 18.7761V18.7806ZM11.8318 16.7703C14.3275 16.7703 16.5633 16.6449 18.7812 16.8061C20.6675 16.9449 21.8952 16.0942 22.9436 14.7421C24.9195 12.1989 24.6776 6.57989 22.4194 4.31437C21.819 3.71441 20.9498 3.06519 20.1701 3.02042C17.4459 2.86371 14.7083 2.95774 11.8318 2.95774V16.7658V16.7703Z" fill="#F3F3F3"/>
<path d="M82.3112 1.14893C85.2639 1.14893 88.2345 1.04148 91.1872 1.22505C91.9086 1.26982 92.8182 2.1205 93.2259 2.83687C97.3839 10.1439 101.416 17.5225 105.592 24.8205C106.421 26.2667 107.698 27.4532 108.666 28.6352H97.2719C98.6295 27.5069 98.0291 26.401 97.366 25.031C95.8291 21.8521 93.6561 20.2223 90.0178 21.0014C89.3771 21.1402 88.6781 21.0282 88.0105 21.0327C82.7324 21.0596 82.701 21.0461 80.64 25.9443C80.3174 26.71 80.416 27.6502 80.2995 28.7158H76.3924C77.181 27.6547 78.328 26.4816 79.0404 25.0892C81.6167 20.0611 83.987 14.9212 86.5723 9.89762C87.4236 8.24996 87.334 7.02317 86.0928 5.67998C84.8024 4.28753 83.6509 2.76076 82.3157 1.14445L82.3112 1.14893ZM83.9914 18.8433H93.3917C91.7428 15.9554 90.2732 13.3765 88.5885 10.4259C86.9441 13.4392 85.5148 16.0539 83.9959 18.8433H83.9914Z" fill="#F3F3F3"/>
<path d="M169.454 28.7381C169.808 28.371 170.292 28.08 170.435 27.6681C170.955 26.204 167.312 21.0954 165.731 21.0774C162.67 21.0461 159.61 21.0909 156.554 21.1133C156.187 21.1133 155.77 21.0998 155.461 21.2565C154.207 21.9013 152.387 27.3815 152.921 28.7605H148.731C149.533 27.6725 150.573 26.589 151.227 25.3085C153.835 20.2044 156.281 15.0151 158.88 9.90204C159.655 8.37528 159.682 7.1485 158.468 5.85456C157.088 4.38152 155.833 2.79206 154.466 1.18918C157.486 1.18918 160.591 1.09516 163.687 1.2653C164.328 1.30112 165.117 2.18762 165.507 2.86818C169.732 10.3184 173.854 17.8269 178.101 25.2637C178.854 26.5801 180.068 27.6278 181.014 28.7292H169.454V28.7381ZM165.74 18.991C164.019 16.0046 162.531 13.4212 160.842 10.4931C159.184 13.5466 157.764 16.1658 156.227 18.991H165.74Z" fill="#F3F3F3"/>
</svg>
