<svg width="144" height="72" viewBox="0 0 144 72" fill="none" xmlns="http://www.w3.org/2000/svg">
<path d="M60.1563 71.2665H50.8278C50.8278 70.5008 50.8278 69.7934 50.8278 69.086C50.8278 59.8358 50.8278 50.5902 50.8278 41.34C50.8278 37.9059 51.7642 36.9702 55.2187 36.9657C63.9514 36.9567 72.684 36.9523 81.4166 36.9657C84.6113 36.9702 85.6015 37.9462 85.606 41.0624C85.6149 50.4603 85.606 59.8582 85.606 69.2561V71.1993H76.264V68.8666C76.264 60.7358 76.264 52.6095 76.264 44.4786C76.264 43.9548 76.4522 43.319 76.2192 42.9384C75.7801 42.2176 75.1035 41.64 74.5255 40.9998C73.9923 41.6042 73.3068 42.1415 72.9842 42.8399C72.7288 43.3951 72.9215 44.1607 72.9215 44.8323C72.9215 53.5452 72.9215 62.2626 72.9215 71.1859H63.7452C63.7094 70.4068 63.6422 69.6143 63.6422 68.8263C63.6332 60.6955 63.6422 52.5692 63.6332 44.4383C63.6332 43.7667 63.8035 42.9787 63.5123 42.4594C63.1628 41.846 62.4324 41.1609 61.7962 41.0893C61.3302 41.0356 60.5775 41.8281 60.2862 42.4101C60.0129 42.9563 60.1608 43.722 60.1608 44.3936C60.1563 52.3722 60.1608 60.3552 60.1608 68.3338C60.1608 69.2203 60.1608 70.1023 60.1608 71.2754L60.1563 71.2665Z" fill="#F3F3F3"/>
<path d="M123.489 25.7097C126.581 29.8781 126.944 34.342 126.944 38.8283C126.944 41.5012 127.656 43.6056 129.914 45.1681C130.448 45.5353 130.766 46.3233 131.017 46.9815C131.514 48.2844 132.119 49.6052 132.267 50.9618C132.477 52.8915 132.321 54.8616 132.321 56.7913C129.511 56.8271 128.382 55.8689 127.75 53.2094C126.505 47.9441 126.303 48.1097 122.965 43.9861C120.514 40.9595 118.346 37.5925 116.67 34.0868C114.582 29.7214 111.732 27.2857 106.71 27.2992C100.876 27.3126 95.759 25.2888 91.7534 20.8697C91.2561 20.319 90.6915 19.822 90.1359 19.3295C89.9208 19.137 89.643 19.0116 89.2577 18.7699C84.235 23.6546 79.629 19.2445 74.8392 17.8968C74.0506 19.0206 73.9207 21.1249 71.9045 19.9698C71.2279 19.5847 70.4393 18.6087 70.4796 17.9505C70.5379 17.0595 71.1651 15.6984 71.8641 15.4566C73.6384 14.8433 75.583 14.6552 77.4738 14.4716C78.5088 14.3731 79.9247 15.1567 79.9202 13.2762C79.9157 11.5569 78.5223 11.4181 77.2139 11.3151C76.2416 11.239 75.0588 11.4674 74.3419 10.9972C73.2217 10.2674 71.4833 8.83021 71.6625 8.10041C72.0434 6.5423 73.4458 5.20806 74.5122 3.84695C75.3187 2.81717 76.2641 1.89484 77.2498 0.802372C77.6306 1.13817 78.1056 1.55904 78.6881 2.07841C79.2795 1.6262 79.844 1.1919 80.7043 0.529255C81.3719 3.22908 83.769 3.00969 85.7405 3.62308C91.7982 5.49908 96.6372 9.35406 101.436 13.2896C104.254 15.6044 107.113 17.8744 110.07 20.0101C111.316 20.91 112.812 21.5189 114.268 22.0741C119.757 24.1695 124.049 22.8666 127.222 17.9013C128.57 15.7924 129.471 13.3836 130.479 11.0689C132.24 7.01689 134.574 3.44399 138.557 1.24563C139.87 0.5203 141.47 -0.334868 142.554 1.2904C143.594 2.84851 142.859 4.46034 141.555 5.6737C140.964 6.21993 140.242 6.69453 139.494 6.99003C134.874 8.8123 132.047 12.2867 130.3 16.7864C128.906 20.3638 127.307 23.7979 123.494 25.7187L123.489 25.7097Z" fill="#F3F3F3"/>
<path d="M98.3129 71.2396H88.9709C88.9709 70.2904 88.9709 69.489 88.9709 68.6875C88.9709 59.5851 88.9664 50.4827 88.9709 41.3759C88.9709 37.8791 89.8715 36.9747 93.3305 36.9657C97.959 36.9523 102.592 36.9388 107.22 36.9702C109.779 36.9881 111.033 38.0179 111.047 40.3237C111.096 50.5365 111.069 60.7537 111.069 71.1769H101.785V62.9207H98.3085V71.2396H98.3129ZM101.754 58.4255C101.754 53.4199 101.745 48.5217 101.759 43.619C101.759 42.334 101.597 41.0356 100.002 41.0535C98.4026 41.0714 98.2726 42.3833 98.2771 43.6593C98.286 47.7605 98.2771 51.8618 98.2771 55.9585C98.2771 57.8927 99.4346 58.715 101.75 58.4255H101.754Z" fill="#F3F3F3"/>
<path d="M25.6962 37.0642H34.7559C34.7559 37.9462 34.7559 38.7342 34.7559 39.5222C34.7559 47.6486 34.7559 55.7794 34.7559 63.9057C34.7559 64.5773 34.6215 65.3295 34.8814 65.8892C35.1502 66.4712 35.8806 67.2861 36.3152 67.2324C36.9514 67.1563 37.6952 66.5071 38.0447 65.8981C38.3404 65.3877 38.1522 64.5908 38.1522 63.9192C38.1522 55.0496 38.1522 46.1845 38.1522 37.1358H47.4763C47.4763 42.6205 47.4763 47.9754 47.4763 53.3303C47.4763 58.1792 47.4942 63.0237 47.4718 67.8726C47.4584 70.3844 46.5981 71.3381 44.1831 71.3605C39.0349 71.4097 33.8867 71.3694 28.7341 71.3829C26.6685 71.3873 25.4543 70.4874 25.4498 68.3338C25.4408 58.1166 25.4543 47.8993 25.4677 37.6865C25.4677 37.5477 25.5618 37.4089 25.6828 37.0552L25.6962 37.0642Z" fill="#F3F3F3"/>
<path d="M9.41383 62.7237V71.1769H0.277954V37.1448C0.78874 37.0866 1.36225 36.9702 1.93129 36.9702C7.3035 36.9567 12.6757 36.9433 18.0479 36.9702C21.0275 36.9836 21.9998 37.9328 22.0087 40.8027C22.0267 46.8427 22.0267 52.8826 22.0087 58.918C21.9998 61.6626 20.9737 62.6924 18.2495 62.7148C15.4223 62.7416 12.595 62.7192 9.41831 62.7192L9.41383 62.7237ZM9.42728 58.3852C12.1067 58.7299 12.6802 58.3091 12.6936 56.0212C12.7205 51.8573 12.725 47.6933 12.6936 43.5294C12.6757 41.152 11.8692 40.6237 9.42728 41.3445V58.3852Z" fill="#F3F3F3"/>
<path d="M115.617 64.5774C117.319 62.8133 119.475 62.7506 121.177 64.4251C122.853 66.0773 122.866 68.7368 121.204 70.3844C119.461 72.1082 116.988 72.05 115.285 70.2367C113.619 68.4592 113.784 66.1668 115.702 64.4968C115.487 64.9624 115.258 65.4236 115.066 65.8982C114.228 67.9264 115.124 70.1337 117.06 70.8322C119.089 71.562 121.124 70.4964 121.773 68.3607C122.369 66.3951 121.106 64.1341 118.977 63.8744C117.906 63.7401 116.746 64.3266 115.621 64.5863L115.617 64.5774Z" fill="#F3F3F3"/>
<path d="M119.309 70.0352C118.919 69.4263 118.534 68.8219 118.019 68.0159C117.687 68.7637 117.494 69.2114 117.042 70.2322V65.2355C119.56 65.0788 119.842 65.4549 119.237 67.4697C119.054 68.0831 119.47 68.8756 119.614 69.583C119.515 69.7352 119.412 69.8875 119.313 70.0397L119.309 70.0352Z" fill="#F3F3F3"/>
</svg>
