<svg width="104" height="113" viewBox="0 0 104 113" fill="none" xmlns="http://www.w3.org/2000/svg">
<path d="M14.8878 42.7603C10.5754 45.8964 7.77478 50.9916 7.77478 56.7441C7.77478 66.2814 15.483 74.0144 24.9899 74.0144C32.9936 74.0144 39.7169 68.5369 41.6483 61.1175" stroke="#F2F2F2" stroke-width="3" stroke-miterlimit="10" stroke-linecap="round"/>
<path d="M35.1991 42.8333C38.1882 45.0414 40.4364 48.1991 41.5113 51.8637" stroke="#F2F2F2" stroke-width="3" stroke-miterlimit="10" stroke-linecap="round"/>
<path d="M29.7391 49.8961C31.6147 51.331 32.8224 53.595 32.8224 56.1426C32.8224 60.4817 29.3151 64.0002 24.9899 64.0002C20.6647 64.0002 17.1575 60.4817 17.1575 56.1426C17.1575 53.5478 18.4122 51.2451 20.3478 49.8145" stroke="#F2F2F2" stroke-width="3" stroke-miterlimit="10" stroke-linecap="round"/>
<path d="M32.8224 56.147H63.2486" stroke="#F2F2F2" stroke-width="3" stroke-miterlimit="10" stroke-linecap="round"/>
<path d="M70.8283 57.9812C71.8406 57.9812 72.6612 57.1579 72.6612 56.1424C72.6612 55.1269 71.8406 54.3037 70.8283 54.3037C69.8161 54.3037 68.9955 55.1269 68.9955 56.1424C68.9955 57.1579 69.8161 57.9812 70.8283 57.9812Z" fill="#F2F2F2"/>
<path d="M88.1334 64.3395C92.646 64.3395 96.3041 60.6696 96.3041 56.1425C96.3041 51.6155 92.646 47.9456 88.1334 47.9456C83.6208 47.9456 79.9626 51.6155 79.9626 56.1425C79.9626 60.6696 83.6208 64.3395 88.1334 64.3395Z" stroke="#F2F2F2" stroke-width="3" stroke-miterlimit="10" stroke-linecap="round"/>
<path d="M88.1333 64.3396V86.4688" stroke="#F2F2F2" stroke-width="3" stroke-miterlimit="10" stroke-linecap="round"/>
<path d="M88.1334 107.49C92.646 107.49 96.3041 103.82 96.3041 99.2927C96.3041 94.7656 92.646 91.0957 88.1334 91.0957C83.6208 91.0957 79.9626 94.7656 79.9626 99.2927C79.9626 103.82 83.6208 107.49 88.1334 107.49Z" stroke="#F2F2F2" stroke-width="3" stroke-miterlimit="10" stroke-linecap="round"/>
<path d="M13.1749 107.49C17.6875 107.49 21.3456 103.82 21.3456 99.2927C21.3456 94.7656 17.6875 91.0957 13.1749 91.0957C8.66232 91.0957 5.00415 94.7656 5.00415 99.2927C5.00415 103.82 8.66232 107.49 13.1749 107.49Z" stroke="#F2F2F2" stroke-width="3" stroke-miterlimit="10" stroke-linecap="round"/>
<path d="M79.9669 99.2927H57.9084" stroke="#F2F2F2" stroke-width="3" stroke-miterlimit="10" stroke-linecap="round"/>
<path d="M26.4716 99.2883H34.364" stroke="#F2F2F2" stroke-width="3" stroke-miterlimit="10" stroke-linecap="round"/>
<path d="M40.1409 99.2883H48.0333" stroke="#F2F2F2" stroke-width="3" stroke-miterlimit="10" stroke-linecap="round"/>
<path d="M25.2597 9.1001H25.1955C17.0804 9.13017 10.3442 15.0201 8.96104 22.7703C8.93963 22.8777 8.9225 22.9851 8.90965 23.0925C8.77262 23.9474 8.7041 24.8195 8.7041 25.7088C8.7041 30.2541 10.5241 34.3741 13.4704 37.3685C13.5731 37.4759 13.6759 37.579 13.783 37.6821C16.7592 40.5519 20.8018 42.3176 25.2554 42.3176C28.8826 42.3176 32.24 41.1447 34.9678 39.1599C35.2205 38.9795 35.4646 38.7905 35.7001 38.5928C39.4301 35.5469 41.8111 30.9071 41.8111 25.7088C41.8153 16.5367 34.4026 9.1001 25.2597 9.1001ZM25.0285 18.4613C29.131 18.4613 32.4584 21.7994 32.4584 25.915C32.4584 30.0307 29.131 33.3688 25.0285 33.3688C20.926 33.3688 17.5986 30.0307 17.5986 25.915C17.5986 21.7994 20.926 18.4613 25.0285 18.4613Z" fill="#F9D97D"/>
<path d="M13.4703 37.3685L25.0284 51.8592L35.1776 39.2759L28.2531 35.272L13.4703 37.3685Z" fill="#F9D97D"/>
<path d="M12.9008 36.535C10.3056 33.618 8.72974 29.7772 8.72974 25.5628C8.72546 16.4722 16.0697 9.1001 25.1355 9.1001C34.2012 9.1001 41.5455 16.4722 41.5455 25.5628C41.5455 30.0006 39.794 34.0347 36.942 36.9947V37.0033" stroke="#083B5A" stroke-width="3" stroke-miterlimit="10" stroke-linecap="round"/>
<path d="M36.942 36.9946L25.6622 51.5842C25.3753 51.9537 24.8186 51.9537 24.5359 51.5842L12.8965 36.5264" stroke="#083B5A" stroke-width="3" stroke-miterlimit="10" stroke-linecap="round"/>
<path d="M25.0713 33.0766C29.0139 33.0766 32.21 29.8703 32.21 25.915C32.21 21.9598 29.0139 18.7534 25.0713 18.7534C21.1287 18.7534 17.9326 21.9598 17.9326 25.915C17.9326 29.8703 21.1287 33.0766 25.0713 33.0766Z" stroke="#083B5A" stroke-width="3" stroke-miterlimit="10" stroke-linecap="round"/>
</svg>
