<svg width="169" height="30" viewBox="0 0 169 30" fill="none" xmlns="http://www.w3.org/2000/svg">
<path d="M5.48152 26.6674C4.68398 29.403 2.58258 27.8225 0.85308 28.1538V18.1784H4.61229C5.81756 22.8124 9.63948 24.3168 13.8154 24.8182C17.0952 25.2167 20.4825 25.0645 23.7847 24.7556C25.4962 24.5944 27.6962 23.6138 27.4363 21.6035C27.3064 20.6051 25.1288 19.4052 23.7175 19.1276C18.7485 18.1605 13.6899 17.6724 8.70754 16.7456C6.77641 16.3874 4.81839 15.6039 3.14713 14.5741C-0.29843 12.4563 -0.845059 8.30588 2.00011 5.40905C3.41149 3.97183 5.27092 2.77638 7.1438 2.01972C14.5188 -0.96218 21.755 0.0496928 28.0233 2.90622C30.1426 2.3779 31.5853 2.01972 33.2476 1.60333V10.6386C31.4599 10.8714 29.9723 11.3505 28.9463 8.92823C28.3773 7.58503 26.5402 6.48361 25.0303 5.8926C20.6259 4.16436 16.0064 4.09272 11.3824 4.96579C10.6655 5.10011 9.85905 5.3195 9.32586 5.77171C8.70306 6.30899 7.92344 7.17759 7.98169 7.83576C8.03546 8.44915 9.03013 9.35356 9.7291 9.47893C13.0223 10.0744 16.3783 10.3475 19.676 10.9341C22.9647 11.5161 26.2803 12.1116 29.4526 13.1145C32.7593 14.1622 34.8965 16.5621 34.9278 20.2155C34.9592 23.7929 32.7727 25.9913 29.7035 27.33C24.4075 29.6448 18.9053 30.0746 13.2867 28.7135C10.6924 28.0822 8.11609 27.3614 5.47255 26.6629L5.48152 26.6674Z" fill="#F3F3F3"/>
<path d="M88.5334 6.03591H83.9229V2.67344C88.3273 2.67344 92.6914 2.62418 97.0555 2.73164C97.6604 2.74507 98.2832 3.50174 98.8298 3.98977C103.776 8.41784 108.701 12.8638 113.638 17.3008C114.059 17.6814 114.512 18.0306 115.318 18.7022C115.318 14.8249 115.399 11.3639 115.242 7.9119C115.215 7.34328 114.238 6.51497 113.562 6.34483C112.522 6.08067 111.362 6.27321 110.098 6.27321V2.74059H125.323V5.94636C125.108 6.04486 124.92 6.19709 124.719 6.21052C121.806 6.39857 120.35 7.99399 120.35 10.9968C120.35 16.7233 120.35 22.4498 120.35 28.2658C117.021 28.7359 114.297 28.5568 111.685 26.0227C106.442 20.9409 100.824 16.2487 95.3574 11.3997C95.102 11.1714 94.8152 10.9789 94.3403 10.6117V25.0645H99.1748V28.3016H84.129V25.369C84.2724 25.2839 84.3889 25.1585 84.5144 25.1496C87.2655 24.9377 88.641 23.4646 88.641 20.7305C88.641 16.5531 88.641 12.3803 88.6365 8.20293C88.6365 7.55372 88.5783 6.90451 88.5334 6.03143V6.03591Z" fill="#F3F3F3"/>
<path d="M60.037 29.7836C54.3063 29.6493 48.9924 28.2345 44.5521 24.4064C38.4765 19.1679 38.3779 11.3191 44.2654 5.90157C52.4245 -1.60689 68.102 -1.56212 76.1716 5.99559C81.835 11.3012 81.7857 18.9709 75.9386 24.2138C71.4445 28.2479 65.9693 29.6717 60.037 29.7791V29.7836ZM60.1042 4.91209C59.2574 4.99716 58.3478 4.99268 57.4831 5.18968C53.0563 6.20603 49.651 8.48946 48.5174 13.1459C47.5676 17.0546 49.1223 20.2021 52.2229 22.4945C56.5556 25.6958 61.314 26.0137 66.1351 23.7124C71.1488 21.3215 73.3622 15.98 71.225 11.4803C69.034 6.86419 65.0104 5.14043 60.1042 4.90761V4.91209Z" fill="#F3F3F3"/>
<path d="M140.235 25.3958C140.436 25.3152 140.566 25.2391 140.705 25.2167C142.094 24.966 143.931 25.1854 144.765 24.3705C145.889 23.2735 144.644 18.6037 143.376 17.2292C141.1 14.7666 138.711 12.3847 136.606 9.78337C134.571 7.26712 132.465 5.27918 128.765 6.45224V2.75397H146.947V6.07167C146.095 6.18808 145.235 6.30448 143.685 6.51492C146.203 9.29981 148.389 11.7176 150.737 14.3099C153.099 11.722 155.325 9.2819 157.843 6.52835C156.508 6.34478 155.581 6.21494 154.546 6.07167V2.74054H169V5.89705C168.919 5.96421 168.798 6.14331 168.704 6.12987C165.649 5.70005 163.794 7.42829 162.006 9.58189C160.102 11.8698 158.117 14.1532 155.85 16.0606C152.946 18.5007 152.503 21.4334 153.224 25.1048H158.059V28.2971H140.23V25.3958H140.235Z" fill="#F3F3F3"/>
</svg>
