<svg width="324" height="247" viewBox="0 0 324 247" fill="none" xmlns="http://www.w3.org/2000/svg">
<path d="M422.828 137.09L237.413 244.151C232.613 246.933 224.237 246.566 218.703 243.387L4.58216 119.756C-0.951244 116.546 -1.56267 111.716 3.23702 108.934L188.682 1.87347C193.482 -0.908517 201.859 -0.541662 207.392 2.63775L421.513 126.268C427.047 129.478 427.627 134.308 422.828 137.09Z" fill="#F9F7EF"/>
<path d="M414.054 135.408L236.71 237.791C232.124 240.451 224.115 240.114 218.795 237.057L14.0288 118.838C8.73996 115.781 8.15911 111.165 12.7448 108.505L190.058 6.12187C194.644 3.46217 202.654 3.79846 207.973 6.85558L412.739 125.075C418.059 128.132 418.64 132.779 414.054 135.408Z" fill="#F9F7EF"/>
<path d="M228.945 239.808C225.368 239.808 221.638 238.952 218.703 237.24L13.9368 119.021C11.0937 117.37 9.44287 115.169 9.44287 112.968C9.44287 111.134 10.574 109.483 12.6529 108.29L189.966 5.9073C194.613 3.21703 202.745 3.55331 208.095 6.64101L412.861 124.86C415.704 126.511 417.355 128.712 417.355 130.913C417.355 132.747 416.224 134.398 414.145 135.591L236.832 238.004C234.723 239.197 231.879 239.808 228.945 239.808ZM197.854 4.56216C194.98 4.56216 192.228 5.14302 190.211 6.3353L12.8669 108.688C10.9409 109.788 9.87087 111.317 9.87087 112.968C9.87087 114.986 11.43 117.034 14.1508 118.624L218.917 236.843C224.145 239.869 232.063 240.205 236.587 237.576L413.931 135.193C415.857 134.093 416.927 132.564 416.927 130.913C416.927 128.896 415.368 126.847 412.647 125.258L207.881 7.06901C205.007 5.41816 201.339 4.56216 197.854 4.56216Z" fill="#083B5A"/>
<mask id="mask0_821_10168" style="mask-type:luminance" maskUnits="userSpaceOnUse" x="12" y="5" width="403" height="233">
<path d="M411.118 134.645L236.251 235.591C231.726 238.19 223.808 237.884 218.611 234.858L16.7491 118.381C11.5214 115.355 10.9711 110.8 15.4957 108.201L190.363 7.25469C194.888 4.65613 202.806 4.96185 208.003 7.9884L409.865 124.495C415.062 127.491 415.643 132.047 411.118 134.645Z" fill="white"/>
</mask>
<g mask="url(#mask0_821_10168)">
<g opacity="0.51">
<path d="M136.986 497.25L136.925 497.219L-400.701 186.799L-400.457 186.676L137.017 -123.622L137.078 -123.592L674.46 186.676L674.704 186.799L674.46 186.921L136.986 497.25ZM-400.09 186.799L136.986 496.883L674.062 186.799L136.986 -123.286L-400.09 186.799Z" fill="#0C5C84"/>
<path d="M123.962 489.637L123.81 489.362L661.191 179.094L661.344 179.369L123.962 489.637ZM110.847 482.055L110.695 481.78L648.076 171.543L648.229 171.818L110.847 482.055ZM97.7323 474.504L97.5795 474.229L634.961 163.961L635.114 164.236L97.7323 474.504ZM84.6172 466.922L84.4644 466.647L621.877 156.41L622.03 156.685L84.6172 466.922ZM71.5327 459.371L71.3799 459.096L608.762 148.828L608.914 149.103L71.5327 459.371ZM58.4177 451.789L58.2648 451.514L595.647 141.277L595.799 141.552L58.4177 451.789ZM45.3026 444.238L45.1497 443.963L582.531 133.695L582.684 133.971L45.3026 444.238ZM32.1875 436.657L32.0347 436.382L569.447 126.144L569.6 126.419L32.1875 436.657ZM19.103 429.106L18.9502 428.83L556.332 118.563L556.485 118.838L19.103 429.106ZM5.98795 421.524L5.83511 421.249L543.217 111.012L543.37 111.287L5.98795 421.524ZM-7.12714 413.973L-7.27997 413.698L530.102 103.43L530.255 103.705L-7.12714 413.973ZM-20.2422 406.391L-20.3951 406.116L517.017 95.8787L517.17 96.1539L-20.2422 406.391ZM-33.3267 398.84L-33.4796 398.565L503.902 88.2971L504.055 88.5722L-33.3267 398.84ZM-46.4418 391.258L-46.5946 390.983L490.787 80.7459L490.94 81.0211L-46.4418 391.258ZM-59.5569 383.677L-59.7097 383.402L477.672 73.1643L477.825 73.4394L-59.5569 383.677ZM-72.6414 376.126L-72.7942 375.85L464.588 65.5826L464.74 65.8578L-72.6414 376.126ZM-85.7564 368.544L-85.9093 368.269L451.472 58.0315L451.625 58.3066L-85.7564 368.544ZM-98.8715 360.993L-99.0244 360.718L438.357 50.4498L438.51 50.725L-98.8715 360.993ZM-111.987 353.411L-112.139 353.136L425.242 42.8987L425.395 43.1739L-111.987 353.411ZM-125.071 345.86L-125.224 345.585L412.158 35.317L412.311 35.5922L-125.071 345.86ZM-138.186 338.278L-138.339 338.003L399.043 27.7659L399.196 28.0411L-138.186 338.278ZM-151.301 330.727L-151.454 330.452L385.928 20.1843L386.081 20.4594L-151.301 330.727ZM-164.416 323.146L-164.569 322.87L372.843 12.6332L372.996 12.9083L-164.416 323.146ZM-177.501 315.594L-177.654 315.319L359.728 5.05148L359.881 5.32663L-177.501 315.594ZM-190.616 308.013L-190.769 307.738L346.613 -2.49962L346.766 -2.22448L-190.616 308.013ZM-203.731 300.462L-203.884 300.187L333.498 -10.0813L333.651 -9.80615L-203.731 300.462ZM-216.846 292.88L-216.999 292.605L320.413 -17.6324L320.566 -17.3573L-216.846 292.88ZM-229.931 285.329L-230.083 285.054L307.298 -25.2141L307.451 -24.9389L-229.931 285.329ZM-243.046 277.747L-243.198 277.472L294.183 -32.7652L294.336 -32.49L-243.046 277.747ZM-256.161 270.196L-256.314 269.921L281.099 -40.3468L281.252 -40.0717L-256.161 270.196ZM-269.245 262.614L-269.398 262.339L267.984 -47.898L268.137 -47.6228L-269.245 262.614ZM-282.36 255.033L-282.513 254.758L254.869 -55.4796L255.021 -55.2045L-282.36 255.033ZM-295.475 247.482L-295.628 247.207L241.754 -63.0613L241.906 -62.7862L-295.475 247.482ZM-308.59 239.9L-308.743 239.625L228.638 -70.6124L228.791 -70.3373L-308.59 239.9ZM-321.675 232.349L-321.828 232.074L215.554 -78.1941L215.707 -77.9189L-321.675 232.349ZM-334.79 224.767L-334.943 224.492L202.439 -85.7452L202.592 -85.47L-334.79 224.767ZM-347.905 217.216L-348.058 216.941L189.324 -93.3269L189.477 -93.0517L-347.905 217.216ZM-360.99 209.634L-361.142 209.359L176.239 -100.878L176.392 -100.603L-360.99 209.634ZM-374.105 202.083L-374.257 201.808L163.124 -108.46L163.277 -108.184L-374.105 202.083ZM-387.22 194.502L-387.373 194.227L150.009 -116.011L150.162 -115.736L-387.22 194.502Z" fill="#0C5C84"/>
<path d="M150.009 489.637L-387.373 179.369L-387.22 179.094L150.162 489.362L150.009 489.637ZM163.124 482.055L-374.257 171.818L-374.105 171.543L163.277 481.811L163.124 482.055ZM176.239 474.504L-361.142 164.236L-360.99 163.961L176.362 474.229L176.239 474.504ZM189.324 466.923L-348.058 156.685L-347.905 156.41L189.477 466.678L189.324 466.923ZM202.439 459.371L-334.943 149.104L-334.79 148.828L202.592 459.096L202.439 459.371ZM215.554 451.79L-321.828 141.552L-321.675 141.277L215.707 451.545L215.554 451.79ZM228.638 444.239L-308.743 133.971L-308.59 133.696L228.822 443.964L228.638 444.239ZM241.754 436.657L-295.628 126.389L-295.475 126.114L241.906 436.382L241.754 436.657ZM254.869 429.106L-282.513 118.838L-282.36 118.563L255.021 428.831L254.869 429.106ZM267.984 421.524L-269.398 111.256L-269.245 110.981L268.137 421.249L267.984 421.524ZM281.068 413.973L-256.314 103.705L-256.161 103.43L281.221 413.698L281.068 413.973ZM294.183 406.391L-243.198 96.1236L-243.046 95.8484L294.336 406.116L294.183 406.391ZM307.298 398.81L-230.083 88.5725L-229.931 88.2974L307.451 398.565L307.298 398.81ZM320.413 391.259L-216.968 80.9908L-216.815 80.7157L320.566 390.983L320.413 391.259ZM333.498 383.677L-203.884 73.4397L-203.731 73.1646L333.651 383.432L333.498 383.677ZM346.613 376.126L-190.769 65.858L-190.616 65.5829L346.766 375.851L346.613 376.126ZM359.728 368.544L-177.654 58.3069L-177.501 58.0318L359.881 368.3L359.728 368.544ZM372.813 360.993L-164.569 50.7253L-164.416 50.4501L372.965 360.718L372.813 360.993ZM385.928 353.411L-151.454 43.1741L-151.301 42.899L386.081 353.167L385.928 353.411ZM399.043 345.86L-138.339 35.5925L-138.186 35.3173L399.196 345.585L399.043 345.86ZM412.158 338.279L-125.224 28.0414L-125.071 27.7662L412.311 338.034L412.158 338.279ZM425.242 330.728L-112.139 20.4597L-111.987 20.1846L425.395 330.452L425.242 330.728ZM438.357 323.146L-99.0244 12.9086L-98.8715 12.6335L438.51 322.901L438.357 323.146ZM451.472 315.595L-85.9093 5.32693L-85.7564 5.05179L451.625 315.32L451.472 315.595ZM464.588 308.013L-72.7942 -2.25475L-72.6414 -2.52989L464.74 307.738L464.588 308.013ZM477.672 300.462L-59.7097 -9.80585L-59.5569 -10.081L477.825 300.187L477.672 300.462ZM490.787 292.88L-46.5946 -17.3875L-46.4418 -17.6627L490.94 292.605L490.787 292.88ZM503.902 285.329L-33.4796 -24.9386L-33.3267 -25.2138L504.055 285.054L503.902 285.329ZM517.017 277.747L-20.3645 -32.5203L-20.2116 -32.7954L517.17 277.472L517.017 277.747ZM530.102 270.166L-7.27997 -40.0714L-7.12714 -40.3465L530.255 269.921L530.102 270.166ZM543.217 262.615L5.83511 -47.6531L5.98795 -47.9282L543.37 262.34L543.217 262.615ZM556.332 255.033L18.9502 -55.2042L19.103 -55.4793L556.485 254.788L556.332 255.033ZM569.447 247.482L32.0347 -62.7859L32.1875 -63.061L569.6 247.207L569.447 247.482ZM582.531 239.9L45.1497 -70.337L45.3026 -70.6121L582.684 239.656L582.531 239.9ZM595.647 232.349L58.2648 -77.9186L58.4177 -78.1938L595.799 232.074L595.647 232.349ZM608.762 224.768L71.3799 -85.4697L71.5327 -85.7449L608.914 224.523L608.762 224.768ZM621.877 217.216L84.4644 -93.0514L84.6172 -93.3266L622.03 216.941L621.877 217.216ZM634.961 209.635L97.5795 -100.603L97.7323 -100.878L635.114 209.39L634.961 209.635ZM648.076 202.084L110.695 -108.184L110.847 -108.459L648.229 201.808L648.076 202.084ZM661.191 194.502L123.81 -115.766L123.962 -116.041L661.344 194.227L661.191 194.502Z" fill="#0C5C84"/>
</g>
</g>
<path d="M123.565 70.7804L123.045 69.7716L132.492 64.9107C133.959 64.1464 135.58 63.749 137.23 63.749L296.751 65.247V66.3781L137.23 64.8802C135.763 64.8802 134.296 65.247 132.981 65.9196L123.565 70.7804Z" fill="#083B5A"/>
<path d="M218.062 75.1826L208.432 80.716C207.515 81.2357 208.065 82.1834 209.38 82.2446C209.41 82.2446 209.441 82.2446 209.441 82.2446L208.432 82.8254C207.515 83.3451 208.065 84.2929 209.38 84.354C209.624 84.354 209.838 101.994 210.083 101.994L218.093 97.4079H218.123V75.1826H218.062ZM184.984 99.8536C185.901 100.434 186.513 101.199 186.818 101.994C187.124 101.229 187.124 82.8254 186.879 82.0612C187.399 80.502 186.757 78.7595 184.953 77.6283C181.56 75.4272 175.721 75.366 172.205 77.3838C170.707 78.2397 169.882 79.3403 169.698 80.4714C169.607 81.0523 168.384 81.3274 167.681 80.8994L158.204 75.5495V97.7748L167.681 103.125C168.414 103.553 169.607 103.278 169.698 102.697C169.882 101.566 170.707 100.465 172.205 99.6091C175.782 97.5914 181.591 97.6525 184.984 99.8536Z" fill="#F9D97D"/>
<path d="M168.536 103.583C168.2 103.583 167.864 103.522 167.589 103.338L157.989 97.8965V75.1515L167.833 80.7155C168.261 80.96 168.873 80.9295 169.209 80.746C169.392 80.6543 169.484 80.5626 169.515 80.4403C169.729 79.1869 170.615 78.0558 172.144 77.1998C175.751 75.1209 181.713 75.2126 185.137 77.4443C186.94 78.606 187.705 80.3792 187.154 82.0912C187.429 83.7115 187.368 101.321 187.063 102.085L186.849 102.635L186.635 102.085C186.329 101.29 185.717 100.587 184.892 100.037C181.59 97.8965 175.843 97.8048 172.388 99.7919C171.013 100.587 170.157 101.626 170.004 102.727C169.973 103.002 169.759 103.216 169.453 103.369C169.178 103.491 168.842 103.583 168.536 103.583ZM158.448 97.6519L167.833 102.941C168.261 103.185 168.873 103.155 169.209 102.971C169.301 102.91 169.484 102.818 169.515 102.666C169.729 101.412 170.615 100.281 172.144 99.4251C175.751 97.3462 181.713 97.438 185.137 99.6697C185.809 100.098 186.329 100.617 186.726 101.229C186.91 97.7437 186.94 82.9472 186.726 82.1523L186.696 82.0912L186.726 82.03C187.215 80.5015 186.543 78.8812 184.892 77.8418C181.59 75.7018 175.843 75.6101 172.388 77.5972C171.013 78.392 170.157 79.4315 170.004 80.532C169.973 80.8072 169.759 81.0212 169.453 81.174C168.995 81.388 168.2 81.4492 167.65 81.1129L158.509 75.9463V97.6519H158.448ZM210.144 102.238H210.083C209.777 102.207 209.777 102.207 209.532 93.2497C209.441 89.5506 209.318 85.4234 209.227 84.598C208.493 84.5369 207.912 84.17 207.79 83.6809C207.698 83.2834 207.912 82.9166 208.34 82.672L208.799 82.3969C208.279 82.244 207.912 81.9383 207.79 81.5409C207.698 81.1435 207.912 80.7766 208.34 80.532L218.031 74.9681H218.092L218.368 74.9375V97.3462L218.52 97.4685L218.368 97.5602V97.6825H218.184L210.144 102.238ZM209.41 81.9995C209.441 81.9995 209.471 81.9995 209.502 81.9995L210.205 82.0912L208.585 83.0389C208.432 83.1306 208.187 83.314 208.248 83.5586C208.31 83.8337 208.738 84.1089 209.41 84.1394C209.746 84.1394 209.746 84.1394 209.991 93.2191C210.083 96.6737 210.174 100.556 210.266 101.657L217.664 97.4074L217.359 97.1934H217.909V75.5795L208.585 80.9295C208.432 81.0212 208.187 81.2046 208.248 81.4186C208.279 81.6937 208.707 81.9689 209.41 81.9995Z" fill="#083B5A"/>
<path d="M188.132 92.4254L178.594 87.1977C178.472 87.1365 178.38 87.0448 178.319 86.9531V108.689C178.166 108.934 178.227 109.209 178.594 109.423L188.132 114.651V92.4254Z" fill="#F9D97D"/>
<path d="M188.376 115.047L178.502 109.636C178.196 109.452 178.074 109.238 178.043 109.085C178.013 108.933 178.043 108.78 178.104 108.627V86.1875L178.532 86.8295C178.594 86.8906 178.655 86.9518 178.716 87.0129L188.376 92.3018V115.047ZM178.563 87.4409V108.78L178.532 108.841C178.502 108.902 178.471 108.963 178.502 108.994C178.532 109.085 178.594 109.147 178.746 109.238L187.948 114.282V92.5769L178.563 87.4409Z" fill="#083B5A"/>
<path d="M188.132 114.652L197.854 109.026C198.771 108.507 200.391 108.843 200.453 109.577C200.605 110.769 201.492 111.931 203.143 112.817C206.322 114.529 211.397 114.529 214.546 112.848C216.258 111.931 217.144 110.708 217.206 109.485H217.236V87.2597H217.206C217.114 88.4826 216.258 89.7054 214.546 90.6226C211.367 92.304 206.322 92.304 203.143 90.592C201.492 89.7054 200.605 88.5437 200.453 87.3514C200.361 86.5871 198.771 86.2509 197.854 86.8011L188.132 92.4263V114.652ZM178.35 123.242C178.258 123.395 178.258 123.548 178.35 123.731V123.242Z" fill="#F9D97D"/>
<path d="M178.564 124.495L178.136 123.822C177.983 123.578 177.983 123.303 178.136 123.089L178.564 122.477V124.495ZM188.194 114.895H187.888V92.3033L197.732 86.6171C198.466 86.1891 199.474 86.2808 200.055 86.5865C200.422 86.7699 200.636 87.0451 200.697 87.3508C200.82 88.5125 201.737 89.6131 203.265 90.4079C206.353 92.0588 211.397 92.0893 214.454 90.4385C216.013 89.6131 216.931 88.4819 216.992 87.2591V87.0756L217.481 87.0145V109.729H217.42C217.267 111.013 216.289 112.205 214.668 113.061C211.428 114.804 206.322 114.804 203.051 113.031C201.4 112.144 200.392 110.921 200.239 109.607C200.208 109.393 199.994 109.27 199.841 109.179C199.352 108.934 198.527 108.873 197.946 109.209L188.194 114.895ZM188.377 92.5479V114.253L197.762 108.842C198.496 108.414 199.505 108.506 200.086 108.812C200.453 108.995 200.667 109.27 200.728 109.576C200.881 110.738 201.767 111.838 203.296 112.633C206.383 114.284 211.428 114.315 214.485 112.664C216.044 111.838 216.961 110.707 217.022 109.484V109.27H217.053V88.6959C216.594 89.5214 215.799 90.2551 214.668 90.8665C211.428 92.609 206.322 92.609 203.051 90.8359C201.4 89.9493 200.392 88.7265 200.239 87.4119C200.208 87.1979 199.994 87.0756 199.841 86.9839C199.352 86.7394 198.527 86.6782 197.946 87.0145L188.377 92.5479Z" fill="#083B5A"/>
<path d="M172.235 77.3848C175.782 75.3365 181.59 75.4282 184.984 77.6294C187.735 79.4025 187.796 82.5513 185.045 84.355C183.516 85.3639 181.468 85.9142 179.358 86.0365C178.35 86.0976 177.86 86.8007 178.594 87.1982L188.132 92.4259L197.854 86.8007C198.771 86.281 200.391 86.6173 200.453 87.351C200.605 88.5433 201.492 89.705 203.143 90.5916C206.322 92.3036 211.397 92.3036 214.546 90.6222C218.062 88.7573 218.123 85.5779 214.76 83.6213C213.262 82.7653 211.336 82.2762 209.349 82.2151C208.034 82.1539 207.484 81.2368 208.401 80.6865L218.031 75.1531L191.281 60.112C189.325 58.9809 186.94 58.9809 184.984 60.112L158.203 75.5505L167.68 80.9005C168.414 81.3285 169.606 81.0533 169.698 80.4725C169.912 79.3414 170.737 78.2714 172.235 77.3848Z" fill="#F9D97D"/>
<path d="M188.132 92.7006L178.502 87.4118C177.983 87.1061 178.013 86.7392 178.044 86.5864C178.135 86.1584 178.686 85.8526 179.358 85.8221C181.529 85.6998 183.516 85.1189 184.953 84.1712C186.176 83.3764 186.879 82.2147 186.879 81.0224C186.879 79.7995 186.145 78.6378 184.892 77.8124C181.59 75.6724 175.843 75.5807 172.388 77.5678L172.327 77.5984C170.982 78.3933 170.156 79.4021 169.973 80.5027C169.942 80.7778 169.728 80.9918 169.423 81.1447C168.964 81.3587 168.169 81.4198 167.619 81.0835L157.775 75.5196L184.922 59.8976C186.94 58.7359 189.447 58.7359 191.434 59.8976L218.551 75.1527L208.554 80.8695C208.401 80.9613 208.156 81.1447 208.217 81.3587C208.279 81.6338 208.707 81.909 209.379 81.9395C211.458 82.0312 213.415 82.5204 214.882 83.3764C216.563 84.3547 217.511 85.6692 217.481 87.0755C217.45 88.5124 216.472 89.8269 214.668 90.7746C211.427 92.5172 206.322 92.5172 203.051 90.7441C201.4 89.8575 200.391 88.6346 200.238 87.3201C200.208 87.1061 199.994 86.9838 199.841 86.8921C199.352 86.6475 198.526 86.5864 197.946 86.9226L188.132 92.7006ZM178.411 75.703C180.887 75.703 183.332 76.2838 185.136 77.4456C186.542 78.3321 187.337 79.6467 187.337 81.0224C187.337 82.3675 186.573 83.6515 185.197 84.5381C183.699 85.5164 181.62 86.1278 179.389 86.2501C178.869 86.2807 178.533 86.4947 178.502 86.6781C178.472 86.8309 178.624 86.9532 178.747 86.9838L188.163 92.1503L197.793 86.5864C198.526 86.1584 199.535 86.2501 200.116 86.5558C200.483 86.7392 200.697 87.0144 200.758 87.3201C200.911 88.4818 201.798 89.5824 203.326 90.3772C206.414 92.0281 211.458 92.0586 214.515 90.4078C216.135 89.5518 217.053 88.3595 217.083 87.1061C217.114 85.8832 216.258 84.7215 214.729 83.8044C213.323 82.979 211.427 82.4898 209.44 82.4287C208.615 82.3981 207.973 82.0312 207.851 81.481C207.759 81.0835 207.973 80.7167 208.401 80.4721L217.695 75.1527L191.281 60.2951C189.416 59.2251 187.093 59.2251 185.228 60.2951L158.784 75.5196L167.925 80.6861C168.353 80.9307 168.964 80.9001 169.3 80.7167C169.484 80.625 169.575 80.5333 169.606 80.411C169.82 79.1575 170.707 78.0264 172.235 77.1704L172.296 77.1398C173.917 76.1921 176.148 75.703 178.411 75.703Z" fill="#083B5A"/>
<path d="M290.332 66.9591C287.642 66.9591 284.982 67.6928 282.658 69.0686L147.442 149.838L146.861 148.86L282.078 68.0903C284.584 66.5923 287.428 65.7974 290.332 65.828" fill="#083B5A"/>
<path d="M298.678 69.3145H284.401V70.843V70.9042C284.401 73.197 287.581 75.0619 291.524 75.0619C295.468 75.0619 298.648 73.197 298.648 70.9042V70.843L298.678 69.3145Z" fill="#F9F7EF"/>
<path d="M291.555 75.3066C287.489 75.3066 284.187 73.35 284.187 70.9349V69.1006H298.922V70.9349C298.922 73.3194 295.621 75.3066 291.555 75.3066ZM284.646 69.5592V70.9349C284.646 73.1054 287.733 74.848 291.555 74.848C295.376 74.848 298.464 73.0749 298.464 70.9349V69.5592H284.646Z" fill="#083B5A"/>
<path d="M291.555 73.5019C295.489 73.5019 298.678 71.6404 298.678 69.3442C298.678 67.048 295.489 65.1865 291.555 65.1865C287.621 65.1865 284.432 67.048 284.432 69.3442C284.432 71.6404 287.621 73.5019 291.555 73.5019Z" fill="#F9F7EF"/>
<path d="M291.555 73.7151C287.489 73.7151 284.187 71.7585 284.187 69.3434C284.187 66.9282 287.489 64.9717 291.555 64.9717C295.621 64.9717 298.922 66.9282 298.922 69.3434C298.922 71.7585 295.621 73.7151 291.555 73.7151ZM291.555 65.4302C287.733 65.4302 284.646 67.2034 284.646 69.3434C284.646 71.4834 287.733 73.2565 291.555 73.2565C295.376 73.2565 298.464 71.4834 298.464 69.3434C298.464 67.2034 295.346 65.4302 291.555 65.4302Z" fill="#083B5A"/>
<path d="M297.731 63.1689H285.38V68.9163V68.9775C285.38 70.9646 288.131 72.5849 291.555 72.5849C294.979 72.5849 297.731 70.9646 297.731 68.9775V68.9163V63.1689Z" fill="#F9F7EF"/>
<path d="M291.555 72.799C288.009 72.799 285.135 71.087 285.135 68.9776V62.9551H297.945V68.9776C297.945 71.087 295.071 72.799 291.555 72.799ZM285.594 63.4136V68.9776C285.594 70.8425 288.254 72.3405 291.555 72.3405C294.857 72.3405 297.517 70.8425 297.517 68.9776V63.4136H285.594Z" fill="#083B5A"/>
<path d="M298.678 63.4131H284.401V64.9416V65.0028C284.401 67.2956 287.581 69.1605 291.524 69.1605C295.468 69.1605 298.648 67.2956 298.648 65.0028V64.9416L298.678 63.4131Z" fill="#F9F7EF"/>
<path d="M291.555 69.3739C287.489 69.3739 284.188 67.4174 284.188 65.0022V63.168H298.923V65.0022C298.923 67.4174 295.621 69.3739 291.555 69.3739ZM284.646 63.6265V65.0022C284.646 67.1728 287.734 68.9154 291.555 68.9154C295.377 68.9154 298.464 67.1422 298.464 65.0022V63.6265H284.646Z" fill="#083B5A"/>
<path d="M291.555 67.6005C295.489 67.6005 298.678 65.7391 298.678 63.4429C298.678 61.1466 295.489 59.2852 291.555 59.2852C287.621 59.2852 284.432 61.1466 284.432 63.4429C284.432 65.7391 287.621 67.6005 291.555 67.6005Z" fill="#F9F7EF"/>
<path d="M291.555 67.8156C287.489 67.8156 284.187 65.8591 284.187 63.444C284.187 61.0288 287.489 59.0723 291.555 59.0723C295.621 59.0723 298.922 61.0288 298.922 63.444C298.922 65.8591 295.621 67.8156 291.555 67.8156ZM291.555 59.5003C287.733 59.5003 284.646 61.2734 284.646 63.4134C284.646 65.5534 287.733 67.3265 291.555 67.3265C295.376 67.3265 298.464 65.5534 298.464 63.4134C298.464 61.2734 295.346 59.5003 291.555 59.5003Z" fill="#083B5A"/>
<path d="M291.555 73.1964C287.703 73.1964 284.585 71.4233 284.432 69.1916C284.432 69.2527 284.432 69.2833 284.432 69.3444C284.432 71.6373 287.612 73.5021 291.555 73.5021C295.499 73.5021 298.678 71.6373 298.678 69.3444C298.678 69.2833 298.678 69.2527 298.678 69.1916C298.525 71.4233 295.407 73.1964 291.555 73.1964ZM291.555 67.2656C287.703 67.2656 284.585 65.4924 284.432 63.2607C284.432 63.3219 284.432 63.3525 284.432 63.4136C284.432 65.7064 287.612 67.5713 291.555 67.5713C295.499 67.5713 298.678 65.7064 298.678 63.4136C298.678 63.3525 298.678 63.3219 298.678 63.2607C298.525 65.4924 295.407 67.2656 291.555 67.2656Z" fill="#F9F7EF"/>
<path d="M291.555 73.7161C287.489 73.7161 284.188 71.7596 284.188 69.3444C284.188 69.3139 284.188 69.2527 284.188 69.2221V69.161H284.646C284.768 71.2398 287.856 72.9518 291.525 72.9518C295.193 72.9518 298.281 71.2398 298.403 69.161H298.862V69.2221C298.862 69.2527 298.862 69.3139 298.862 69.3444C298.923 71.7596 295.621 73.7161 291.555 73.7161ZM291.555 67.8159C287.489 67.8159 284.188 65.8593 284.188 63.4442C284.188 63.4136 284.188 63.3525 284.188 63.3219V63.2607H284.646C284.768 65.3396 287.856 67.0516 291.525 67.0516C295.193 67.0516 298.281 65.3396 298.403 63.2607H298.862V63.3219C298.862 63.3525 298.862 63.4136 298.862 63.4442C298.923 65.8593 295.621 67.8159 291.555 67.8159Z" fill="#083B5A"/>
<path d="M150.163 66.6543H135.886V68.1829V68.244C135.886 70.5368 139.066 72.4017 143.009 72.4017C146.953 72.4017 150.132 70.5368 150.132 68.244V68.1829V66.6543H150.163Z" fill="#F9F7EF"/>
<path d="M143.04 72.6464C138.974 72.6464 135.672 70.6898 135.672 68.2747V66.4404H150.407V68.2747C150.407 70.6898 147.106 72.6464 143.04 72.6464ZM136.13 66.899V68.2747C136.13 70.4453 139.218 72.1878 143.04 72.1878C146.861 72.1878 149.949 70.4147 149.949 68.2747V66.899H136.13Z" fill="#083B5A"/>
<path d="M143.04 70.8398C146.974 70.8398 150.163 68.9783 150.163 66.6821C150.163 64.3859 146.974 62.5244 143.04 62.5244C139.106 62.5244 135.917 64.3859 135.917 66.6821C135.917 68.9783 139.106 70.8398 143.04 70.8398Z" fill="#F9F7EF"/>
<path d="M143.04 71.0852C138.974 71.0852 135.672 69.1286 135.672 66.7135C135.672 64.2984 138.974 62.3418 143.04 62.3418C147.106 62.3418 150.407 64.2984 150.407 66.7135C150.407 69.1286 147.106 71.0852 143.04 71.0852ZM143.04 62.7698C139.218 62.7698 136.13 64.5429 136.13 66.6829C136.13 68.8229 139.218 70.596 143.04 70.596C146.861 70.596 149.949 68.8229 149.949 66.6829C149.949 64.5429 146.861 62.7698 143.04 62.7698Z" fill="#083B5A"/>
<path d="M149.215 60.5371H136.864V66.2845V66.3457C136.864 68.3328 139.616 69.9531 143.04 69.9531C146.464 69.9531 149.215 68.3328 149.215 66.3457V66.2845V60.5371Z" fill="#F9F7EF"/>
<path d="M143.04 70.1369C139.493 70.1369 136.62 68.4249 136.62 66.3155V60.293H149.429V66.3155C149.46 68.4249 146.586 70.1369 143.04 70.1369ZM137.109 60.7515V66.3155C137.109 68.1804 139.768 69.6783 143.07 69.6783C146.372 69.6783 149.032 68.1804 149.032 66.3155V60.7515H137.109Z" fill="#083B5A"/>
<path d="M150.163 60.7529H135.886V62.2815V62.3426C135.886 64.6355 139.066 66.5003 143.009 66.5003C146.953 66.5003 150.132 64.6355 150.132 62.3426V62.2815V60.7529H150.163Z" fill="#F9F7EF"/>
<path d="M143.04 66.7138C138.974 66.7138 135.672 64.7572 135.672 62.3421V60.5078H150.407V62.3421C150.407 64.7572 147.106 66.7138 143.04 66.7138ZM136.13 60.9664V62.3421C136.13 64.5126 139.218 66.2552 143.04 66.2552C146.861 66.2552 149.949 64.4821 149.949 62.3421V60.9664H136.13Z" fill="#083B5A"/>
<path d="M143.04 64.9414C146.974 64.9414 150.163 63.0799 150.163 60.7837C150.163 58.4874 146.974 56.626 143.04 56.626C139.106 56.626 135.917 58.4874 135.917 60.7837C135.917 63.0799 139.106 64.9414 143.04 64.9414Z" fill="#F9F7EF"/>
<path d="M143.04 65.1555C138.974 65.1555 135.672 63.1989 135.672 60.7838C135.672 58.3687 138.974 56.4121 143.04 56.4121C147.106 56.4121 150.407 58.3687 150.407 60.7838C150.407 63.1989 147.106 65.1555 143.04 65.1555ZM143.04 56.8401C139.218 56.8401 136.13 58.6132 136.13 60.7532C136.13 62.8932 139.218 64.6664 143.04 64.6664C146.861 64.6664 149.949 62.8932 149.949 60.7532C149.949 58.6132 146.861 56.8401 143.04 56.8401Z" fill="#083B5A"/>
<path d="M143.039 70.5343C139.187 70.5343 136.069 68.7612 135.916 66.5295C135.916 66.5906 135.916 66.6212 135.916 66.6823C135.916 68.9752 139.095 70.84 143.039 70.84C146.983 70.84 150.162 68.9752 150.162 66.6823C150.162 66.6212 150.162 66.5906 150.162 66.5295C150.009 68.7612 146.891 70.5343 143.039 70.5343ZM143.039 64.6035C139.187 64.6035 136.069 62.8303 135.916 60.5986C135.916 60.6598 135.916 60.6903 135.916 60.7515C135.916 63.0443 139.095 64.9092 143.039 64.9092C146.983 64.9092 150.162 63.0443 150.162 60.7515C150.162 60.6903 150.162 60.6598 150.162 60.5986C150.009 62.8303 146.891 64.6035 143.039 64.6035Z" fill="#F9F7EF"/>
<path d="M143.04 71.0846C138.974 71.0846 135.672 69.128 135.672 66.7129C135.672 66.6823 135.672 66.6212 135.672 66.5906V66.5295H136.13C136.253 68.6083 139.34 70.3203 143.009 70.3203C146.678 70.3203 149.765 68.6083 149.888 66.5295H150.346V66.5906C150.346 66.6212 150.346 66.6823 150.346 66.7129C150.407 69.0974 147.106 71.0846 143.04 71.0846ZM143.04 65.1537C138.974 65.1537 135.672 63.1972 135.672 60.7821C135.672 60.7515 135.672 60.6903 135.672 60.6598V60.5986H136.13C136.253 62.6775 139.34 64.3895 143.009 64.3895C146.678 64.3895 149.765 62.6775 149.888 60.5986H150.346V60.6598C150.346 60.6903 150.346 60.7515 150.346 60.7821C150.407 63.1972 147.106 65.1537 143.04 65.1537Z" fill="#083B5A"/>
<path d="M245.239 159.193H230.962V160.722V160.783C230.962 163.076 234.142 164.941 238.086 164.941C242.029 164.941 245.209 163.076 245.209 160.783V160.722L245.239 159.193Z" fill="#F9F7EF"/>
<path d="M238.085 165.155C234.019 165.155 230.717 163.199 230.717 160.783V158.949H245.453V160.783C245.453 163.199 242.151 165.155 238.085 165.155ZM231.206 159.408V160.783C231.206 162.954 234.294 164.697 238.116 164.697C241.937 164.697 245.025 162.923 245.025 160.783V159.408H231.206Z" fill="#083B5A"/>
<path d="M238.086 163.35C242.02 163.35 245.209 161.488 245.209 159.192C245.209 156.896 242.02 155.034 238.086 155.034C234.152 155.034 230.963 156.896 230.963 159.192C230.963 161.488 234.152 163.35 238.086 163.35Z" fill="#F9F7EF"/>
<path d="M238.085 163.595C234.019 163.595 230.718 161.638 230.718 159.223C230.718 156.808 234.019 154.852 238.085 154.852C242.151 154.852 245.453 156.808 245.453 159.223C245.453 161.638 242.151 163.595 238.085 163.595ZM238.085 155.28C234.264 155.28 231.176 157.053 231.176 159.193C231.176 161.333 234.264 163.106 238.085 163.106C241.907 163.106 244.995 161.333 244.995 159.193C244.995 157.053 241.907 155.28 238.085 155.28Z" fill="#083B5A"/>
<path d="M244.262 153.046H231.912V158.793V158.854C231.912 160.842 234.663 162.462 238.087 162.462C241.511 162.462 244.262 160.842 244.262 158.854V158.793V153.046Z" fill="#F9F7EF"/>
<path d="M238.087 162.676C234.541 162.676 231.667 160.964 231.667 158.855V152.832H244.476V158.855C244.507 160.964 241.633 162.676 238.087 162.676ZM232.156 153.26V158.824C232.156 160.689 234.816 162.187 238.118 162.187C241.419 162.187 244.079 160.689 244.079 158.824V153.26H232.156Z" fill="#083B5A"/>
<path d="M245.241 153.262H230.964V154.79V154.851C230.964 157.144 234.143 159.009 238.087 159.009C242.031 159.009 245.21 157.144 245.21 154.851V154.79L245.241 153.262Z" fill="#F9F7EF"/>
<path d="M238.087 159.254C234.021 159.254 230.719 157.297 230.719 154.882V153.048H245.455V154.882C245.455 157.267 242.153 159.254 238.087 159.254ZM231.208 153.506V154.882C231.208 157.053 234.296 158.795 238.117 158.795C241.939 158.795 245.027 157.022 245.027 154.882V153.506H231.208Z" fill="#083B5A"/>
<path d="M238.086 157.448C242.02 157.448 245.209 155.587 245.209 153.291C245.209 150.994 242.02 149.133 238.086 149.133C234.152 149.133 230.963 150.994 230.963 153.291C230.963 155.587 234.152 157.448 238.086 157.448Z" fill="#F9F7EF"/>
<path d="M238.086 157.662C234.02 157.662 230.718 155.706 230.718 153.291C230.718 150.876 234.02 148.919 238.086 148.919C242.152 148.919 245.454 150.876 245.454 153.291C245.454 155.706 242.152 157.662 238.086 157.662ZM238.086 149.378C234.265 149.378 231.177 151.151 231.177 153.291C231.177 155.431 234.265 157.204 238.086 157.204C241.907 157.204 244.995 155.431 244.995 153.291C244.995 151.151 241.907 149.378 238.086 149.378Z" fill="#083B5A"/>
<path d="M238.086 163.043C234.234 163.043 231.115 161.27 230.962 159.038C230.962 159.099 230.962 159.13 230.962 159.191C230.962 161.484 234.142 163.349 238.086 163.349C242.029 163.349 245.209 161.484 245.209 159.191C245.209 159.13 245.209 159.099 245.209 159.038C245.086 161.27 241.968 163.043 238.086 163.043ZM238.086 157.143C234.234 157.143 231.115 155.369 230.962 153.138C230.962 153.199 230.962 153.229 230.962 153.291C230.962 155.583 234.142 157.448 238.086 157.448C242.029 157.448 245.209 155.583 245.209 153.291C245.209 153.229 245.209 153.199 245.209 153.138C245.086 155.369 241.968 157.143 238.086 157.143Z" fill="#F9F7EF"/>
<path d="M238.116 163.594C234.05 163.594 230.748 161.638 230.748 159.223C230.748 159.192 230.748 159.131 230.748 159.1V159.039H231.207C231.329 161.118 234.417 162.83 238.085 162.83C241.754 162.83 244.841 161.118 244.964 159.039H245.422V159.1C245.422 159.131 245.422 159.192 245.422 159.223C245.453 161.638 242.151 163.594 238.116 163.594ZM238.116 157.664C234.05 157.664 230.748 155.707 230.748 153.292C230.748 153.261 230.748 153.2 230.748 153.17V153.108H231.207C231.329 155.187 234.417 156.899 238.085 156.899C241.754 156.899 244.841 155.187 244.964 153.108H245.422V153.17C245.422 153.2 245.422 153.261 245.422 153.292C245.453 155.707 242.151 157.664 238.116 157.664Z" fill="#083B5A"/>
<path d="M135.793 73.8965H121.517V75.425V75.4862C121.517 77.779 124.696 79.6439 128.64 79.6439C132.583 79.6439 135.763 77.779 135.763 75.4862V75.425L135.793 73.8965Z" fill="#F9F7EF"/>
<path d="M128.64 79.8886C124.574 79.8886 121.272 77.932 121.272 75.5169V73.6826H136.007V75.5169C136.007 77.9015 132.706 79.8886 128.64 79.8886ZM121.761 74.1412V75.5169C121.761 77.6875 124.849 79.43 128.67 79.43C132.492 79.43 135.579 77.6569 135.579 75.5169V74.1412H121.761Z" fill="#083B5A"/>
<path d="M128.671 78.0878C132.605 78.0878 135.795 76.2264 135.795 73.9302C135.795 71.6339 132.605 69.7725 128.671 69.7725C124.737 69.7725 121.548 71.6339 121.548 73.9302C121.548 76.2264 124.737 78.0878 128.671 78.0878Z" fill="#F9F7EF"/>
<path d="M128.671 78.301C124.605 78.301 121.304 76.3444 121.304 73.9293C121.304 71.5142 124.605 69.5576 128.671 69.5576C132.737 69.5576 136.039 71.5142 136.039 73.9293C136.039 76.3444 132.707 78.301 128.671 78.301ZM128.671 70.0162C124.85 70.0162 121.762 71.7893 121.762 73.9293C121.762 76.0693 124.85 77.8424 128.671 77.8424C132.493 77.8424 135.58 76.0693 135.58 73.9293C135.58 71.7893 132.462 70.0162 128.671 70.0162Z" fill="#083B5A"/>
<path d="M134.847 67.7539H122.496V73.5013V73.5625C122.496 75.5496 125.248 77.1699 128.671 77.1699C132.095 77.1699 134.847 75.5496 134.847 73.5625V73.5013V67.7539Z" fill="#F9F7EF"/>
<path d="M128.671 77.384C125.125 77.384 122.251 75.672 122.251 73.5626V67.54H135.061V73.5626C135.061 75.672 132.187 77.384 128.671 77.384ZM122.71 67.9986V73.5626C122.71 75.4274 125.37 76.9254 128.671 76.9254C131.973 76.9254 134.633 75.4274 134.633 73.5626V67.9986H122.71Z" fill="#083B5A"/>
<path d="M135.793 67.9961H121.516V69.5247V69.5858C121.516 71.8786 124.696 73.7435 128.639 73.7435C132.583 73.7435 135.762 71.8786 135.762 69.5858V69.5247L135.793 67.9961Z" fill="#F9F7EF"/>
<path d="M128.639 73.9579C124.573 73.9579 121.271 72.0014 121.271 69.5862V67.752H136.007V69.5862C136.007 72.0014 132.705 73.9579 128.639 73.9579ZM121.761 68.2105V69.5862C121.761 71.7568 124.848 73.4994 128.67 73.4994C132.491 73.4994 135.579 71.7262 135.579 69.5862V68.2105H121.761Z" fill="#083B5A"/>
<path d="M128.671 72.1884C132.605 72.1884 135.795 70.327 135.795 68.0307C135.795 65.7345 132.605 63.873 128.671 63.873C124.737 63.873 121.548 65.7345 121.548 68.0307C121.548 70.327 124.737 72.1884 128.671 72.1884Z" fill="#F9F7EF"/>
<path d="M128.671 72.4016C124.605 72.4016 121.304 70.445 121.304 68.0299C121.304 65.6148 124.605 63.6582 128.671 63.6582C132.737 63.6582 136.039 65.6148 136.039 68.0299C136.039 70.445 132.707 72.4016 128.671 72.4016ZM128.671 64.0862C124.85 64.0862 121.762 65.8593 121.762 67.9993C121.762 70.1393 124.85 71.9124 128.671 71.9124C132.493 71.9124 135.58 70.1393 135.58 67.9993C135.58 65.8593 132.462 64.0862 128.671 64.0862Z" fill="#083B5A"/>
<path d="M128.671 77.7814C124.819 77.7814 121.701 76.0082 121.548 73.7765C121.548 73.8377 121.548 73.8682 121.548 73.9294C121.548 76.2222 124.728 78.0871 128.671 78.0871C132.615 78.0871 135.795 76.2222 135.795 73.9294C135.795 73.8682 135.795 73.8377 135.795 73.7765C135.642 76.0082 132.523 77.7814 128.671 77.7814ZM128.671 71.8505C124.819 71.8505 121.701 70.0774 121.548 67.8457C121.548 67.9068 121.548 67.9374 121.548 67.9986C121.548 70.2914 124.728 72.1563 128.671 72.1563C132.615 72.1563 135.795 70.2914 135.795 67.9986C135.795 67.9374 135.795 67.9068 135.795 67.8457C135.642 70.0774 132.523 71.8505 128.671 71.8505Z" fill="#F9F7EF"/>
<path d="M128.671 78.3011C124.605 78.3011 121.304 76.3445 121.304 73.9294C121.304 73.8988 121.304 73.8377 121.304 73.8071V73.746H121.762C121.885 75.8248 124.972 77.5368 128.641 77.5368C132.309 77.5368 135.397 75.8248 135.519 73.746H135.978V73.8071C135.978 73.8377 135.978 73.8988 135.978 73.9294C136.008 76.3445 132.707 78.3011 128.671 78.3011ZM128.671 72.4008C124.605 72.4008 121.304 70.4443 121.304 68.0291C121.304 67.9986 121.304 67.9374 121.304 67.9068V67.8457H121.762C121.885 69.9245 124.972 71.6365 128.641 71.6365C132.309 71.6365 135.397 69.9245 135.519 67.8457H135.978V67.9068C135.978 67.9374 135.978 67.9986 135.978 68.0291C136.008 70.4443 132.707 72.4008 128.671 72.4008Z" fill="#083B5A"/>
<path d="M207.422 122.997L122.251 73.6244C121.578 73.227 121.181 72.5544 121.211 71.7902C121.211 71.0259 121.609 70.3533 122.281 69.9559L122.587 69.7725L123.137 70.7507L122.831 70.9342C122.526 71.1176 122.342 71.4233 122.342 71.7902C122.342 72.157 122.526 72.4627 122.831 72.6462L208.034 122.049L207.422 122.997Z" fill="#083B5A"/>
<path d="M150.04 118.868C151.843 118.715 153.586 118.226 154.931 117.37C156.49 116.392 157.224 115.108 157.102 113.824H157.163V94.1358V91.6289H157.102C157.193 92.8823 156.49 94.1663 154.931 95.1446C153.402 96.0923 151.385 96.612 149.336 96.6732C148.022 96.7037 147.472 97.6515 148.389 98.1712L149.428 98.7826C149.398 98.7826 149.367 98.7826 149.336 98.7826C148.022 98.8437 150.04 118.868 150.04 118.868Z" fill="#F9D97D"/>
<path d="M150.284 119.083H150.039V118.869L149.825 118.899C149.642 117.004 148.022 100.648 149 98.8139L148.297 98.4165C147.869 98.1719 147.655 97.7745 147.747 97.4076C147.869 96.8879 148.511 96.521 149.336 96.4905C151.446 96.4293 153.402 95.879 154.839 94.9925C156.276 94.1059 157.01 92.9136 156.918 91.6908L156.887 91.5073L157.407 91.3545V114.1H157.346C157.346 115.414 156.551 116.667 155.053 117.615C153.769 118.379 152.118 118.899 150.284 119.083ZM149.367 99.0279C148.725 99.7922 149.336 109.606 150.253 118.624C152.027 118.441 153.586 117.951 154.809 117.187C156.245 116.301 156.979 115.108 156.887 113.855L156.857 113.61H156.949V94.2282H156.887V94.1365H156.949V93.4639C156.582 94.167 155.94 94.809 155.084 95.3593C153.586 96.2765 151.568 96.8573 149.367 96.9185C148.694 96.949 148.266 97.2242 148.205 97.4993C148.144 97.7439 148.389 97.9273 148.541 97.9885L150.315 99.0279H149.459C149.397 99.0279 149.367 99.0279 149.367 99.0279Z" fill="#083B5A"/>
<path d="M148.694 110.094C147.961 110.522 146.768 110.246 146.646 109.635C146.432 108.412 145.454 107.22 143.711 106.333C140.562 104.713 135.335 104.682 132.186 106.272C129.679 107.526 128.731 109.421 129.373 111.133C129.098 111.897 129.129 130.301 129.435 131.065C129.863 130.118 130.78 129.201 132.186 128.497C135.365 126.908 140.562 126.938 143.711 128.559C145.454 129.445 146.432 130.637 146.646 131.86C146.738 132.441 147.961 132.716 148.694 132.319L158.875 126.327V104.102L148.694 110.094Z" fill="#F9D97D"/>
<path d="M147.869 132.747C147.563 132.747 147.288 132.686 147.013 132.563C146.677 132.411 146.463 132.166 146.432 131.891C146.218 130.699 145.209 129.567 143.62 128.742C140.563 127.183 135.365 127.152 132.278 128.681C130.963 129.323 130.077 130.179 129.649 131.127L129.435 131.616L129.221 131.127C128.884 130.362 128.793 112.814 129.129 111.133C128.487 109.238 129.588 107.281 132.094 106.058C135.335 104.438 140.593 104.468 143.834 106.119C145.576 107.006 146.677 108.229 146.891 109.574C146.921 109.696 147.044 109.818 147.227 109.91C147.563 110.063 148.144 110.124 148.542 109.91L148.572 109.88L159.089 103.704V126.449L148.786 132.502C148.542 132.655 148.205 132.747 147.869 132.747ZM137.872 127.122C140.012 127.122 142.183 127.55 143.834 128.375C145.576 129.262 146.677 130.485 146.891 131.83C146.921 131.952 147.044 132.074 147.227 132.166C147.594 132.319 148.175 132.38 148.603 132.135L158.661 126.205V104.499L149.551 109.849L148.817 110.277C148.328 110.552 147.563 110.583 147.013 110.338C146.677 110.185 146.463 109.941 146.432 109.665C146.218 108.473 145.209 107.342 143.62 106.517C140.563 104.958 135.365 104.927 132.278 106.456C129.985 107.587 128.946 109.36 129.588 111.041L129.618 111.133L129.588 111.225C129.343 112.019 129.374 126.999 129.588 130.332C130.107 129.537 130.963 128.834 132.094 128.283C133.684 127.519 135.763 127.122 137.872 127.122Z" fill="#083B5A"/>
<g opacity="0.5">
<path d="M146.646 109.638C146.432 108.415 145.454 107.223 143.711 106.336C140.562 104.716 135.335 104.685 132.186 106.275C129.679 107.528 128.731 109.424 129.373 111.136C129.098 111.9 129.129 130.304 129.435 131.068C129.863 130.121 130.78 129.203 132.186 128.5C135.365 126.911 140.562 126.941 143.711 128.561C145.454 129.448 146.432 130.64 146.646 131.863" fill="#F9D97D"/>
<path d="M146.432 131.925C146.218 130.732 145.209 129.601 143.62 128.776C140.563 127.217 135.365 127.186 132.278 128.715C130.963 129.357 130.077 130.213 129.649 131.16L129.435 131.649L129.221 131.16C128.884 130.396 128.793 112.848 129.129 111.167C128.487 109.271 129.588 107.315 132.094 106.092C135.335 104.472 140.593 104.502 143.834 106.153C145.576 107.04 146.677 108.262 146.891 109.608L146.432 109.699C146.218 108.507 145.209 107.376 143.62 106.55C140.563 104.991 135.365 104.961 132.278 106.489C129.985 107.62 128.946 109.394 129.588 111.075L129.618 111.167L129.588 111.258C129.343 112.053 129.374 127.033 129.588 130.365C130.107 129.571 130.963 128.867 132.094 128.317C135.335 126.697 140.593 126.727 143.834 128.378C145.576 129.265 146.677 130.488 146.891 131.833L146.432 131.925Z" fill="#083B5A"/>
</g>
<path d="M129.374 123.577C129.343 123.455 129.282 123.332 129.251 123.21C129.19 125.014 129.16 128.224 129.16 131.434C129.19 127.429 129.251 123.883 129.374 123.577Z" fill="#F9D97D"/>
<path d="M129.404 131.434H128.946C128.946 127.98 128.976 124.892 129.038 123.18L129.099 121.438L129.496 123.119C129.527 123.241 129.557 123.363 129.588 123.455L129.618 123.547L129.588 123.639C129.496 123.914 129.404 126.421 129.404 131.434Z" fill="#083B5A"/>
<path d="M128.64 143.937L137.842 138.587C138.117 138.434 138.209 138.22 138.178 138.037V115.934C138.178 116.086 138.056 116.239 137.842 116.392L128.64 121.742V143.937Z" fill="#F9D97D"/>
<path d="M128.425 144.334V121.467H128.609L137.75 116.147C137.902 116.055 137.964 115.964 137.964 115.872L138.422 115.903V138.006C138.453 138.159 138.453 138.525 137.964 138.77L128.425 144.334ZM128.884 121.833V143.539L137.75 138.373C137.841 138.311 137.994 138.189 137.964 138.067V138.006V116.545L128.884 121.833Z" fill="#083B5A"/>
<path d="M128.64 121.711L137.842 116.361C138.575 115.933 138.086 115.26 137.077 115.199C135.121 115.077 133.226 114.588 131.728 113.732C128.151 111.653 128.273 108.26 132.156 106.334C135.335 104.744 140.532 104.774 143.681 106.395C145.423 107.281 146.402 108.474 146.616 109.696C146.707 110.277 147.93 110.552 148.664 110.155L158.844 104.163L148.328 98.2322C147.411 97.6819 147.961 96.7648 149.275 96.7342C151.324 96.673 153.341 96.1533 154.87 95.2056C157.805 93.3714 157.805 90.4671 154.839 88.6328C151.568 86.5845 146.065 86.554 142.733 88.4799C141.235 89.3359 140.44 90.4671 140.318 91.5982C140.226 92.3625 138.606 92.6682 137.689 92.1485L128.304 86.8291L98.0991 104.438L128.64 121.711Z" fill="#F9D97D"/>
<path d="M128.884 122.109L97.2734 104.102H98.0683L128.303 86.4932H128.426L128.487 86.5237L137.872 91.8431C138.453 92.1794 139.309 92.1183 139.798 91.8737C139.92 91.8126 140.134 91.6597 140.165 91.4763C140.287 90.2229 141.204 89.0612 142.702 88.2052C146.157 86.218 151.69 86.2792 155.053 88.358C156.551 89.3057 157.377 90.5286 157.377 91.8737C157.377 93.1883 156.551 94.4111 155.084 95.3588C153.586 96.276 151.568 96.8568 149.367 96.918C148.694 96.9485 148.266 97.2237 148.205 97.4988C148.144 97.7434 148.389 97.9268 148.541 97.988L159.394 104.102L148.878 110.278C148.389 110.583 147.655 110.583 147.074 110.339C146.738 110.186 146.524 109.941 146.493 109.666C146.279 108.474 145.27 107.343 143.681 106.517C140.623 104.958 135.426 104.928 132.339 106.456C130.535 107.343 129.496 108.627 129.465 109.972C129.434 111.286 130.29 112.509 131.941 113.457C133.348 114.282 135.212 114.772 137.2 114.894C137.872 114.924 138.392 115.261 138.514 115.658C138.545 115.811 138.575 116.178 138.056 116.484L128.976 121.772V122.109H128.884ZM98.6186 104.347L128.67 121.467L137.78 116.178C137.872 116.117 138.056 115.994 138.025 115.872C137.994 115.689 137.658 115.475 137.138 115.444C135.09 115.322 133.134 114.802 131.666 113.946C129.893 112.907 128.915 111.531 128.976 110.064C129.006 108.535 130.168 107.129 132.125 106.15C135.365 104.53 140.623 104.561 143.864 106.212C145.607 107.098 146.707 108.321 146.921 109.666C146.952 109.788 147.074 109.911 147.257 110.002C147.624 110.155 148.205 110.216 148.633 109.972L158.477 104.194L148.327 98.4771C147.899 98.2325 147.685 97.8351 147.777 97.4682C147.899 96.9485 148.541 96.5817 149.367 96.5511C151.476 96.49 153.433 95.9397 154.87 95.0531C156.215 94.2277 156.949 93.1271 156.949 91.9654C156.949 90.8037 156.184 89.7032 154.839 88.8472C151.66 86.8906 146.249 86.7989 142.977 88.6943C141.602 89.4892 140.776 90.5286 140.654 91.6291C140.623 91.9348 140.409 92.21 140.043 92.3934C139.462 92.6991 138.422 92.7908 137.689 92.3629L128.426 87.1046L98.6186 104.347Z" fill="#083B5A"/>
<path d="M128.671 121.711V143.937L98.1606 126.542V104.316L128.671 121.711ZM138.209 148.736C138.209 148.675 138.209 148.645 138.209 148.584V148.736Z" fill="#F9D97D"/>
<path d="M137.964 150.998V146.321L138.423 148.553C138.454 148.644 138.454 148.706 138.423 148.797L137.964 150.998ZM128.885 144.334L97.916 126.694V103.949L128.885 121.589V144.334ZM98.3746 126.419L128.426 143.539V121.833L98.3746 104.714V126.419Z" fill="#083B5A"/>
<path d="M108.921 151.917L108.371 150.939L185.074 108.781L186.572 109.668L108.921 151.917Z" fill="#083B5A"/>
<path d="M217.113 113.093L216.074 112.481C216.104 112.481 216.135 112.481 216.165 112.481C217.48 112.451 218.03 111.503 217.113 110.983L207.147 105.297V127.522L215.462 132.261C215.707 132.23 215.951 114.621 216.165 114.621C217.48 114.56 218.03 113.643 217.113 113.093ZM216.074 129.57L216.135 129.601V129.57H216.074Z" fill="#F9D97D"/>
<path d="M215.401 132.475L215.34 132.444L206.902 127.644V104.899L217.235 110.8C217.663 111.044 217.877 111.442 217.786 111.809C217.694 112.206 217.297 112.512 216.777 112.634L217.358 112.97C217.725 113.215 217.877 113.551 217.786 113.918C217.663 114.407 217.113 114.743 216.349 114.835C216.257 115.661 216.135 119.788 216.043 123.456C215.982 126.146 215.921 128.042 215.86 129.356L216.379 129.326L216.288 129.968L215.829 129.723C215.737 132.475 215.646 132.475 215.432 132.505L215.401 132.475ZM207.361 127.369L215.279 131.894C215.371 130.824 215.493 126.911 215.585 123.426C215.829 114.407 215.829 114.407 216.165 114.377C216.838 114.346 217.266 114.071 217.327 113.796C217.388 113.551 217.144 113.368 216.991 113.307L215.218 112.267H216.074C216.135 112.267 216.135 112.267 216.165 112.267C216.838 112.237 217.266 111.961 217.327 111.686C217.388 111.442 217.144 111.258 216.991 111.197L207.361 105.694V127.369Z" fill="#083B5A"/>
<path d="M217.113 128.468L216.074 127.856C216.104 127.856 216.135 127.856 216.165 127.856C217.48 127.826 218.03 126.878 217.113 126.786L207.147 121.1V120.642V122.904L217.113 128.59C217.388 128.743 217.541 128.957 217.572 129.14C217.602 128.926 217.449 128.682 217.113 128.468ZM233.438 96.4291C231.94 95.5731 230.045 95.0839 228.088 94.9616C227.446 94.9311 227.018 94.6253 226.988 94.2891H226.957V116.514H226.988C227.018 116.82 227.416 117.126 228.088 117.187C230.045 117.309 231.94 117.798 233.438 118.654C234.6 119.327 235.364 120.152 235.731 121.008C236.067 120.244 236.098 101.84 235.823 101.076C236.434 99.4556 235.639 97.6825 233.438 96.4291ZM266.975 105.57L237.199 122.445V144.671L266.975 127.795V105.57Z" fill="#F9D97D"/>
<path d="M236.984 145.069V122.324L237.107 122.263L267.219 105.204V127.949L267.097 128.01L236.984 145.069ZM237.443 122.568V144.274L266.761 127.674V105.968L237.443 122.568ZM217.541 130.884L217.327 129.202C217.297 129.08 217.205 128.927 216.991 128.805L206.902 123.027V120.642H207.361V120.948L217.174 126.573C217.633 126.634 217.786 126.879 217.786 127.123C217.786 127.46 217.388 127.826 216.746 128.01L217.205 128.285C217.602 128.53 217.816 128.866 217.755 129.233L217.541 130.884ZM215.86 127.643H216.043C216.104 127.643 216.104 127.643 216.135 127.643C216.685 127.612 217.113 127.429 217.266 127.215C217.327 127.154 217.327 127.123 217.327 127.123C217.327 127.123 217.266 127.062 217.083 127.032H217.021L216.991 127.001L207.361 121.498V122.782L215.86 127.643ZM235.762 121.559L235.548 121.07C235.181 120.214 234.416 119.45 233.346 118.839C231.94 118.013 230.075 117.524 228.088 117.402C227.477 117.371 226.988 117.096 226.835 116.729H226.743L226.713 116.485V94.0146H227.141L227.171 94.2286C227.171 94.3815 227.477 94.6566 228.058 94.6872C230.106 94.8095 232.032 95.3292 233.53 96.1852C235.731 97.4386 236.648 99.2729 236.037 101.046C236.342 102.727 236.251 120.275 235.914 121.04L235.762 121.559ZM227.202 116.393L227.232 116.515C227.232 116.668 227.538 116.943 228.119 116.974C230.167 117.096 232.124 117.616 233.591 118.472C234.478 118.991 235.181 119.603 235.639 120.306C235.853 116.974 235.884 101.994 235.639 101.168L235.609 101.107L235.639 101.015C236.22 99.4258 235.364 97.8055 233.346 96.6438C231.94 95.8184 230.075 95.3292 228.088 95.2069C227.752 95.1764 227.446 95.0846 227.202 94.9624V116.393Z" fill="#083B5A"/>
<path d="M227.752 117.128C226.835 116.578 225.214 116.914 225.123 117.679C225 118.81 224.206 119.91 222.708 120.797C219.345 122.723 213.872 122.662 210.601 120.644C209.164 119.757 208.431 118.596 208.4 117.434H208.37V139.659H208.4C208.431 140.821 209.164 141.983 210.601 142.869C213.872 144.918 219.375 144.948 222.708 143.022C224.206 142.166 225 141.035 225.123 139.904C225.214 139.14 226.835 138.834 227.752 139.354L237.229 144.673V122.448L227.752 117.128Z" fill="#F9D97D"/>
<path d="M237.443 145.069L227.63 139.566C227.049 139.23 226.193 139.291 225.704 139.536C225.581 139.597 225.368 139.75 225.337 139.933C225.215 141.187 224.297 142.348 222.799 143.204C219.345 145.191 213.812 145.13 210.449 143.051C209.073 142.195 208.248 141.064 208.125 139.872L208.095 139.627V117.158H208.553L208.584 117.372C208.614 118.503 209.379 119.573 210.693 120.398C213.873 122.355 219.284 122.446 222.555 120.551C223.931 119.756 224.756 118.717 224.878 117.616C224.909 117.31 225.123 117.035 225.49 116.852C226.071 116.546 227.11 116.454 227.844 116.913L227.966 116.974L237.443 122.294V145.069ZM226.651 138.863C227.079 138.863 227.507 138.955 227.844 139.169L236.954 144.305V122.599L227.507 117.28C226.927 117.005 226.132 117.066 225.673 117.28C225.551 117.341 225.337 117.494 225.306 117.677C225.184 118.931 224.267 120.092 222.769 120.948C219.314 122.936 213.781 122.874 210.418 120.796C209.562 120.276 208.92 119.634 208.523 118.931V139.444L208.553 139.597C208.584 140.728 209.348 141.798 210.663 142.623C213.812 144.58 219.253 144.672 222.524 142.776C223.9 141.981 224.725 140.942 224.848 139.841C224.878 139.536 225.092 139.261 225.459 139.077C225.795 138.955 226.223 138.863 226.651 138.863Z" fill="#083B5A"/>
<path d="M267.006 105.57L236.924 88.4199L227.324 93.7699C226.621 94.1979 227.08 94.8705 228.089 94.9316C230.045 95.0539 231.941 95.543 233.439 96.399C237.016 98.4779 236.893 101.871 233.011 103.797C229.862 105.387 224.634 105.356 221.485 103.736C219.743 102.85 218.765 101.657 218.551 100.434C218.459 99.8536 217.236 99.5784 216.502 99.9759L207.147 105.204L217.114 110.89C218.031 111.44 217.481 112.357 216.166 112.388C214.118 112.449 212.1 112.969 210.571 113.916C207.637 115.751 207.637 118.655 210.602 120.489C213.873 122.537 219.376 122.568 222.708 120.642C224.206 119.786 225.001 118.655 225.123 117.524C225.215 116.759 226.835 116.454 227.752 116.973L237.23 122.293L267.006 105.57Z" fill="#F9D97D"/>
<path d="M237.199 122.69L227.63 117.31C227.049 116.974 226.193 117.035 225.704 117.279C225.582 117.34 225.368 117.493 225.337 117.677C225.215 118.93 224.298 120.092 222.8 120.948C219.345 122.935 213.812 122.874 210.449 120.795C208.951 119.847 208.125 118.624 208.125 117.279C208.125 115.965 208.951 114.742 210.418 113.825C211.916 112.908 213.934 112.327 216.135 112.266C216.808 112.235 217.236 111.96 217.297 111.685C217.358 111.44 217.113 111.257 216.961 111.196L206.627 105.295L216.349 99.8537C216.838 99.5786 217.572 99.548 218.153 99.7926C218.489 99.9454 218.703 100.19 218.734 100.465C218.948 101.657 219.957 102.789 221.546 103.614C224.603 105.173 229.8 105.204 232.888 103.675C234.692 102.789 235.731 101.505 235.762 100.159C235.792 98.8449 234.936 97.622 233.286 96.6743C231.879 95.8489 230.014 95.3597 228.027 95.2374C227.355 95.2069 226.835 94.8706 226.713 94.4732C226.682 94.3203 226.652 93.9534 227.171 93.6477L236.893 88.2061L266.945 105.357L267.189 105.234V106.029L266.945 105.907L237.199 122.69ZM226.652 116.607C227.08 116.607 227.508 116.698 227.844 116.912L237.199 122.171L266.547 105.571L236.954 88.6646L227.446 93.9534C227.355 94.0146 227.202 94.1369 227.232 94.2592C227.263 94.4426 227.599 94.6566 228.119 94.6872C230.167 94.8094 232.124 95.3292 233.591 96.1852C235.364 97.2246 236.343 98.6003 236.282 100.068C236.251 101.596 235.089 103.003 233.133 103.981C229.892 105.601 224.634 105.571 221.393 103.92C219.651 103.033 218.55 101.81 218.336 100.465C218.306 100.343 218.183 100.221 218 100.129C217.633 99.976 217.052 99.9149 216.624 100.159L207.606 105.204L217.236 110.707C217.664 110.951 217.878 111.349 217.786 111.715C217.664 112.235 217.022 112.602 216.196 112.632C214.087 112.694 212.13 113.244 210.693 114.13C209.348 114.956 208.615 116.056 208.615 117.218C208.615 118.38 209.379 119.48 210.724 120.336C213.903 122.293 219.315 122.385 222.586 120.489C223.961 119.694 224.787 118.655 224.909 117.554C224.94 117.249 225.154 116.974 225.52 116.79C225.796 116.729 226.224 116.607 226.652 116.607Z" fill="#083B5A"/>
<path d="M237.963 161.058C235.976 161.058 234.02 160.538 232.247 159.499L158.875 117.157V115.873L232.797 158.52C236.099 160.446 240.134 160.385 243.344 158.367L298.372 66.3174L298.464 67.9377L243.955 159.346C242.121 160.477 240.042 161.058 237.963 161.058Z" fill="#083B5A"/>
<path d="M156.306 132.011C156.275 132.011 156.245 132.011 156.245 132.011L157.254 131.431C158.171 130.911 157.621 129.963 156.306 129.902C154.349 129.841 152.423 129.352 150.895 128.496C149.458 127.67 148.663 126.6 148.449 125.53V127.089C148.388 127.395 148.388 127.701 148.449 128.007V146.808C148.205 148.214 148.999 149.651 150.895 150.752C152.209 151.516 153.891 151.974 155.603 152.127L157.254 133.571C158.171 132.99 157.621 132.042 156.306 132.011ZM185.593 126.6C183.484 126.723 181.436 127.273 179.907 128.282C178.103 129.443 177.492 131.125 178.012 132.684C177.736 133.448 177.767 151.852 178.073 152.616C178.378 151.852 178.99 151.118 179.907 150.538C181.436 149.529 183.484 148.978 185.593 148.856C186.266 148.826 186.694 148.52 186.694 148.184V126.019C186.633 126.295 186.235 126.57 185.593 126.6Z" fill="#F9D97D"/>
<path d="M178.073 153.198L177.859 152.678C177.553 151.914 177.462 134.336 177.767 132.685C177.217 131.003 177.981 129.261 179.785 128.099C181.253 127.151 183.209 126.54 185.38 126.387H185.594C186.113 126.357 186.45 126.143 186.48 125.959L186.939 125.99V148.154C186.908 148.643 186.388 149.01 185.624 149.071C183.454 149.193 181.467 149.774 180.03 150.722C179.204 151.272 178.593 151.945 178.287 152.709L178.073 153.198ZM185.838 126.815L185.624 126.846C183.454 126.968 181.467 127.549 180.03 128.497C178.379 129.567 177.706 131.126 178.226 132.624L178.257 132.685L178.226 132.746C177.981 133.541 178.012 148.429 178.226 151.822C178.593 151.242 179.113 150.752 179.785 150.294C181.283 149.316 183.362 148.704 185.594 148.582C186.174 148.551 186.48 148.276 186.48 148.123V126.571C186.297 126.693 186.083 126.785 185.838 126.815ZM155.817 152.312L155.603 152.281C153.769 152.128 152.118 151.639 150.804 150.875C148.939 149.805 147.991 148.276 148.266 146.717V127.946C148.205 127.61 148.205 127.304 148.266 126.999V125.47L148.725 125.439C148.908 126.479 149.734 127.488 151.048 128.252C152.454 129.077 154.35 129.567 156.337 129.628C157.162 129.658 157.804 130.025 157.927 130.575C158.018 130.973 157.804 131.34 157.376 131.584L156.918 131.859C157.437 132.012 157.804 132.318 157.927 132.715C158.018 133.052 157.835 133.419 157.499 133.663L155.817 152.312ZM148.694 126.723V127.09C148.664 127.335 148.664 127.641 148.694 127.916V127.946V146.778C148.45 148.154 149.306 149.499 151.018 150.477C152.21 151.18 153.738 151.639 155.389 151.792L157.01 133.357L157.101 133.296C157.254 133.205 157.499 133.021 157.437 132.807C157.376 132.532 156.948 132.257 156.276 132.226C156.245 132.226 156.215 132.226 156.184 132.226L155.512 132.135L157.132 131.187C157.285 131.095 157.529 130.912 157.468 130.698C157.407 130.423 156.979 130.147 156.306 130.117C154.228 130.025 152.271 129.536 150.804 128.68C149.856 128.13 149.122 127.457 148.694 126.723Z" fill="#083B5A"/>
<path d="M176.331 154.268L206.107 137.118L197.242 131.737C196.508 131.309 195.316 131.584 195.224 132.165C195.04 133.296 194.215 134.397 192.717 135.253C189.14 137.301 183.27 137.209 179.877 134.947C177.126 133.113 177.126 130.086 179.908 128.282C181.436 127.274 183.484 126.723 185.594 126.601C186.603 126.54 187.092 125.837 186.358 125.439L177.065 119.937L167.801 125.317C166.884 125.837 165.264 125.501 165.203 124.767C165.05 123.575 164.163 122.413 162.513 121.526C159.333 119.814 154.258 119.814 151.109 121.496C147.594 123.361 147.533 126.54 150.896 128.496C152.394 129.352 154.319 129.842 156.307 129.903C157.591 129.964 158.171 130.881 157.254 131.431L147.288 137.118L176.331 154.268Z" fill="#F9D97D"/>
<path d="M176.087 154.666V154.39L147.197 137.332H146.402L147.136 136.904L157.102 131.187C157.255 131.095 157.499 130.912 157.438 130.698C157.377 130.423 156.949 130.147 156.276 130.117C154.198 130.025 152.241 129.536 150.774 128.68C149.092 127.702 148.144 126.387 148.175 124.981C148.206 123.544 149.184 122.229 150.988 121.282C154.228 119.539 159.334 119.539 162.605 121.312C164.255 122.199 165.264 123.422 165.417 124.736C165.448 124.95 165.662 125.073 165.815 125.164C166.304 125.409 167.129 125.47 167.71 125.134L177.065 119.723L186.481 125.287C187 125.592 186.97 125.959 186.939 126.112C186.848 126.54 186.297 126.846 185.625 126.876C183.454 126.999 181.467 127.579 180.03 128.527C178.746 129.353 178.043 130.484 178.043 131.645C178.043 132.838 178.746 133.938 180 134.794C183.301 136.995 189.079 137.118 192.595 135.069C193.971 134.275 194.827 133.235 194.98 132.135C195.01 131.859 195.224 131.645 195.53 131.493C195.988 131.279 196.783 131.217 197.334 131.554L206.138 136.904H206.933L206.199 137.332L176.087 154.666ZM147.747 137.118L176.331 154.024L205.649 137.118L197.12 131.951C196.692 131.707 196.08 131.737 195.744 131.921C195.652 131.982 195.469 132.073 195.438 132.226C195.224 133.48 194.338 134.611 192.809 135.467C189.14 137.576 183.149 137.454 179.725 135.161C178.318 134.213 177.554 132.96 177.554 131.615C177.554 130.27 178.349 129.016 179.755 128.099C181.253 127.121 183.332 126.509 185.564 126.387C186.083 126.357 186.42 126.143 186.45 125.959C186.481 125.806 186.328 125.684 186.206 125.653L177.034 120.242L167.893 125.531C167.16 125.959 166.151 125.867 165.57 125.562C165.203 125.378 164.989 125.103 164.928 124.797C164.775 123.636 163.889 122.535 162.36 121.74C159.272 120.09 154.228 120.059 151.171 121.71C149.551 122.566 148.634 123.758 148.603 125.011C148.572 126.234 149.428 127.396 150.957 128.313C152.363 129.139 154.259 129.628 156.246 129.689C157.071 129.719 157.713 130.086 157.835 130.637C157.927 131.034 157.713 131.401 157.285 131.645L147.747 137.118Z" fill="#083B5A"/>
<path d="M206.108 137.118V159.343L176.332 176.494V154.269L206.108 137.118Z" fill="#F9D97D"/>
<path d="M176.118 176.891V154.146L176.24 154.085L206.353 136.721V159.466L206.23 159.527L176.118 176.891ZM176.576 154.391V176.096L205.894 159.191V137.485L176.576 154.391Z" fill="#083B5A"/>
<path d="M176.331 154.269V176.494L147.289 159.343V137.118L176.331 154.269Z" fill="#F9D97D"/>
<path d="M176.575 176.891L176.239 176.677L147.074 159.466V136.721L147.41 136.935L176.575 154.146V176.891ZM147.502 159.221L176.086 176.096V154.391L147.502 137.516V159.221Z" fill="#083B5A"/>
<path d="M191.463 195.111H177.217V196.64V196.701C177.217 198.994 180.397 200.859 184.34 200.859C188.284 200.859 191.463 198.994 191.463 196.701V196.64V195.111Z" fill="#F9F7EF"/>
<path d="M184.34 201.103C180.274 201.103 176.973 199.147 176.973 196.732V194.897H191.708V196.732C191.708 199.116 188.406 201.103 184.34 201.103ZM177.431 195.356V196.732C177.431 198.902 180.519 200.645 184.34 200.645C188.162 200.645 191.249 198.872 191.249 196.732V195.356H177.431Z" fill="#083B5A"/>
<path d="M184.341 199.302C188.275 199.302 191.464 197.44 191.464 195.144C191.464 192.848 188.275 190.986 184.341 190.986C180.407 190.986 177.218 192.848 177.218 195.144C177.218 197.44 180.407 199.302 184.341 199.302Z" fill="#F9F7EF"/>
<path d="M184.341 199.516C180.275 199.516 176.974 197.559 176.974 195.144C176.974 192.729 180.275 190.772 184.341 190.772C188.407 190.772 191.709 192.729 191.709 195.144C191.709 197.559 188.407 199.516 184.341 199.516ZM184.341 191.231C180.52 191.231 177.432 193.004 177.432 195.144C177.432 197.284 180.52 199.057 184.341 199.057C188.163 199.057 191.25 197.284 191.25 195.144C191.25 193.004 188.132 191.231 184.341 191.231Z" fill="#083B5A"/>
<path d="M190.517 188.968H178.166V194.715V194.776C178.166 196.763 180.917 198.384 184.341 198.384C187.765 198.384 190.517 196.763 190.517 194.776V194.715V188.968Z" fill="#F9F7EF"/>
<path d="M184.341 198.597C180.795 198.597 177.921 196.885 177.921 194.775V188.753H190.731V194.775C190.731 196.885 187.857 198.597 184.341 198.597ZM178.38 189.211V194.775C178.38 196.64 181.04 198.138 184.341 198.138C187.643 198.138 190.303 196.64 190.303 194.775V189.211H178.38Z" fill="#083B5A"/>
<path d="M191.463 189.211H177.217V190.74V190.801C177.217 193.093 180.397 194.958 184.34 194.958C188.284 194.958 191.463 193.093 191.463 190.801V190.74V189.211Z" fill="#F9F7EF"/>
<path d="M184.34 195.173C180.274 195.173 176.973 193.216 176.973 190.801V188.967H191.708V190.801C191.708 193.216 188.406 195.173 184.34 195.173ZM177.431 189.425V190.801C177.431 192.972 180.519 194.714 184.34 194.714C188.162 194.714 191.249 192.941 191.249 190.801V189.425H177.431Z" fill="#083B5A"/>
<path d="M184.341 193.371C188.275 193.371 191.464 191.51 191.464 189.213C191.464 186.917 188.275 185.056 184.341 185.056C180.407 185.056 177.218 186.917 177.218 189.213C177.218 191.51 180.407 193.371 184.341 193.371Z" fill="#F9F7EF"/>
<path d="M184.341 193.615C180.275 193.615 176.974 191.659 176.974 189.244C176.974 186.829 180.275 184.872 184.341 184.872C188.407 184.872 191.709 186.829 191.709 189.244C191.709 191.659 188.407 193.615 184.341 193.615ZM184.341 185.3C180.52 185.3 177.432 187.073 177.432 189.213C177.432 191.353 180.52 193.126 184.341 193.126C188.163 193.126 191.25 191.353 191.25 189.213C191.25 187.073 188.132 185.3 184.341 185.3Z" fill="#083B5A"/>
<path d="M184.341 198.994C180.489 198.994 177.371 197.221 177.218 194.989C177.218 195.051 177.218 195.081 177.218 195.142C177.218 197.435 180.397 199.3 184.341 199.3C188.285 199.3 191.464 197.435 191.464 195.142C191.464 195.081 191.464 195.051 191.464 194.989C191.311 197.221 188.193 198.994 184.341 198.994ZM184.341 193.063C180.489 193.063 177.371 191.29 177.218 189.059C177.218 189.12 177.218 189.15 177.218 189.211C177.218 191.504 180.397 193.369 184.341 193.369C188.285 193.369 191.464 191.504 191.464 189.211C191.464 189.15 191.464 189.12 191.464 189.059C191.311 191.29 188.193 193.063 184.341 193.063Z" fill="#F9F7EF"/>
<path d="M184.341 199.514C180.275 199.514 176.973 197.557 176.973 195.142C176.973 195.112 176.973 195.051 176.973 195.02V194.959H177.432C177.554 197.038 180.642 198.75 184.31 198.75C187.979 198.75 191.066 197.038 191.189 194.959H191.647V195.02C191.647 195.051 191.647 195.112 191.647 195.142C191.708 197.557 188.407 199.514 184.341 199.514ZM184.341 193.614C180.275 193.614 176.973 191.657 176.973 189.242C176.973 189.211 176.973 189.15 176.973 189.12V189.059H177.432C177.554 191.137 180.642 192.849 184.31 192.849C187.979 192.849 191.066 191.137 191.189 189.059H191.647V189.12C191.647 189.15 191.647 189.211 191.647 189.242C191.708 191.657 188.407 193.614 184.341 193.614Z" fill="#083B5A"/>
<path d="M123.382 155.797H109.105V157.325V157.387C109.105 159.679 112.285 161.544 116.229 161.544C120.172 161.544 123.352 159.679 123.352 157.387V157.325L123.382 155.797Z" fill="#F9F7EF"/>
<path d="M116.259 161.759C112.193 161.759 108.892 159.802 108.892 157.387V155.553H123.627V157.387C123.596 159.802 120.295 161.759 116.259 161.759ZM109.35 156.011V157.387C109.35 159.558 112.438 161.3 116.259 161.3C120.081 161.3 123.168 159.527 123.168 157.387V156.011H109.35Z" fill="#083B5A"/>
<path d="M116.259 159.989C120.193 159.989 123.382 158.128 123.382 155.832C123.382 153.535 120.193 151.674 116.259 151.674C112.325 151.674 109.136 153.535 109.136 155.832C109.136 158.128 112.325 159.989 116.259 159.989Z" fill="#F9F7EF"/>
<path d="M116.26 160.202C112.194 160.202 108.892 158.246 108.892 155.831C108.892 153.416 112.194 151.459 116.26 151.459C120.326 151.459 123.627 153.416 123.627 155.831C123.627 158.246 120.295 160.202 116.26 160.202ZM116.26 151.918C112.438 151.918 109.351 153.691 109.351 155.831C109.351 157.971 112.438 159.744 116.26 159.744C120.081 159.744 123.169 157.971 123.169 155.831C123.169 153.691 120.051 151.918 116.26 151.918Z" fill="#083B5A"/>
<path d="M122.434 149.653H110.083V155.401V155.462C110.083 157.449 112.834 159.069 116.258 159.069C119.682 159.069 122.434 157.449 122.434 155.462V155.401V149.653Z" fill="#F9F7EF"/>
<path d="M116.258 159.283C112.712 159.283 109.838 157.571 109.838 155.462V149.439H122.648V155.462C122.648 157.571 119.774 159.283 116.258 159.283ZM110.297 149.867V155.431C110.297 157.296 112.957 158.794 116.258 158.794C119.56 158.794 122.22 157.296 122.22 155.431V149.867H110.297Z" fill="#083B5A"/>
<path d="M123.382 149.868H109.105V151.397V151.458C109.105 153.751 112.284 155.616 116.228 155.616C120.172 155.616 123.351 153.751 123.351 151.458V151.397L123.382 149.868Z" fill="#F9F7EF"/>
<path d="M116.259 155.859C112.193 155.859 108.891 153.903 108.891 151.488V149.653H123.626V151.488C123.596 153.903 120.294 155.859 116.259 155.859ZM109.35 150.112V151.488C109.35 153.658 112.437 155.401 116.259 155.401C120.08 155.401 123.168 153.628 123.168 151.488V150.112H109.35Z" fill="#083B5A"/>
<path d="M116.259 154.058C120.193 154.058 123.382 152.196 123.382 149.9C123.382 147.604 120.193 145.742 116.259 145.742C112.325 145.742 109.136 147.604 109.136 149.9C109.136 152.196 112.325 154.058 116.259 154.058Z" fill="#F9F7EF"/>
<path d="M116.259 154.303C112.193 154.303 108.891 152.346 108.891 149.931C108.891 147.516 112.193 145.56 116.259 145.56C120.325 145.56 123.626 147.516 123.626 149.931C123.626 152.346 120.294 154.303 116.259 154.303ZM116.259 145.988C112.437 145.988 109.35 147.761 109.35 149.901C109.35 152.041 112.437 153.814 116.259 153.814C120.08 153.814 123.168 152.041 123.168 149.901C123.168 147.761 120.05 145.988 116.259 145.988Z" fill="#083B5A"/>
<path d="M116.259 159.651C112.407 159.651 109.289 157.878 109.136 155.646C109.136 155.707 109.136 155.738 109.136 155.799C109.136 158.092 112.315 159.957 116.259 159.957C120.203 159.957 123.382 158.092 123.382 155.799C123.382 155.738 123.382 155.707 123.382 155.646C123.229 157.878 120.111 159.651 116.259 159.651ZM116.259 153.751C112.407 153.751 109.289 151.978 109.136 149.746C109.136 149.807 109.136 149.838 109.136 149.899C109.136 152.192 112.315 154.057 116.259 154.057C120.203 154.057 123.382 152.192 123.382 149.899C123.382 149.838 123.382 149.807 123.382 149.746C123.229 151.978 120.111 153.751 116.259 153.751Z" fill="#F9F7EF"/>
<path d="M116.259 160.201C112.193 160.201 108.891 158.245 108.891 155.83C108.891 155.799 108.891 155.738 108.891 155.707V155.646H109.35C109.472 157.725 112.56 159.437 116.228 159.437C119.897 159.437 122.984 157.725 123.107 155.646H123.565V155.707C123.565 155.738 123.565 155.799 123.565 155.83C123.596 158.245 120.294 160.201 116.259 160.201ZM116.259 154.301C112.193 154.301 108.891 152.345 108.891 149.93C108.891 149.899 108.891 149.838 108.891 149.807V149.746H109.35C109.472 151.825 112.56 153.537 116.228 153.537C119.897 153.537 122.984 151.825 123.107 149.746H123.565V149.807C123.565 149.838 123.565 149.899 123.565 149.93C123.596 152.314 120.294 154.301 116.259 154.301Z" fill="#083B5A"/>
<path d="M184.188 197.162C182.201 197.162 180.245 196.643 178.471 195.603L108.861 154.668C108.157 154.271 107.729 153.537 107.729 152.712C107.729 151.886 108.127 151.153 108.83 150.725L109.411 151.672C109.075 151.886 108.861 152.253 108.861 152.681C108.861 153.079 109.075 153.476 109.441 153.659L179.052 194.594C182.354 196.52 186.389 196.459 189.599 194.442L243.68 158.215L244.261 159.162L190.18 195.42C188.346 196.582 186.267 197.162 184.188 197.162Z" fill="#083B5A"/>
</svg>
