<svg width="300" height="227" viewBox="0 0 300 227" fill="none" xmlns="http://www.w3.org/2000/svg">
<g clip-path="url(#clip0_783_20456)">
<path d="M0 103.597L251.35 57.8501C251.55 57.8123 251.74 57.9474 251.778 58.1474C251.815 58.3474 251.68 58.5366 251.48 58.5744L0.129732 104.316" fill="#083B5A"/>
<path d="M287.665 155.89L214.907 168.609L141.403 155.733C141.3 155.717 141.3 155.566 141.403 155.55L215.745 142.533L287.665 155.42C287.93 155.469 287.93 155.847 287.665 155.896V155.89Z" fill="#F9F7EF" stroke="#083B5A" stroke-width="0.54055" stroke-miterlimit="10"/>
<path d="M215.112 178.372L215.069 168.988L288 155.782L299.06 163.48L215.112 178.372Z" fill="#F9F7EF" stroke="#083B5A" stroke-width="0.54055" stroke-miterlimit="10"/>
<path d="M215.112 178.739C215.026 178.739 214.944 178.706 214.874 178.652C214.793 178.582 214.744 178.479 214.744 178.371L214.701 168.993C214.701 168.814 214.825 168.663 215.004 168.631L287.935 155.425C288.032 155.409 288.13 155.425 288.211 155.484L299.276 163.182C299.4 163.268 299.454 163.414 299.427 163.56C299.395 163.706 299.281 163.82 299.135 163.841L215.188 178.728C215.188 178.728 215.144 178.733 215.123 178.733L215.112 178.739ZM215.436 169.295L215.48 177.933L298.124 163.274L287.913 156.171L215.436 169.295Z" fill="#083B5A"/>
<path d="M298.93 205.091L287.951 213.291L214.95 226.334L214.982 219.978L298.93 205.091Z" fill="#F9F7EF" stroke="#083B5A" stroke-width="0.54055" stroke-miterlimit="10"/>
<path d="M214.95 226.703C214.863 226.703 214.782 226.67 214.712 226.616C214.631 226.546 214.582 226.443 214.582 226.335L214.614 219.978C214.614 219.8 214.744 219.649 214.917 219.616L298.865 204.73C299.032 204.702 299.2 204.789 299.265 204.946C299.335 205.103 299.286 205.286 299.146 205.384L288.167 213.589C288.124 213.622 288.07 213.649 288.01 213.654L215.004 226.692C215.004 226.692 214.96 226.697 214.939 226.697L214.95 226.703ZM215.35 220.287L215.323 225.897L287.805 212.951L297.475 205.724L215.35 220.292V220.287Z" fill="#083B5A"/>
<path d="M215.112 219.75V178.279L299.059 163.728V204.858L215.112 219.75Z" fill="#F9F7EF" stroke="#083B5A" stroke-width="0.54055" stroke-miterlimit="10"/>
<path d="M215.112 220.118C215.025 220.118 214.944 220.086 214.874 220.032C214.793 219.961 214.744 219.859 214.744 219.751V178.28C214.744 178.101 214.874 177.95 215.047 177.918L298.994 163.366C299.102 163.35 299.211 163.377 299.292 163.447C299.373 163.517 299.421 163.62 299.421 163.728V204.859C299.421 205.037 299.292 205.188 299.119 205.221L215.171 220.107C215.171 220.107 215.128 220.113 215.106 220.113L215.112 220.118ZM215.479 178.593V219.313L298.692 204.556V164.171L215.479 178.593Z" fill="#083B5A"/>
<path d="M215.112 219.751V178.28L131.895 163.712V204.934L215.112 219.751Z" fill="#F9F7EF" stroke="#083B5A" stroke-width="0.54055" stroke-miterlimit="10"/>
<path d="M211.101 215.032C211.101 215.032 211.058 215.032 211.036 215.027L135.619 201.502C135.446 201.47 135.316 201.318 135.316 201.14V169.128C135.316 169.02 135.365 168.918 135.446 168.847C135.527 168.777 135.64 168.75 135.743 168.766L211.161 182.096C211.334 182.129 211.463 182.28 211.463 182.458V214.664C211.463 214.773 211.415 214.875 211.333 214.946C211.269 215 211.182 215.032 211.096 215.032H211.101ZM136.051 200.832L210.733 214.227V182.772L136.051 169.572V200.837V200.832Z" fill="#083B5A"/>
<path d="M193.301 195.486C193.301 195.486 193.258 195.486 193.236 195.48L153.414 188.34C153.241 188.307 153.111 188.156 153.111 187.978V179.226C153.111 179.118 153.159 179.015 153.241 178.945C153.322 178.875 153.435 178.848 153.538 178.864L193.36 185.902C193.533 185.934 193.663 186.086 193.663 186.264V195.118C193.663 195.226 193.614 195.329 193.533 195.399C193.468 195.453 193.382 195.486 193.295 195.486H193.301ZM153.846 187.669L192.933 194.68V186.572L153.846 179.664V187.669Z" fill="#083B5A"/>
<path d="M180.122 206.366C180.122 206.366 180.079 206.366 180.057 206.361L166.592 203.944C166.419 203.912 166.289 203.761 166.289 203.582V195.89C166.289 195.782 166.338 195.679 166.419 195.609C166.5 195.539 166.613 195.512 166.716 195.528L180.181 197.906C180.354 197.939 180.484 198.09 180.484 198.269V205.993C180.484 206.101 180.435 206.204 180.354 206.274C180.289 206.328 180.203 206.361 180.116 206.361L180.122 206.366ZM167.024 203.279L179.754 205.561V198.582L167.024 196.333V203.279Z" fill="#083B5A"/>
<path d="M232.874 216.534C232.755 216.534 232.636 216.475 232.566 216.372C232.485 216.253 232.485 216.091 232.566 215.972L251.723 186.123C251.777 186.036 251.869 185.977 251.972 185.961L262.588 184.166C262.718 184.145 262.853 184.193 262.934 184.296L281.681 207.377C281.762 207.48 281.783 207.615 281.74 207.74C281.697 207.864 281.589 207.95 281.459 207.972L232.939 216.54C232.939 216.54 232.896 216.545 232.874 216.545V216.534ZM252.253 186.653L233.636 215.659L280.713 207.345L262.496 184.912L252.253 186.647V186.653Z" fill="#083B5A"/>
<path d="M215.112 178.549L215.069 168.987L141.381 156.052L131.895 163.733L215.112 178.549Z" fill="#F9F7EF" stroke="#083B5A" stroke-width="0.54055" stroke-miterlimit="10"/>
<path d="M215.112 178.918C215.112 178.918 215.069 178.918 215.047 178.912L131.824 164.096C131.684 164.069 131.57 163.966 131.532 163.826C131.494 163.685 131.543 163.539 131.657 163.447L141.143 155.766C141.224 155.701 141.332 155.669 141.435 155.69L215.123 168.631C215.296 168.663 215.426 168.815 215.426 168.993L215.469 178.556C215.469 178.664 215.42 178.766 215.339 178.837C215.274 178.891 215.188 178.923 215.101 178.923L215.112 178.918ZM132.748 163.512L214.744 178.112L214.701 169.296L141.478 156.442L132.743 163.512H132.748Z" fill="#083B5A"/>
<path d="M214.95 226.335L214.891 219.908L131.895 204.935L141.219 213.037L214.95 226.335Z" fill="#F9F7EF" stroke="#083B5A" stroke-width="0.54055" stroke-miterlimit="10"/>
<path d="M215.112 220.118C215.112 220.118 215.069 220.118 215.047 220.113L131.824 205.296C131.651 205.264 131.521 205.113 131.521 204.934V163.717C131.521 163.609 131.57 163.506 131.651 163.436C131.732 163.366 131.846 163.339 131.949 163.355L215.172 177.923C215.345 177.955 215.474 178.107 215.474 178.285V219.756C215.474 219.864 215.426 219.967 215.345 220.037C215.28 220.091 215.193 220.124 215.107 220.124L215.112 220.118ZM132.257 204.626L214.745 219.313V178.593L132.257 164.155V204.632V204.626Z" fill="#083B5A"/>
<path d="M131.895 163.733L215.118 178.55" stroke="#083B5A" stroke-width="0.54055" stroke-miterlimit="10"/>
<path d="M214.95 226.334L214.89 219.907L131.894 204.934L141.219 213.036L214.95 226.334Z" fill="#F9F7EF" stroke="#083B5A" stroke-width="0.54055" stroke-miterlimit="10"/>
<path d="M214.95 226.702C214.95 226.702 214.906 226.702 214.885 226.696L141.159 213.404C141.094 213.393 141.035 213.361 140.981 213.318L131.656 205.209C131.532 205.101 131.494 204.923 131.564 204.772C131.635 204.62 131.797 204.539 131.959 204.572L214.955 219.55C215.128 219.583 215.258 219.734 215.258 219.907L215.317 226.329C215.317 226.437 215.269 226.539 215.187 226.615C215.123 226.669 215.036 226.702 214.95 226.702ZM141.386 212.696L214.577 225.896L214.523 220.22L133.137 205.534L141.381 212.701L141.386 212.696Z" fill="#083B5A"/>
<path d="M224.102 197.708C225.755 197.708 227.096 196.232 227.096 194.411C227.096 192.59 225.755 191.113 224.102 191.113C222.448 191.113 221.107 192.59 221.107 194.411C221.107 196.232 222.448 197.708 224.102 197.708Z" fill="#F9D97D" stroke="#083B5A" stroke-width="0.54055" stroke-miterlimit="10"/>
<path d="M224.102 210.816C225.755 210.816 227.096 209.34 227.096 207.519C227.096 205.698 225.755 204.222 224.102 204.222C222.448 204.222 221.107 205.698 221.107 207.519C221.107 209.34 222.448 210.816 224.102 210.816Z" fill="#F9D97D" stroke="#083B5A" stroke-width="0.54055" stroke-miterlimit="10"/>
<path d="M289.422 186.291C291.076 186.291 292.417 184.815 292.417 182.994C292.417 181.173 291.076 179.696 289.422 179.696C287.768 179.696 286.427 181.173 286.427 182.994C286.427 184.815 287.768 186.291 289.422 186.291Z" fill="#F9D97D" stroke="#083B5A" stroke-width="0.54055" stroke-miterlimit="10"/>
<path d="M289.422 199.399C291.076 199.399 292.417 197.923 292.417 196.102C292.417 194.281 291.076 192.805 289.422 192.805C287.768 192.805 286.427 194.281 286.427 196.102C286.427 197.923 287.768 199.399 289.422 199.399Z" fill="#F9D97D" stroke="#083B5A" stroke-width="0.54055" stroke-miterlimit="10"/>
<path d="M219.523 187.432C219.436 187.432 219.355 187.4 219.285 187.345C219.204 187.275 219.155 187.173 219.155 187.064V183.081C219.155 182.902 219.285 182.751 219.458 182.718L294.708 169.61C294.816 169.594 294.924 169.621 295.005 169.691C295.086 169.761 295.135 169.864 295.135 169.972V173.956C295.135 174.134 295.005 174.286 294.832 174.318L219.582 187.427C219.582 187.427 219.539 187.427 219.517 187.427L219.523 187.432ZM219.89 183.389V186.627L294.405 173.648V170.41L219.89 183.389Z" fill="#083B5A"/>
<path d="M171.598 155.815C171.598 159.431 191.247 162.361 215.48 162.361C239.712 162.361 259.361 159.431 259.361 155.815C259.361 155.615 255.221 148.215 255.221 148.215C255.221 148.215 238.383 149.269 215.48 149.269C192.576 149.269 175.619 148.582 175.619 148.582C175.619 148.582 171.598 155.761 171.598 155.82V155.815Z" fill="#083B5A"/>
<path d="M215.479 143.517C226.02 143.517 235.923 144.128 243.366 145.241C252.145 146.55 254.491 148.144 254.491 148.879C254.491 149.615 252.15 151.209 243.366 152.517C235.923 153.631 226.015 154.242 215.479 154.242C204.944 154.242 195.036 153.631 187.592 152.517C178.814 151.209 176.468 149.615 176.468 148.879C176.468 148.144 178.808 146.55 187.592 145.241C195.036 144.128 204.944 143.517 215.479 143.517ZM215.479 142.977C193.636 142.977 175.927 145.62 175.927 148.879C175.927 152.139 193.636 154.782 215.479 154.782C237.323 154.782 255.031 152.139 255.031 148.879C255.031 145.62 237.323 142.977 215.479 142.977Z" fill="#083B5A"/>
<path d="M169.679 79.7652L215.685 87.8086L261.324 79.8139C261.389 79.8031 261.389 79.7112 261.324 79.7004L215.161 71.6191L169.673 79.7706L169.679 79.7652Z" fill="#F9D97D"/>
<path d="M232.491 74.8027L187.755 82.8786L197.798 84.6353L242.561 76.5433L232.491 74.8027Z" fill="#083B5A"/>
<path d="M197.798 85.0029C197.798 85.0029 197.755 85.0029 197.733 84.9975L187.69 83.2407C187.517 83.2083 187.387 83.0569 187.387 82.8786C187.387 82.7002 187.512 82.5488 187.69 82.5164L232.426 74.4406C232.469 74.4352 232.512 74.4352 232.556 74.4406L242.626 76.1757C242.799 76.2082 242.929 76.3595 242.929 76.5379C242.929 76.7163 242.804 76.8676 242.626 76.9001L197.863 84.9921C197.863 84.9921 197.82 84.9975 197.798 84.9975V85.0029ZM189.852 82.8732L197.798 84.2624L240.453 76.5487L232.496 75.1757L189.858 82.8732H189.852Z" fill="#083B5A"/>
<path d="M215.68 155.977V87.7384L169.49 79.7383V147.783L215.68 155.977Z" fill="#F9D97D"/>
<path d="M197.615 92.1385V84.5546L187.555 82.8086V90.3547L197.615 92.1385Z" fill="#083B5A"/>
<path d="M197.615 92.5061C197.615 92.5061 197.571 92.5061 197.55 92.5007L187.49 90.7168C187.317 90.6844 187.188 90.5331 187.188 90.3547V82.814C187.188 82.7059 187.236 82.6032 187.317 82.5329C187.398 82.4626 187.506 82.4356 187.615 82.4518L197.674 84.1924C197.853 84.2248 197.977 84.3762 197.977 84.5546V92.1385C197.977 92.2466 197.928 92.3493 197.847 92.4196C197.782 92.4736 197.696 92.5061 197.609 92.5061H197.615ZM187.923 90.0466L197.247 91.7006V84.8627L187.923 83.2464V90.0466Z" fill="#083B5A"/>
<path d="M215.68 156.34C215.68 156.34 215.636 156.34 215.615 156.334L169.425 148.14C169.252 148.107 169.122 147.956 169.122 147.777V79.7329C169.122 79.6248 169.171 79.5221 169.252 79.4519C169.333 79.3816 169.441 79.3546 169.549 79.3708L215.739 87.3763C215.918 87.4088 216.042 87.5601 216.042 87.7385V155.972C216.042 156.08 215.993 156.183 215.912 156.253C215.847 156.307 215.761 156.34 215.674 156.34H215.68ZM169.857 147.475L215.312 155.534V88.0466L169.857 80.1708V147.475Z" fill="#083B5A"/>
<path d="M207.361 130.518C207.361 130.518 207.318 130.518 207.296 130.512L177.441 125.166C177.268 125.134 177.139 124.982 177.139 124.804V92.3062C177.139 92.1981 177.187 92.0954 177.268 92.0251C177.349 91.9548 177.463 91.9278 177.566 91.944L207.42 97.1711C207.593 97.2036 207.723 97.3549 207.723 97.5333V130.156C207.723 130.264 207.674 130.366 207.593 130.437C207.528 130.491 207.442 130.523 207.355 130.523L207.361 130.518ZM177.874 124.496L206.993 129.712V97.8414L177.874 92.744V124.496Z" fill="#083B5A"/>
<path d="M189.106 123.886C189.106 123.886 189.052 123.886 189.041 123.886C187.939 123.859 186.89 123.383 186.101 122.545C185.295 121.691 184.852 120.561 184.852 119.356V118.664C184.852 117.902 185.457 117.286 186.198 117.286C186.566 117.286 186.912 117.437 187.166 117.707C187.409 117.967 187.544 118.307 187.544 118.669V119.394C187.544 119.864 187.717 120.307 188.025 120.637C188.322 120.956 188.717 121.129 189.139 121.129C189.139 121.129 189.149 121.129 189.155 121.129C189.566 121.124 189.949 120.945 190.241 120.637C190.555 120.307 190.722 119.869 190.722 119.394V99.0799C190.728 98.6853 190.895 98.3069 191.182 98.0474C191.463 97.7934 191.836 97.669 192.209 97.7069C192.89 97.7771 193.42 98.388 193.42 99.1069V119.367C193.42 120.567 192.977 121.702 192.171 122.551C191.376 123.394 190.322 123.87 189.193 123.891L189.144 123.524L189.155 123.891H189.106V123.886ZM186.198 118.021C185.863 118.021 185.587 118.313 185.587 118.664V119.356C185.587 120.367 185.955 121.324 186.63 122.037C187.285 122.729 188.155 123.124 189.079 123.151L189.106 123.518V123.151H189.133H189.176C190.106 123.129 190.976 122.74 191.636 122.042C192.312 121.324 192.685 120.372 192.685 119.361V99.1015C192.685 98.7609 192.436 98.4636 192.133 98.4312C191.966 98.415 191.798 98.469 191.674 98.5826C191.539 98.7069 191.463 98.8853 191.463 99.0745V119.388C191.458 120.048 191.214 120.669 190.776 121.134C190.344 121.594 189.771 121.848 189.155 121.859C189.144 121.859 189.128 121.859 189.117 121.859C188.517 121.859 187.933 121.605 187.495 121.134C187.057 120.669 186.814 120.048 186.814 119.388V118.664C186.814 118.491 186.749 118.329 186.636 118.205C186.522 118.08 186.366 118.015 186.203 118.015L186.198 118.021Z" fill="#083B5A"/>
<path d="M182.922 109.427C182.311 109.324 181.917 108.713 182.079 108.108C183.468 102.794 188.144 101.146 193.128 102.011C197.923 102.843 201.55 106.578 202.76 111.297C202.955 112.049 202.323 112.751 201.566 112.622L182.928 109.427H182.922Z" fill="#083B5A"/>
<path d="M201.739 113.005C201.658 113.005 201.577 112.999 201.496 112.983L182.857 109.788C182.468 109.724 182.117 109.491 181.901 109.156C181.684 108.821 181.62 108.405 181.717 108.015C183.025 103.01 187.312 100.632 193.182 101.648C197.933 102.469 201.831 106.221 203.106 111.205C203.231 111.686 203.106 112.189 202.771 112.551C202.501 112.843 202.123 113.005 201.734 113.005H201.739ZM182.982 109.064L201.62 112.259C201.852 112.297 202.074 112.221 202.236 112.048C202.398 111.87 202.463 111.621 202.398 111.383C201.193 106.68 197.528 103.145 193.058 102.372C187.598 101.426 183.625 103.605 182.425 108.199C182.376 108.388 182.409 108.588 182.517 108.756C182.625 108.924 182.787 109.032 182.982 109.064Z" fill="#083B5A"/>
<path d="M215.68 155.978V87.7385L261.464 79.7275V147.821L215.68 155.978Z" fill="#F9D97D"/>
<path d="M215.68 156.34C215.593 156.34 215.512 156.307 215.442 156.253C215.361 156.183 215.312 156.08 215.312 155.972V87.7387C215.312 87.5603 215.442 87.4089 215.615 87.3765L261.405 79.3601C261.513 79.3385 261.621 79.371 261.702 79.4412C261.783 79.5115 261.832 79.6142 261.832 79.7223V147.821C261.832 147.999 261.702 148.151 261.529 148.183L215.739 156.334C215.739 156.334 215.696 156.34 215.674 156.34H215.68ZM216.047 88.0468V155.534L261.102 147.513V80.1601L216.047 88.0468Z" fill="#083B5A"/>
<path d="M250.459 116.572V121.594L227.864 125.443V120.535L250.459 116.572Z" fill="#083B5A"/>
<path d="M228.956 105.589L233.621 98.8857L238.253 103.951L235.875 104.367V116.259L231.361 117.027V105.156L228.956 105.589Z" fill="#083B5A"/>
<path d="M240.064 103.713L244.729 97.0098L249.367 102.08L246.988 102.496V114.383L242.475 115.156V103.286L240.064 103.713Z" fill="#083B5A"/>
<path d="M224.231 130.517C224.145 130.517 224.064 130.485 223.993 130.431C223.912 130.361 223.864 130.258 223.864 130.15V97.5276C223.864 97.3492 223.994 97.1978 224.166 97.1654L254.021 91.9383C254.129 91.9166 254.237 91.9491 254.318 92.0193C254.399 92.0896 254.448 92.1923 254.448 92.3004V124.798C254.448 124.977 254.318 125.128 254.145 125.16L224.291 130.507C224.291 130.507 224.248 130.512 224.226 130.512L224.231 130.517ZM224.599 97.8357V129.707L253.718 124.49V92.7383L224.599 97.8357Z" fill="#083B5A"/>
<path d="M215.685 88.1758C215.685 88.1758 215.642 88.1758 215.62 88.1703L169.614 80.127C169.441 80.0945 169.311 79.9432 169.311 79.7648C169.311 79.5864 169.441 79.4351 169.614 79.4026L215.101 71.2511C215.144 71.2457 215.188 71.2457 215.231 71.2511L261.394 79.3323C261.599 79.3648 261.745 79.5432 261.745 79.7486C261.745 79.954 261.599 80.1324 261.394 80.1702L215.755 88.1649C215.755 88.1649 215.712 88.1703 215.69 88.1703L215.685 88.1758ZM171.781 79.7594L215.685 87.4352L259.523 79.754L215.161 71.9863L171.781 79.7594Z" fill="#083B5A"/>
<path d="M119.953 25.9482L126.505 27.0239C129.683 27.5483 132.018 30.2943 132.018 33.516V43.6134C132.018 46.0405 133.748 48.127 136.132 48.5757C140.213 49.3433 143.164 52.9055 143.164 57.0569L143.083 106.571L101.223 77.2303L111.385 26.6456C111.385 26.6456 118.494 25.705 119.953 25.9428V25.9482Z" fill="#F9F7EF" stroke="#083B5A" stroke-width="0.54055" stroke-miterlimit="10"/>
<path d="M143.083 106.944C143.008 106.944 142.937 106.923 142.873 106.88L101.012 77.5385C100.893 77.4575 100.834 77.3061 100.861 77.1656L111.023 26.5809C111.056 26.4295 111.18 26.3106 111.337 26.289C111.629 26.2511 118.515 25.343 120.013 25.5863L126.564 26.662C129.937 27.2133 132.386 30.0999 132.386 33.5161V43.6136C132.386 45.8623 133.991 47.7975 136.202 48.2191C140.451 49.0191 143.537 52.7381 143.537 57.0625L143.456 106.577C143.456 106.712 143.381 106.842 143.256 106.901C143.202 106.928 143.143 106.944 143.089 106.944H143.083ZM101.629 77.0737L142.716 105.874L142.797 57.0625C142.797 53.0895 139.964 49.6732 136.062 48.938C133.505 48.4569 131.645 46.2191 131.645 43.6136V33.5161C131.645 30.462 129.456 27.8836 126.44 27.3863L119.888 26.3106C118.786 26.1268 113.829 26.7052 111.688 26.9809L101.623 77.0737H101.629Z" fill="#083B5A"/>
<path d="M113.926 26.7053L120.478 27.781C123.656 28.3053 125.991 31.0513 125.991 34.273V44.3705C125.991 46.7975 127.721 48.8841 130.105 49.3327C134.186 50.1003 137.138 53.6625 137.138 57.8139V103.977L107.537 102.523L95.1963 77.9873L106.467 31.6351C107.278 28.2945 110.532 26.1431 113.921 26.6999L113.926 26.7053Z" fill="#F9F7EF" stroke="#083B5A" stroke-width="0.54055" stroke-miterlimit="10"/>
<path d="M137.143 104.345C137.143 104.345 137.132 104.345 137.127 104.345L107.526 102.891C107.397 102.885 107.278 102.81 107.218 102.691L94.8774 78.1551C94.8396 78.0794 94.8288 77.9875 94.8504 77.901L106.121 31.5488C106.975 28.0407 110.429 25.7541 113.991 26.3379L120.543 27.4136C123.916 27.965 126.364 30.8515 126.364 34.2678V44.3653C126.364 46.614 127.97 48.5491 130.181 48.9708C134.429 49.7708 137.516 53.4898 137.516 57.8142V103.977C137.516 104.08 137.473 104.172 137.402 104.242C137.332 104.307 137.246 104.345 137.148 104.345H137.143ZM107.77 102.172L136.775 103.593V57.8142C136.775 53.8411 133.943 50.4249 130.04 49.6897C127.483 49.2086 125.624 46.9707 125.624 44.3653V34.2678C125.624 31.2137 123.435 28.6353 120.418 28.138L113.867 27.0623C110.683 26.5379 107.591 28.5866 106.829 31.7218L95.5909 77.9443L107.775 102.172H107.77Z" fill="#083B5A"/>
<path d="M180.009 62.4474L239.74 72.8909L251.356 71.0368L189.89 60.2744L180.009 62.0582C179.793 62.0961 179.793 62.4096 180.009 62.4474Z" fill="#F9F7EF" stroke="#083B5A" stroke-width="0.54055" stroke-miterlimit="10"/>
<path d="M239.74 73.2575C239.74 73.2575 239.696 73.2575 239.675 73.2521L179.944 62.8086C179.668 62.76 179.479 62.533 179.479 62.2519C179.479 61.9708 179.668 61.7437 179.944 61.6951L189.825 59.9113C189.868 59.9059 189.912 59.9059 189.955 59.9113L251.421 70.6736C251.599 70.7061 251.724 70.8574 251.724 71.0358C251.724 71.2142 251.594 71.3655 251.415 71.398L239.799 73.2521C239.799 73.2521 239.761 73.2521 239.74 73.2521V73.2575ZM181.014 62.2519L239.745 72.5169L249.134 71.0196L189.895 60.6464L181.014 62.2519Z" fill="#083B5A"/>
<path d="M251.356 74.8804L239.74 76.7345V72.8912L251.356 71.0371V74.8804Z" fill="#F9F7EF" stroke="#083B5A" stroke-width="0.54055" stroke-miterlimit="10"/>
<path d="M239.74 77.1021C239.653 77.1021 239.567 77.0696 239.502 77.0156C239.421 76.9453 239.372 76.8426 239.372 76.7345V72.8966C239.372 72.7182 239.502 72.5615 239.68 72.5344L251.297 70.6803C251.405 70.6641 251.513 70.6912 251.594 70.7614C251.675 70.8317 251.724 70.9344 251.724 71.0425V74.8804C251.724 75.0588 251.594 75.2156 251.416 75.2426L239.799 77.0967C239.799 77.0967 239.761 77.0967 239.74 77.0967V77.1021ZM240.107 73.2101V76.3075L250.989 74.5723V71.475L240.107 73.2101Z" fill="#083B5A"/>
<path d="M239.74 76.8087L180.009 66.3707V62.4463L239.74 72.8897V76.8087Z" fill="#F9F7EF" stroke="#083B5A" stroke-width="0.54055" stroke-miterlimit="10"/>
<path d="M239.74 77.1768C239.74 77.1768 239.696 77.1768 239.675 77.1714L179.944 66.728C179.771 66.6955 179.641 66.5442 179.641 66.3658V62.4468C179.641 62.3387 179.69 62.236 179.771 62.1657C179.852 62.0955 179.965 62.0684 180.068 62.0846L239.799 72.5281C239.972 72.5605 240.102 72.7119 240.102 72.8902V76.8092C240.102 76.9173 240.053 77.02 239.972 77.0903C239.907 77.1444 239.821 77.1768 239.734 77.1768H239.74ZM180.376 66.0577L239.372 76.3714V73.1984L180.376 62.8847V66.0577Z" fill="#083B5A"/>
<path d="M214.107 66.8407C215.453 66.8407 216.545 65.7488 216.545 64.4028V55.0459H211.674V64.4028C211.674 65.7488 212.766 66.8407 214.112 66.8407H214.107Z" fill="#F9F7EF" stroke="#083B5A" stroke-width="0.54055" stroke-miterlimit="10"/>
<path d="M214.107 67.2087C212.561 67.2087 211.301 65.9492 211.301 64.4032V55.0463C211.301 54.8409 211.463 54.6787 211.669 54.6787H216.539C216.745 54.6787 216.907 54.8409 216.907 55.0463V64.4032C216.907 65.9492 215.647 67.2087 214.101 67.2087H214.107ZM212.036 55.4139V64.4032C212.036 65.5438 212.966 66.4735 214.107 66.4735C215.247 66.4735 216.177 65.5438 216.177 64.4032V55.4139H212.042H212.036Z" fill="#083B5A"/>
<path d="M116.953 45.6202C117.359 46.1013 117.986 46.3283 118.602 46.2202C121.997 45.6202 134.035 43.4958 134.548 43.3499C137.532 42.4958 139.451 39.2957 138.456 36.0957C137.635 33.4578 139.283 30.0956 141.889 29.1766L157.23 23.6306C158.895 23.0414 160.749 23.6414 162.408 24.2468L168.116 26.3388C170.63 27.2577 173.322 27.5928 175.981 27.3171L180.506 26.8469C184.236 26.4577 186.846 22.9819 186.182 19.2954L184.1 7.78166C183.214 2.88428 178.527 -0.369837 173.625 0.516666L104.591 12.998C100.391 13.7547 97.607 17.7764 98.3638 21.9765L116.948 45.6202H116.953Z" fill="#F9F7EF" stroke="#083B5A" stroke-width="0.54055" stroke-miterlimit="10"/>
<path d="M118.305 46.6154C117.683 46.6154 117.083 46.3397 116.672 45.8586C116.672 45.8586 116.672 45.8532 116.667 45.8478L98.0827 22.2041C98.0449 22.1555 98.0233 22.1014 98.0125 22.042C97.6287 19.9176 98.0936 17.7662 99.326 15.9878C100.558 14.2094 102.407 13.0202 104.537 12.6364L173.56 0.155069C176.025 -0.293588 178.517 0.252368 180.576 1.67942C182.636 3.10647 184.014 5.25246 184.463 7.71737L186.544 19.2311C186.879 21.0906 186.419 23.0203 185.29 24.5339C184.155 26.042 182.425 27.0204 180.549 27.215L176.025 27.6853C173.322 27.9664 170.544 27.6204 167.998 26.6853L162.289 24.5933C160.635 23.9879 158.889 23.442 157.359 23.9771L142.024 29.5232C139.608 30.3772 138.051 33.5178 138.819 35.9881C139.311 37.5774 139.154 39.2531 138.365 40.7126C137.581 42.1666 136.229 43.2531 134.662 43.7018C134.143 43.8532 123.31 45.7667 118.678 46.5829C118.559 46.6046 118.434 46.6154 118.31 46.6154H118.305ZM117.24 45.3883C117.559 45.7667 118.056 45.9451 118.543 45.8586C125.629 44.6099 134.046 43.1126 134.456 42.9991C135.835 42.6045 137.024 41.6423 137.716 40.3666C138.408 39.0855 138.548 37.6098 138.116 36.2098C137.24 33.3935 139.019 29.8097 141.775 28.8367L157.111 23.2906C158.873 22.669 160.76 23.2528 162.538 23.9068L168.246 25.9988C170.695 26.8961 173.354 27.2258 175.949 26.9556L180.473 26.4853C182.176 26.3069 183.679 25.4582 184.701 24.0906C185.728 22.723 186.128 21.0419 185.819 19.3608L183.738 7.8471C183.328 5.57679 182.057 3.59837 180.16 2.27943C178.263 0.960489 175.965 0.463182 173.69 0.874001L104.656 13.3553C100.694 14.0742 98.0449 17.8581 98.7098 21.8149L117.234 45.3829L117.24 45.3883Z" fill="#083B5A"/>
<path d="M119.37 46.0683C124.208 45.2143 131.013 43.998 131.402 43.8899C134.386 43.0358 136.305 39.8358 135.31 36.6357C134.489 33.9978 135.905 31.1762 138.51 30.2572L154.116 24.7544C155.781 24.1652 157.603 24.176 159.262 24.7869L164.97 26.8788C167.484 27.7977 170.176 28.1329 172.835 27.8572L177.36 27.3869C181.09 26.9977 183.7 23.522 183.036 19.8354L180.954 8.3217C180.068 3.42432 175.381 0.170202 170.479 1.0567L101.445 13.538C97.2449 14.2948 94.461 18.3165 95.2178 22.5166C95.2178 22.5166 117.732 46.3602 119.37 46.0683Z" fill="#F9F7EF" stroke="#083B5A" stroke-width="0.54055" stroke-miterlimit="10"/>
<path d="M119.321 46.442C118.829 46.442 117.245 45.6636 106.413 34.658C100.645 28.7985 95.0018 22.8254 94.9477 22.7659C94.899 22.7119 94.8666 22.647 94.8558 22.5767C94.0612 18.1875 96.9856 13.9658 101.38 13.1766L170.409 0.695253C175.5 -0.223683 180.387 3.16557 181.311 8.25755L183.393 19.7713C183.728 21.6308 183.274 23.5605 182.138 25.0741C181.003 26.5822 179.274 27.5606 177.398 27.7552L172.873 28.2255C170.171 28.5066 167.398 28.1606 164.846 27.2255L159.138 25.1335C157.565 24.5551 155.824 24.5443 154.241 25.1011L138.635 30.6039C136.202 31.4634 134.894 34.0634 135.662 36.5283C136.154 38.1175 135.997 39.7933 135.208 41.2527C134.424 42.7068 133.073 43.7933 131.505 44.242C131.186 44.3339 127.127 45.069 119.435 46.4312C119.402 46.4366 119.364 46.442 119.321 46.442ZM95.5585 22.3443C103.98 31.258 117.775 45.3771 119.332 45.7015C126.651 44.4042 131.013 43.6149 131.3 43.5339C132.678 43.1393 133.867 42.1771 134.559 40.9014C135.251 39.6203 135.392 38.1446 134.959 36.7446C134.073 33.9013 135.581 30.9012 138.386 29.912L153.992 24.4092C155.733 23.793 157.652 23.8038 159.387 24.4416L165.095 26.5336C167.544 27.4309 170.203 27.7606 172.798 27.4903L177.322 27.0201C179.025 26.8417 180.528 25.993 181.549 24.6254C182.576 23.2578 182.976 21.5767 182.668 19.8956L180.587 8.38188C179.738 3.6899 175.236 0.565521 170.538 1.40878L101.505 13.8901C97.5477 14.6036 94.8991 18.3821 95.5531 22.3335L95.5585 22.3443Z" fill="#083B5A"/>
<path d="M188.766 12.7049L218.734 48.7542C220.361 50.711 220.263 53.5759 218.507 55.4138C218.085 55.8516 217.604 56.1976 217.09 56.4517C215.301 57.3273 209.658 58.1436 209.658 58.1436L182.052 28.916C179.311 26.4295 175.744 25.0619 172.046 25.0781L163.787 25.1159C158.408 25.1376 154.035 20.7861 154.035 15.4077C154.035 10.0292 158.127 5.93723 163.322 5.7102L172.1 5.3264C178.5 5.04532 184.668 7.7751 188.766 12.7049Z" fill="#F9F7EF" stroke="#083B5A" stroke-width="0.54055" stroke-miterlimit="10"/>
<path d="M209.658 58.512C209.555 58.512 209.464 58.4688 209.393 58.3985L181.787 29.171C179.144 26.7763 175.706 25.4466 172.112 25.4466C172.09 25.4466 172.068 25.4466 172.047 25.4466L163.787 25.4844C161.084 25.4844 158.549 24.452 156.636 22.5492C154.722 20.6465 153.668 18.1113 153.668 15.4086C153.668 9.99764 157.9 5.57594 163.306 5.34351L172.085 4.95971C178.56 4.67863 184.901 7.48408 189.047 12.4734L219.015 48.5227C220.761 50.62 220.653 53.6957 218.766 55.6687C218.323 56.1282 217.815 56.5066 217.247 56.7823C215.426 57.6742 209.939 58.4742 209.707 58.5066C209.691 58.5066 209.674 58.5066 209.653 58.5066L209.658 58.512ZM172.112 24.7114C175.885 24.7114 179.501 26.106 182.301 28.6466L209.793 57.7553C210.783 57.6039 215.388 56.8796 216.929 56.1228C217.42 55.885 217.858 55.5606 218.242 55.1606C219.869 53.4579 219.961 50.8038 218.453 48.9875L188.485 12.9382C184.485 8.12734 178.366 5.41378 172.117 5.68946L163.338 6.07325C158.328 6.28947 154.403 10.3922 154.403 15.4031C154.403 17.9059 155.382 20.2573 157.155 22.0249C158.917 23.7817 161.257 24.7439 163.744 24.7439C163.76 24.7439 163.771 24.7439 163.787 24.7439L172.047 24.706C172.047 24.706 172.09 24.706 172.117 24.706L172.112 24.7114Z" fill="#083B5A"/>
<path d="M183.344 13.91L213.312 49.9593C214.939 51.9161 214.842 54.781 213.085 56.6189C211.209 58.5811 208.112 58.6946 206.101 56.8675L176.636 30.1211C173.895 27.6346 170.328 26.267 166.63 26.2832L158.371 26.321C152.992 26.3427 148.619 21.9912 148.619 16.6127C148.619 11.2343 152.711 7.1423 157.906 6.91527L166.684 6.53148C173.084 6.2504 179.252 8.98018 183.349 13.91H183.344Z" fill="#F9F7EF" stroke="#083B5A" stroke-width="0.54055" stroke-miterlimit="10"/>
<path d="M209.463 58.5495C208.177 58.5495 206.885 58.0846 205.847 57.1441L176.382 30.3977C173.722 27.9814 170.279 26.6516 166.684 26.6516C166.663 26.6516 166.641 26.6516 166.619 26.6516L158.36 26.6895C158.36 26.6895 158.327 26.6895 158.317 26.6895C155.635 26.6895 153.111 25.6462 151.208 23.7543C149.295 21.8516 148.241 19.3164 148.241 16.6136C148.241 11.2027 152.473 6.78102 157.879 6.54858L166.657 6.16479C173.133 5.88371 179.474 8.68916 183.62 13.6784L213.588 49.7277C215.334 51.8251 215.226 54.9008 213.339 56.8738C212.274 57.9873 210.869 58.5495 209.453 58.5495H209.463ZM166.69 25.9165C170.468 25.9165 174.079 27.3111 176.879 29.8517L206.344 56.5981C208.22 58.3009 211.069 58.2036 212.82 56.3657C214.447 54.663 214.539 52.0089 213.031 50.1926L183.063 14.1433C179.063 9.33242 172.944 6.61885 166.695 6.89454L157.917 7.27833C152.906 7.49455 148.981 11.5973 148.981 16.6082C148.981 19.111 149.96 21.4624 151.733 23.23C153.506 24.9976 155.857 25.9435 158.365 25.9489L166.625 25.9111C166.625 25.9111 166.668 25.9111 166.69 25.9111V25.9165Z" fill="#083B5A"/>
<path d="M89.3962 43.7869L120.072 45.7491C124.099 46.0086 127.137 42.1436 125.937 38.2895C125.116 35.6516 127.029 31.7759 129.635 30.8569L144.786 25.8622C146.451 25.273 148.23 25.8352 149.889 26.446L155.597 28.538C158.111 29.4569 160.803 29.792 163.462 29.5164L167.987 29.0461C171.717 28.6569 174.327 25.1812 173.663 21.4946L171.581 9.98088C170.695 5.08349 166.008 1.82938 161.106 2.71588L92.0719 15.1972C87.8718 15.954 85.088 19.9757 85.8447 24.1757L89.3908 43.7977L89.3962 43.7869Z" fill="#F9F7EF" stroke="#083B5A" stroke-width="0.54055" stroke-miterlimit="10"/>
<path d="M120.44 46.1273C120.31 46.1273 120.181 46.1273 120.051 46.1165L89.3746 44.1543C89.207 44.1435 89.0665 44.0191 89.0394 43.8516L85.4934 24.2296C85.1096 22.1052 85.5745 19.9538 86.807 18.1754C88.0394 16.397 89.8881 15.2078 92.0179 14.824L161.046 2.34271C166.133 1.42378 171.025 4.81303 171.949 9.90501L174.03 21.4187C174.365 23.2782 173.906 25.208 172.776 26.7215C171.641 28.2297 169.911 29.2081 168.035 29.4027L163.511 29.8729C160.808 30.154 158.03 29.8081 155.484 28.8729L149.776 26.781C148.165 26.1918 146.457 25.6566 144.922 26.1972L129.764 31.1973C127.348 32.0514 125.532 35.7001 126.305 38.1758C126.905 40.1002 126.516 42.1975 125.273 43.7813C124.105 45.2624 122.327 46.1219 120.456 46.1219L120.44 46.1273ZM89.7043 43.4408L120.094 45.3867C121.894 45.5002 123.564 44.7543 124.678 43.338C125.791 41.9218 126.127 40.1218 125.586 38.4028C124.7 35.5541 126.716 31.5 129.51 30.5162L144.667 25.5161C146.424 24.8945 148.273 25.4675 150.008 26.1053L155.716 28.1972C158.165 29.0945 160.825 29.4243 163.419 29.154L167.944 28.6837C169.646 28.5054 171.149 27.6567 172.176 26.2891C173.203 24.9215 173.603 23.2404 173.295 21.5593L171.214 10.0456C170.365 5.35358 165.857 2.2292 161.165 3.07246L92.1368 15.5538C90.2016 15.9051 88.5205 16.9862 87.4016 18.6025C86.2826 20.2187 85.8556 22.1701 86.207 24.1053L89.7043 43.4408Z" fill="#083B5A"/>
<path d="M85.7204 44.5228L116.397 46.485C120.424 46.7444 123.462 42.8795 122.262 39.0254C121.44 36.3875 122.856 33.5658 125.462 32.6469L141.067 27.1441C142.732 26.5549 144.554 26.5657 146.213 27.1765L151.922 29.2684C154.435 30.1874 157.127 30.5225 159.787 30.2468L164.311 29.7766C168.041 29.3874 170.652 25.9116 169.987 22.2251L167.906 10.7113C167.019 5.81396 162.333 2.55985 157.43 3.44635L88.3961 15.9277C84.196 16.6844 81.4122 20.7061 82.169 24.9062L85.715 44.5282L85.7204 44.5228Z" fill="#F9F7EF" stroke="#083B5A" stroke-width="0.54055" stroke-miterlimit="10"/>
<path d="M116.77 46.8636C116.64 46.8636 116.51 46.8636 116.38 46.8528L85.7042 44.8906C85.5366 44.8798 85.3961 44.7555 85.369 44.5879L81.823 24.9659C81.4392 22.8416 81.9041 20.6902 83.1366 18.9118C84.369 17.1333 86.2177 15.9441 88.3475 15.5603L157.376 3.07904C162.462 2.16011 167.354 5.54936 168.279 10.6413L170.36 22.1551C170.695 24.0146 170.235 25.9443 169.106 27.4579C167.971 28.966 166.241 29.9444 164.365 30.139L159.841 30.6093C157.138 30.8904 154.359 30.5444 151.813 29.6093L146.105 27.5173C144.532 26.9389 142.792 26.9281 141.208 27.4849L125.602 32.9877C123.17 33.8472 121.862 36.4472 122.629 38.9121C123.229 40.8365 122.84 42.9338 121.597 44.5176C120.429 45.9987 118.651 46.8582 116.78 46.8582L116.77 46.8636ZM86.0339 44.1771L116.424 46.1231C118.224 46.242 119.894 45.4906 121.008 44.0744C122.121 42.6581 122.456 40.8581 121.916 39.1392C121.029 36.2959 122.537 33.2958 125.343 32.3066L140.948 26.8038C142.689 26.1876 144.608 26.2038 146.343 26.8362L152.051 28.9282C154.5 29.8255 157.16 30.1552 159.754 29.8849L164.279 29.4147C165.981 29.2363 167.484 28.3876 168.511 27.02C169.538 25.6524 169.938 23.9713 169.63 22.2902L167.549 10.7765C166.7 6.0845 162.192 2.96012 157.5 3.80338L88.4718 16.2847C86.5366 16.636 84.8555 17.7171 83.7366 19.3334C82.6176 20.9496 82.1906 22.901 82.542 24.8362L86.0393 44.1717L86.0339 44.1771Z" fill="#083B5A"/>
<path d="M159.653 21.1996C161.689 20.2324 162.401 17.4744 161.244 15.0394C160.088 12.6044 157.5 11.4145 155.464 12.3816C153.428 13.3488 152.715 16.1068 153.872 18.5418C155.029 20.9768 157.617 22.1667 159.653 21.1996Z" fill="#F9F7EF" stroke="#083B5A" stroke-width="0.54055" stroke-miterlimit="10"/>
<path d="M158.138 21.8999C157.522 21.8999 156.89 21.7594 156.273 21.4729C155.1 20.9323 154.127 19.9485 153.533 18.6891C152.938 17.4296 152.787 16.0566 153.106 14.8079C153.435 13.5376 154.214 12.5538 155.3 12.0349C157.517 10.9808 160.333 12.2511 161.571 14.8674C162.814 17.4836 162.019 20.4675 159.803 21.5215C159.279 21.7702 158.711 21.8945 158.133 21.8945L158.138 21.8999ZM156.965 12.4025C156.5 12.4025 156.046 12.4998 155.614 12.7052C154.727 13.1268 154.089 13.9376 153.819 14.9971C153.538 16.0782 153.673 17.2782 154.198 18.3809C154.722 19.4837 155.565 20.3431 156.581 20.808C157.571 21.2621 158.608 21.2837 159.495 20.8621C161.344 19.981 161.982 17.4404 160.917 15.1863C160.095 13.4619 158.506 12.4025 156.971 12.4025H156.965Z" fill="#083B5A"/>
<path d="M96.6993 29.4449L103.251 30.5206C106.429 31.0449 108.764 33.7909 108.764 37.0126V47.1101C108.764 49.5372 110.494 51.6237 112.878 52.0724C116.959 52.8399 119.911 56.4022 119.911 60.5536V110.495L113.202 111.809L77.9639 80.7269L87.2343 30.9801C87.2343 30.9801 91.8236 30.0341 94.2074 29.5044C95.002 29.3314 95.8399 29.299 96.6885 29.4395L96.6993 29.4449Z" fill="#F9F7EF" stroke="#083B5A" stroke-width="0.54055" stroke-miterlimit="10"/>
<path d="M113.208 112.181C113.122 112.181 113.035 112.149 112.965 112.089L77.7264 81.0077C77.6291 80.9212 77.5859 80.7915 77.6075 80.6672L86.8779 30.9203C86.905 30.7744 87.0185 30.6609 87.1644 30.6284C87.2077 30.6176 91.7807 29.6716 94.1321 29.1527C94.9916 28.9635 95.8781 28.9365 96.7538 29.0824L103.305 30.1581C106.678 30.7095 109.127 33.596 109.127 37.0123V47.1098C109.127 49.3585 110.732 51.2937 112.943 51.7153C117.192 52.5153 120.279 56.2343 120.279 60.5587V110.5C120.279 110.673 120.154 110.824 119.981 110.862L113.273 112.176C113.273 112.176 113.224 112.181 113.203 112.181H113.208ZM78.3697 80.5969L113.316 111.419L119.549 110.197V60.5587C119.549 56.5856 116.716 53.1694 112.814 52.4342C110.257 51.9531 108.397 49.7153 108.397 47.1098V37.0123C108.397 33.9582 106.208 31.3798 103.192 30.8825L96.6403 29.8068C95.8565 29.677 95.0673 29.6987 94.2943 29.8716C92.2456 30.3257 88.5374 31.0933 87.559 31.2987L78.3697 80.5969Z" fill="#083B5A"/>
<path d="M90.3051 30.779L96.8566 31.8547C100.035 32.379 102.37 35.125 102.37 38.3467V48.4442C102.37 50.8712 104.1 52.9578 106.484 53.4064C110.565 54.174 113.516 57.7362 113.516 61.8876V111.829L83.9158 106.602L75.5967 90.0665C72.9967 84.9043 72.321 78.9799 73.6886 73.3635L82.8455 35.7142C83.6563 32.3736 86.9104 30.2222 90.2997 30.779H90.3051Z" fill="#F9F7EF" stroke="#083B5A" stroke-width="0.54055" stroke-miterlimit="10"/>
<path d="M113.522 112.202C113.522 112.202 113.478 112.202 113.457 112.197L83.8562 106.97C83.7427 106.948 83.6454 106.878 83.5913 106.775L75.2723 90.2397C72.6398 85.0017 71.9533 78.98 73.3371 73.288L82.494 35.6387C83.3481 32.1305 86.8022 29.844 90.3644 30.4278L96.9159 31.5035C100.289 32.0548 102.738 34.9414 102.738 38.3577V48.4551C102.738 50.7038 104.343 52.639 106.554 53.0606C110.803 53.8606 113.889 57.5796 113.889 61.904V111.845C113.889 111.954 113.841 112.056 113.759 112.127C113.695 112.181 113.608 112.213 113.522 112.213V112.202ZM84.1643 106.278L113.154 111.397V61.8932C113.154 57.9202 110.322 54.5039 106.419 53.7687C103.862 53.2877 102.002 51.0498 102.002 48.4443V38.3468C102.002 35.2927 99.8133 32.7143 96.797 32.217L90.2455 31.1413C87.0617 30.617 83.9697 32.6657 83.2075 35.8009L74.0506 73.4502C72.7047 78.9746 73.3749 84.818 75.9317 89.8991L84.1643 106.272V106.278Z" fill="#083B5A"/>
<path d="M93.8772 45.6829C95.9132 44.7158 96.6259 41.9578 95.4691 39.5228C94.3124 37.0878 91.7242 35.8979 89.6883 36.865C87.6524 37.8322 86.9397 40.5902 88.0964 43.0252C89.2532 45.4602 91.8413 46.6501 93.8772 45.6829Z" fill="#F9F7EF" stroke="#083B5A" stroke-width="0.54055" stroke-miterlimit="10"/>
<path d="M92.3691 46.3853C91.7529 46.3853 91.1205 46.2447 90.5042 45.9582C89.3312 45.4177 88.3583 44.4339 87.7637 43.1744C87.169 41.9203 87.0177 40.5419 87.3366 39.2933C87.6664 38.023 88.4447 37.0392 89.5313 36.5202C91.7475 35.4662 94.5638 36.7365 95.8016 39.3527C97.0449 41.969 96.2503 44.9528 94.034 46.0069C93.5097 46.2555 92.9421 46.3799 92.3637 46.3799L92.3691 46.3853ZM91.1962 36.8878C90.7313 36.8878 90.2772 36.9851 89.8448 37.1905C88.9583 37.6121 88.3204 38.423 88.0501 39.4824C87.7691 40.5635 87.9042 41.7636 88.4285 42.8663C88.9529 43.969 89.7961 44.8285 90.8124 45.2934C91.8016 45.7474 92.8394 45.769 93.7259 45.3474C95.5746 44.4663 96.2125 41.9257 95.1476 39.6716C94.3259 37.9473 92.7367 36.8878 91.2016 36.8878H91.1962Z" fill="#083B5A"/>
<path d="M101.602 64.23L97.0725 80.8627C93.4941 93.9981 76.5316 97.5333 68.0071 86.9223C60.8664 78.0356 64.553 64.7651 75.2613 60.8353L90.7913 55.1433C96.6941 52.9811 102.716 58.0353 101.608 64.2246L101.602 64.23Z" fill="#F9F7EF" stroke="#083B5A" stroke-width="0.54055" stroke-miterlimit="10"/>
<path d="M80.8504 93.5388C75.7692 93.5388 71.034 91.2847 67.7204 87.1603C64.2393 82.8305 63.0987 77.279 64.5852 71.9276C66.0718 66.5761 69.9151 62.4139 75.1314 60.5004L90.6614 54.8084C93.5587 53.7435 96.6993 54.2948 99.0615 56.2787C101.424 58.2625 102.51 61.2625 101.964 64.295C101.964 64.3058 101.964 64.3166 101.959 64.3275L97.4291 80.9602C95.7101 87.263 90.8722 91.8252 84.4721 93.1604C83.2559 93.4145 82.045 93.5388 80.8504 93.5388ZM93.6128 55.0084C92.7101 55.0084 91.7965 55.1705 90.91 55.4949L75.38 61.1869C70.3908 63.0139 66.715 67.0032 65.288 72.1222C63.8663 77.2412 64.9582 82.5548 68.288 86.6954C72.207 91.5712 78.1963 93.7172 84.3153 92.4415C90.4344 91.1658 95.0723 86.8035 96.7102 80.771L101.235 64.1491C101.726 61.3815 100.732 58.6463 98.5805 56.8354C97.148 55.63 95.3966 55.003 93.6074 55.003L93.6128 55.0084Z" fill="#083B5A"/>
<path d="M96.7805 65.1323L92.2507 81.765C88.6723 94.9004 71.7098 98.4356 63.1853 87.8246C56.0447 78.938 59.7312 65.6675 70.4395 61.7377L85.9695 56.0457C91.8723 53.8835 97.8941 58.9376 96.7859 65.1269L96.7805 65.1323Z" fill="#F9F7EF" stroke="#083B5A" stroke-width="0.54055" stroke-miterlimit="10"/>
<path d="M76.0286 94.4407C70.9475 94.4407 66.2122 92.1866 62.8987 88.0622C59.4175 83.7324 58.277 78.1809 59.7635 72.8295C61.25 67.478 65.0933 63.3158 70.3096 61.4023L85.8396 55.7103C88.737 54.6508 91.8776 55.1967 94.2398 57.1806C96.602 59.1644 97.6885 62.1644 97.1425 65.1969C97.1425 65.2077 97.1425 65.2185 97.1371 65.2293L92.6073 81.8621C90.8884 88.1649 86.0504 92.7271 79.6503 94.0623C78.4341 94.3164 77.2232 94.4407 76.0286 94.4407ZM88.791 55.9103C87.8883 55.9103 86.9748 56.0724 86.0883 56.3968L70.5583 62.0888C65.569 63.9158 61.8932 67.9051 60.4662 73.0241C59.0445 78.1431 60.1365 83.4567 63.4662 87.5973C67.3852 92.4731 73.3745 94.6191 79.4936 93.3434C85.6126 92.0677 90.2505 87.7054 91.8884 81.6729L96.4128 65.051C96.9047 62.2833 95.9101 59.5482 93.7587 57.7427C92.3262 56.5373 90.5748 55.9103 88.7856 55.9103H88.791Z" fill="#083B5A"/>
<path d="M78.7757 86.1044C82.5806 84.2969 83.9132 79.1438 81.7521 74.5947C79.5911 70.0456 74.7547 67.8231 70.9499 69.6306C67.145 71.4381 65.8124 76.5911 67.9735 81.1402C70.1345 85.6893 74.9709 87.9119 78.7757 86.1044Z" fill="#F9F7EF" stroke="#083B5A" stroke-width="0.54055" stroke-miterlimit="10"/>
<path d="M75.9529 87.1002C74.8447 87.1002 73.7096 86.8462 72.6069 86.3381C70.4879 85.3651 68.7257 83.5758 67.6446 81.2947C65.4013 76.5703 66.8122 71.1918 70.796 69.2999C74.7745 67.408 79.8394 69.7161 82.0827 74.4351C84.326 79.1595 82.9152 84.538 78.9313 86.4299C77.9962 86.8732 76.9853 87.0948 75.9529 87.0948V87.1002ZM73.7636 69.3702C72.8555 69.3702 71.9528 69.5594 71.1095 69.9594C67.4933 71.6783 66.2392 76.619 68.3095 80.9758C69.3149 83.1002 70.9528 84.7651 72.915 85.6624C74.8556 86.5543 76.8826 86.5867 78.6178 85.7651C82.2341 84.0461 83.4881 79.1055 81.4178 74.7487C79.834 71.4081 76.7475 69.3702 73.7636 69.3702Z" fill="#083B5A"/>
<path d="M113.516 111.803V69.1641L143.084 64.0234V106.576L113.516 111.803Z" fill="#F9F7EF" stroke="#083B5A" stroke-width="0.54055" stroke-miterlimit="10"/>
<path d="M119.905 68.4174C119.732 68.4174 119.575 68.2931 119.543 68.1147C119.511 67.9147 119.64 67.7255 119.84 67.6877L137.084 64.6714C137.284 64.6336 137.473 64.7687 137.511 64.9687C137.543 65.1687 137.414 65.3579 137.214 65.3957L119.97 68.412C119.97 68.412 119.927 68.4174 119.905 68.4174Z" fill="#083B5A"/>
<path d="M113.516 112.17C113.43 112.17 113.348 112.138 113.278 112.084C113.197 112.013 113.148 111.911 113.148 111.803V69.164C113.148 68.9586 113.311 68.7964 113.516 68.7964C113.721 68.7964 113.884 68.9586 113.884 69.164V111.365L142.717 106.262V64.018C142.717 63.8126 142.879 63.6504 143.084 63.6504C143.29 63.6504 143.452 63.8126 143.452 64.018V106.57C143.452 106.748 143.322 106.9 143.149 106.932L113.581 112.165C113.581 112.165 113.538 112.17 113.516 112.17Z" fill="#083B5A"/>
<path d="M191.036 110.559V120.073L189.679 121.457L187.857 121.024L187.101 119.105L186.971 118.138L186.149 117.732L185.587 118.105L185.198 119.122L186.084 122.149L188.36 123.635L189.106 123.884L190.582 123.327L191.663 122.343L192.776 120.262L193.111 116.862V104.738V98.5644L192.117 98.0293L191.117 98.5969L191.036 110.559Z" fill="#083B5A"/>
<g opacity="0.2" clip-path="url(#clip1_783_20456)">
<path d="M7.03418 -91.1006V387.955" stroke="black" stroke-width="0.54055" stroke-miterlimit="10"/>
<path d="M57.2627 -91.1006V387.955" stroke="black" stroke-width="0.54055" stroke-miterlimit="10"/>
<path d="M107.498 -91.1006V387.955" stroke="black" stroke-width="0.54055" stroke-miterlimit="10"/>
<path d="M157.727 -91.1006V387.955" stroke="black" stroke-width="0.54055" stroke-miterlimit="10"/>
<path d="M207.961 -91.1006V387.955" stroke="black" stroke-width="0.54055" stroke-miterlimit="10"/>
<path d="M258.19 -91.1006V387.955" stroke="black" stroke-width="0.54055" stroke-miterlimit="10"/>
<path d="M481.173 39.585H-115.486" stroke="black" stroke-width="0.54055" stroke-miterlimit="10"/>
<path d="M481.173 86.8818H-115.486" stroke="black" stroke-width="0.54055" stroke-miterlimit="10"/>
<path d="M481.173 134.179H-115.486" stroke="black" stroke-width="0.54055" stroke-miterlimit="10"/>
<path d="M481.173 181.481H-115.486" stroke="black" stroke-width="0.54055" stroke-miterlimit="10"/>
</g>
</g>
<defs>
<clipPath id="clip0_783_20456">
<rect width="300" height="226.701" fill="white"/>
</clipPath>
<clipPath id="clip1_783_20456">
<rect width="562.172" height="479.055" fill="white" transform="translate(-61.082 -161.096)"/>
</clipPath>
</defs>
</svg>
